<svg
  xmlns="http://www.w3.org/2000/svg"
  xmlns:xlink="http://www.w3.org/1999/xlink"
  viewBox="0, 0, 400, 332.71889400921657"
  width="192"
  height="192"
>
  <g>
    <path
      d="M179.243 0.162 C 179.127 0.272,176.855 0.504,174.194 0.676 C 171.532 0.849,168.836 1.065,168.203 1.157 C 167.569 1.248,165.910 1.453,164.516 1.613 C 163.122 1.772,161.359 2.002,160.599 2.124 C 159.839 2.245,158.698 2.427,158.065 2.528 C 157.431 2.629,156.075 2.831,155.051 2.977 C 154.027 3.122,152.679 3.345,152.055 3.472 C 151.432 3.599,150.196 3.817,149.309 3.956 C 146.187 4.444,144.224 4.807,141.935 5.319 C 141.302 5.461,140.369 5.669,139.862 5.780 C 138.065 6.176,136.855 6.454,135.945 6.682 C 135.438 6.809,134.608 7.016,134.101 7.143 C 133.594 7.270,132.765 7.477,132.258 7.604 C 131.751 7.730,130.922 7.938,130.415 8.065 C 128.956 8.429,127.478 8.795,126.728 8.978 C 126.348 9.070,126.037 9.178,126.037 9.217 C 126.037 9.290,125.291 9.497,123.733 9.856 C 123.226 9.972,122.811 10.099,122.811 10.138 C 122.811 10.177,122.448 10.297,122.005 10.404 C 121.561 10.511,120.835 10.687,120.392 10.794 C 119.948 10.902,119.585 11.021,119.585 11.060 C 119.585 11.134,118.840 11.340,117.281 11.699 C 116.774 11.816,116.256 11.951,116.129 12.001 C 116.002 12.050,115.743 12.066,115.553 12.036 C 115.363 12.006,115.207 12.224,115.207 12.519 C 115.207 12.815,115.071 12.920,114.904 12.754 C 114.737 12.587,114.323 12.681,113.982 12.964 C 113.642 13.246,113.364 13.322,113.364 13.134 C 113.364 12.945,113.053 13.049,112.673 13.364 C 112.293 13.680,111.982 13.783,111.982 13.594 C 111.982 13.406,111.671 13.509,111.290 13.825 C 110.910 14.140,110.599 14.244,110.599 14.055 C 110.599 13.867,110.288 13.970,109.908 14.286 C 109.528 14.601,109.217 14.705,109.217 14.516 C 109.217 14.327,108.906 14.431,108.525 14.747 C 108.145 15.062,107.834 15.166,107.834 14.977 C 107.834 14.788,107.523 14.892,107.143 15.207 C 106.763 15.523,106.452 15.627,106.452 15.438 C 106.452 15.249,106.173 15.325,105.833 15.608 C 105.493 15.890,105.078 15.985,104.912 15.818 C 104.745 15.651,104.608 15.769,104.608 16.079 C 104.608 16.390,104.415 16.525,104.179 16.379 C 103.943 16.233,103.618 16.328,103.456 16.590 C 103.294 16.852,102.983 16.955,102.765 16.820 C 102.547 16.685,102.235 16.789,102.074 17.051 C 101.912 17.312,101.587 17.407,101.351 17.261 C 101.115 17.116,100.922 17.228,100.922 17.512 C 100.922 17.795,100.729 17.907,100.493 17.762 C 100.257 17.616,99.931 17.711,99.770 17.972 C 99.608 18.234,99.282 18.329,99.046 18.183 C 98.811 18.037,98.618 18.150,98.618 18.433 C 98.618 18.717,98.424 18.829,98.189 18.683 C 97.953 18.537,97.627 18.632,97.465 18.894 C 97.304 19.156,96.978 19.251,96.742 19.105 C 96.506 18.959,96.313 19.071,96.313 19.355 C 96.313 19.638,96.106 19.742,95.853 19.585 C 95.599 19.429,95.392 19.532,95.392 19.816 C 95.392 20.099,95.184 20.203,94.931 20.046 C 94.677 19.889,94.470 19.993,94.470 20.276 C 94.470 20.560,94.277 20.672,94.041 20.527 C 93.805 20.381,93.480 20.476,93.318 20.737 C 93.156 20.999,92.831 21.094,92.595 20.948 C 92.359 20.802,92.166 20.915,92.166 21.198 C 92.166 21.482,91.959 21.585,91.705 21.429 C 91.452 21.272,91.244 21.376,91.244 21.659 C 91.244 21.942,91.037 22.046,90.783 21.889 C 90.530 21.733,90.323 21.836,90.323 22.120 C 90.323 22.403,90.115 22.507,89.862 22.350 C 89.608 22.194,89.401 22.297,89.401 22.581 C 89.401 22.864,89.208 22.977,88.972 22.831 C 88.736 22.685,88.411 22.780,88.249 23.041 C 88.087 23.303,87.762 23.398,87.526 23.252 C 87.290 23.106,87.097 23.219,87.097 23.502 C 87.097 23.786,86.889 23.889,86.636 23.733 C 86.382 23.576,86.175 23.680,86.175 23.963 C 86.175 24.247,85.968 24.350,85.714 24.194 C 85.461 24.037,85.253 24.141,85.253 24.424 C 85.253 24.707,85.046 24.811,84.793 24.654 C 84.539 24.498,84.332 24.601,84.332 24.885 C 84.332 25.168,84.124 25.272,83.871 25.115 C 83.618 24.959,83.410 25.062,83.410 25.346 C 83.410 25.629,83.203 25.733,82.949 25.576 C 82.696 25.419,82.488 25.523,82.488 25.806 C 82.488 26.090,82.281 26.194,82.028 26.037 C 81.774 25.880,81.567 25.984,81.567 26.267 C 81.567 26.551,81.359 26.654,81.106 26.498 C 80.853 26.341,80.645 26.445,80.645 26.728 C 80.645 27.011,80.438 27.115,80.184 26.959 C 79.931 26.802,79.724 26.928,79.724 27.239 C 79.724 27.549,79.588 27.668,79.423 27.503 C 79.258 27.338,78.828 27.563,78.468 28.003 C 78.030 28.536,77.911 28.572,78.111 28.111 C 78.310 27.649,78.191 27.685,77.754 28.219 C 77.393 28.658,76.963 28.883,76.798 28.718 C 76.633 28.553,76.498 28.672,76.498 28.983 C 76.498 29.293,76.290 29.419,76.037 29.263 C 75.783 29.106,75.576 29.232,75.576 29.543 C 75.576 29.853,75.441 29.973,75.276 29.807 C 75.111 29.642,74.681 29.867,74.320 30.307 C 73.883 30.840,73.764 30.876,73.963 30.415 C 74.162 29.954,74.044 29.989,73.606 30.523 C 73.245 30.962,72.815 31.187,72.650 31.022 C 72.485 30.857,72.350 30.998,72.350 31.336 C 72.350 31.674,72.215 31.816,72.050 31.651 C 71.885 31.486,71.455 31.710,71.094 32.150 C 70.657 32.683,70.538 32.719,70.737 32.258 C 70.937 31.797,70.818 31.833,70.380 32.366 C 70.020 32.806,69.590 33.030,69.424 32.865 C 69.259 32.700,69.124 32.842,69.124 33.180 C 69.124 33.518,68.989 33.659,68.824 33.494 C 68.659 33.329,68.229 33.554,67.869 33.993 C 67.435 34.522,67.316 34.558,67.517 34.101 C 67.685 33.721,67.371 33.929,66.820 34.562 C 66.269 35.196,65.956 35.403,66.123 35.023 C 66.291 34.643,66.101 34.734,65.702 35.226 C 65.303 35.718,64.977 35.938,64.977 35.714 C 64.977 35.491,64.651 35.710,64.252 36.202 C 63.853 36.694,63.663 36.786,63.831 36.406 C 63.998 36.025,63.685 36.233,63.134 36.866 C 62.583 37.500,62.276 37.707,62.453 37.327 C 62.630 36.947,62.285 37.164,61.687 37.810 C 61.088 38.455,60.703 38.757,60.829 38.479 C 60.956 38.202,60.571 38.503,59.972 39.149 C 59.374 39.794,59.029 40.012,59.206 39.631 C 59.383 39.251,59.076 39.459,58.525 40.092 C 57.974 40.726,57.663 40.933,57.834 40.553 C 58.005 40.173,57.694 40.380,57.143 41.014 C 56.592 41.647,56.286 41.855,56.462 41.475 C 56.639 41.094,56.294 41.312,55.696 41.957 C 55.098 42.603,54.712 42.906,54.839 42.631 C 54.965 42.355,54.551 42.665,53.917 43.318 C 53.283 43.971,52.869 44.282,52.995 44.009 C 53.122 43.736,52.707 44.047,52.074 44.700 C 51.440 45.354,51.107 45.569,51.334 45.179 C 51.561 44.789,51.043 45.207,50.182 46.107 C 49.322 47.007,48.825 47.415,49.078 47.013 C 49.332 46.611,48.710 47.130,47.696 48.166 C 46.682 49.202,46.164 49.618,46.544 49.090 C 46.924 48.562,46.094 49.289,44.700 50.706 C 43.306 52.123,42.684 52.641,43.318 51.857 C 43.952 51.073,42.747 52.246,40.641 54.463 C 38.535 56.681,34.693 60.524,32.102 63.004 C 29.512 65.483,28.138 66.889,29.049 66.129 C 29.960 65.369,29.444 65.991,27.901 67.512 C 26.358 69.032,25.528 69.965,26.055 69.585 C 26.582 69.205,26.171 69.706,25.142 70.698 C 24.114 71.690,23.591 72.312,23.981 72.080 C 24.371 71.848,24.156 72.177,23.502 72.811 C 22.849 73.445,22.538 73.859,22.811 73.733 C 23.084 73.606,22.773 74.021,22.120 74.654 C 21.466 75.288,21.157 75.703,21.432 75.576 C 21.708 75.449,21.405 75.835,20.759 76.433 C 20.113 77.031,19.896 77.376,20.276 77.200 C 20.657 77.023,20.449 77.329,19.816 77.880 C 19.182 78.431,18.975 78.742,19.355 78.571 C 19.735 78.401,19.528 78.712,18.894 79.263 C 18.260 79.814,18.053 80.125,18.433 79.954 C 18.813 79.783,18.606 80.094,17.972 80.645 C 17.339 81.196,17.131 81.507,17.512 81.336 C 17.892 81.166,17.684 81.477,17.051 82.028 C 16.417 82.579,16.210 82.890,16.590 82.719 C 16.970 82.548,16.763 82.859,16.129 83.410 C 15.495 83.961,15.288 84.275,15.668 84.107 C 16.125 83.906,16.089 84.025,15.560 84.458 C 15.121 84.819,14.896 85.249,15.061 85.414 C 15.226 85.579,15.084 85.714,14.747 85.714 C 14.409 85.714,14.267 85.849,14.432 86.014 C 14.597 86.179,14.373 86.609,13.933 86.970 C 13.400 87.408,13.364 87.527,13.825 87.327 C 14.286 87.128,14.250 87.247,13.717 87.684 C 13.277 88.045,13.053 88.475,13.218 88.640 C 13.383 88.805,13.263 88.940,12.953 88.940 C 12.642 88.940,12.516 89.147,12.673 89.401 C 12.829 89.654,12.726 89.862,12.442 89.862 C 12.159 89.862,12.055 90.069,12.212 90.323 C 12.369 90.576,12.265 90.783,11.982 90.783 C 11.698 90.783,11.595 90.991,11.751 91.244 C 11.908 91.498,11.804 91.705,11.521 91.705 C 11.237 91.705,11.134 91.912,11.290 92.166 C 11.447 92.419,11.343 92.627,11.060 92.627 C 10.777 92.627,10.673 92.834,10.829 93.088 C 10.986 93.341,10.882 93.548,10.599 93.548 C 10.316 93.548,10.212 93.756,10.369 94.009 C 10.525 94.263,10.422 94.470,10.138 94.470 C 9.855 94.470,9.751 94.677,9.908 94.931 C 10.064 95.184,9.961 95.392,9.677 95.392 C 9.394 95.392,9.290 95.599,9.447 95.853 C 9.604 96.106,9.500 96.313,9.217 96.313 C 8.933 96.313,8.830 96.521,8.986 96.774 C 9.143 97.028,9.039 97.235,8.756 97.235 C 8.472 97.235,8.360 97.428,8.506 97.664 C 8.651 97.900,8.557 98.225,8.295 98.387 C 8.033 98.549,7.938 98.874,8.084 99.110 C 8.230 99.346,8.117 99.539,7.834 99.539 C 7.551 99.539,7.438 99.732,7.584 99.968 C 7.730 100.204,7.635 100.529,7.373 100.691 C 7.112 100.853,7.017 101.178,7.163 101.414 C 7.308 101.650,7.196 101.843,6.912 101.843 C 6.629 101.843,6.525 102.051,6.682 102.304 C 6.839 102.558,6.747 102.765,6.479 102.765 C 6.210 102.765,6.015 102.921,6.045 103.111 C 6.075 103.301,6.049 103.612,5.988 103.802 C 5.926 103.992,5.824 104.355,5.760 104.608 C 5.697 104.862,5.593 105.173,5.530 105.300 C 5.467 105.426,5.363 105.737,5.300 105.991 C 5.236 106.244,5.132 106.555,5.069 106.682 C 5.006 106.809,4.902 107.120,4.839 107.373 C 4.775 107.627,4.672 107.938,4.608 108.065 C 4.545 108.191,4.441 108.502,4.378 108.756 C 4.315 109.009,4.221 109.268,4.170 109.332 C 4.119 109.395,4.001 109.758,3.909 110.138 C 3.816 110.518,3.613 111.348,3.456 111.982 C 3.300 112.615,3.096 113.445,3.004 113.825 C 2.911 114.205,2.804 114.516,2.765 114.516 C 2.664 114.516,2.032 117.168,1.613 119.355 C 1.491 119.988,1.285 121.025,1.153 121.659 C 1.022 122.293,0.760 123.848,0.572 125.115 C 0.121 128.155,0.131 153.161,0.584 155.548 C 0.778 156.572,1.040 157.920,1.165 158.544 C 1.290 159.167,1.491 160.196,1.613 160.829 C 1.734 161.463,1.950 162.500,2.093 163.134 C 2.235 163.767,2.464 164.804,2.602 165.438 C 2.740 166.071,2.921 166.901,3.004 167.281 C 3.087 167.661,3.197 168.024,3.248 168.088 C 3.299 168.151,3.393 168.410,3.456 168.664 C 3.520 168.917,3.623 169.228,3.687 169.355 C 3.750 169.482,3.854 169.793,3.917 170.046 C 3.980 170.300,4.074 170.559,4.125 170.622 C 4.224 170.745,4.440 171.536,4.787 173.041 C 4.903 173.548,5.039 174.067,5.088 174.194 C 5.138 174.320,5.154 174.579,5.124 174.770 C 5.094 174.960,5.289 175.115,5.557 175.115 C 5.826 175.115,5.926 175.308,5.780 175.544 C 5.634 175.780,5.729 176.106,5.991 176.267 C 6.253 176.429,6.356 176.740,6.221 176.959 C 6.086 177.177,6.190 177.488,6.452 177.650 C 6.713 177.812,6.808 178.137,6.662 178.373 C 6.517 178.609,6.629 178.802,6.912 178.802 C 7.196 178.802,7.308 178.995,7.163 179.231 C 7.017 179.467,7.112 179.792,7.373 179.954 C 7.635 180.116,7.730 180.441,7.584 180.677 C 7.438 180.913,7.551 181.106,7.834 181.106 C 8.117 181.106,8.230 181.299,8.084 181.535 C 7.938 181.771,8.033 182.096,8.295 182.258 C 8.557 182.420,8.651 182.745,8.506 182.981 C 8.360 183.217,8.472 183.410,8.756 183.410 C 9.039 183.410,9.143 183.618,8.986 183.871 C 8.830 184.124,8.933 184.332,9.217 184.332 C 9.500 184.332,9.604 184.539,9.447 184.793 C 9.290 185.046,9.394 185.253,9.677 185.253 C 9.961 185.253,10.064 185.461,9.908 185.714 C 9.751 185.968,9.855 186.175,10.138 186.175 C 10.422 186.175,10.525 186.382,10.369 186.636 C 10.212 186.889,10.316 187.097,10.599 187.097 C 10.882 187.097,10.986 187.304,10.829 187.558 C 10.673 187.811,10.777 188.018,11.060 188.018 C 11.343 188.018,11.447 188.226,11.290 188.479 C 11.134 188.733,11.237 188.940,11.521 188.940 C 11.804 188.940,11.908 189.147,11.751 189.401 C 11.595 189.654,11.698 189.862,11.982 189.862 C 12.265 189.862,12.369 190.069,12.212 190.323 C 12.055 190.576,12.181 190.783,12.492 190.783 C 12.803 190.783,12.922 190.918,12.757 191.083 C 12.592 191.248,12.816 191.679,13.256 192.039 C 13.789 192.477,13.825 192.596,13.364 192.396 C 12.903 192.197,12.939 192.316,13.472 192.753 C 13.912 193.114,14.136 193.544,13.971 193.709 C 13.806 193.874,13.948 194.009,14.286 194.009 C 14.624 194.009,14.765 194.144,14.600 194.309 C 14.435 194.474,14.660 194.904,15.099 195.265 C 15.628 195.699,15.664 195.818,15.207 195.616 C 14.827 195.449,15.035 195.762,15.668 196.313 C 16.302 196.864,16.509 197.178,16.129 197.010 C 15.749 196.843,15.840 197.032,16.332 197.431 C 16.824 197.830,17.044 198.157,16.820 198.157 C 16.597 198.157,16.816 198.483,17.308 198.882 C 17.800 199.281,17.892 199.470,17.512 199.303 C 17.131 199.135,17.339 199.449,17.972 200.000 C 18.606 200.551,18.813 200.862,18.433 200.691 C 18.053 200.521,18.260 200.832,18.894 201.382 C 19.528 201.933,19.735 202.244,19.355 202.074 C 18.975 201.903,19.182 202.214,19.816 202.765 C 20.449 203.316,20.657 203.618,20.276 203.435 C 19.896 203.253,20.219 203.702,20.993 204.432 C 21.767 205.163,22.068 205.553,21.660 205.300 C 21.253 205.046,21.657 205.543,22.557 206.404 C 23.457 207.264,23.779 207.701,23.272 207.373 C 22.765 207.046,23.087 207.482,23.987 208.343 C 24.887 209.204,25.295 209.700,24.893 209.447 C 24.491 209.194,25.010 209.816,26.046 210.829 C 27.082 211.843,27.496 212.362,26.966 211.982 C 26.435 211.601,27.058 212.327,28.349 213.594 C 29.640 214.862,30.165 215.484,29.514 214.977 C 28.864 214.470,30.065 215.714,32.184 217.742 C 34.303 219.770,37.831 223.308,40.023 225.605 C 42.215 227.902,43.180 228.821,42.166 227.647 C 41.152 226.474,41.769 226.979,43.536 228.770 C 45.304 230.562,46.445 231.604,46.071 231.086 C 45.697 230.568,46.118 230.888,47.005 231.797 C 47.892 232.707,48.410 233.121,48.157 232.719 C 47.903 232.316,48.422 232.731,49.309 233.641 C 50.196 234.550,50.714 234.963,50.461 234.559 C 50.207 234.154,50.704 234.560,51.565 235.460 C 52.426 236.360,52.944 236.778,52.717 236.388 C 52.490 235.997,52.823 236.213,53.456 236.866 C 54.090 237.520,54.505 237.831,54.378 237.558 C 54.251 237.284,54.666 237.595,55.300 238.249 C 55.933 238.902,56.348 239.212,56.221 238.936 C 56.094 238.661,56.480 238.964,57.078 239.610 C 57.676 240.255,58.021 240.472,57.845 240.092 C 57.668 239.712,57.974 239.919,58.525 240.553 C 59.076 241.187,59.387 241.394,59.217 241.014 C 59.046 240.634,59.357 240.841,59.908 241.475 C 60.459 242.108,60.770 242.316,60.599 241.935 C 60.428 241.555,60.739 241.763,61.290 242.396 C 61.841 243.030,62.152 243.237,61.982 242.857 C 61.811 242.477,62.122 242.684,62.673 243.318 C 63.224 243.952,63.537 244.159,63.370 243.779 C 63.202 243.399,63.392 243.490,63.791 243.982 C 64.190 244.474,64.516 244.694,64.516 244.470 C 64.516 244.246,64.843 244.466,65.242 244.958 C 65.641 245.450,65.830 245.541,65.662 245.161 C 65.495 244.781,65.809 244.988,66.359 245.622 C 66.910 246.256,67.221 246.463,67.051 246.083 C 66.880 245.703,67.191 245.910,67.742 246.544 C 68.293 247.177,68.607 247.385,68.439 247.005 C 68.271 246.624,68.461 246.716,68.860 247.208 C 69.259 247.700,69.585 247.919,69.585 247.696 C 69.585 247.472,69.912 247.692,70.311 248.184 C 70.710 248.676,70.902 248.767,70.737 248.387 C 70.538 247.926,70.657 247.962,71.094 248.495 C 71.455 248.935,71.885 249.159,72.050 248.994 C 72.215 248.829,72.350 248.971,72.350 249.309 C 72.350 249.647,72.485 249.788,72.650 249.623 C 72.815 249.458,73.245 249.683,73.606 250.122 C 74.044 250.656,74.162 250.692,73.963 250.230 C 73.764 249.769,73.883 249.805,74.320 250.338 C 74.681 250.778,75.111 251.003,75.276 250.838 C 75.441 250.673,75.576 250.792,75.576 251.102 C 75.576 251.413,75.783 251.539,76.037 251.382 C 76.290 251.226,76.498 251.330,76.498 251.613 C 76.498 251.896,76.705 252.000,76.959 251.843 C 77.212 251.687,77.419 251.813,77.419 252.123 C 77.419 252.434,77.554 252.553,77.719 252.388 C 77.884 252.223,78.315 252.448,78.675 252.887 C 79.113 253.421,79.232 253.457,79.032 252.995 C 78.833 252.534,78.952 252.570,79.389 253.103 C 79.750 253.543,80.180 253.768,80.345 253.603 C 80.510 253.438,80.645 253.557,80.645 253.867 C 80.645 254.178,80.838 254.313,81.074 254.167 C 81.310 254.021,81.635 254.116,81.797 254.378 C 81.959 254.640,82.284 254.734,82.520 254.589 C 82.756 254.443,82.949 254.555,82.949 254.839 C 82.949 255.122,83.157 255.226,83.410 255.069 C 83.664 254.912,83.871 255.038,83.871 255.349 C 83.871 255.660,84.006 255.779,84.171 255.614 C 84.336 255.449,84.766 255.674,85.127 256.113 C 85.564 256.646,85.683 256.682,85.484 256.221 C 85.320 255.841,85.512 255.932,85.911 256.424 C 86.310 256.916,86.636 257.150,86.636 256.944 C 86.636 256.738,86.914 256.800,87.254 257.082 C 87.595 257.365,88.009 257.459,88.176 257.292 C 88.343 257.126,88.479 257.243,88.479 257.554 C 88.479 257.865,88.687 257.991,88.940 257.834 C 89.194 257.677,89.401 257.781,89.401 258.065 C 89.401 258.348,89.608 258.452,89.862 258.295 C 90.115 258.138,90.323 258.242,90.323 258.525 C 90.323 258.809,90.530 258.912,90.783 258.756 C 91.037 258.599,91.244 258.703,91.244 258.986 C 91.244 259.270,91.437 259.382,91.673 259.236 C 91.909 259.090,92.235 259.185,92.396 259.447 C 92.558 259.709,92.883 259.804,93.119 259.658 C 93.355 259.512,93.548 259.624,93.548 259.908 C 93.548 260.191,93.741 260.304,93.977 260.158 C 94.213 260.012,94.539 260.107,94.700 260.369 C 94.862 260.630,95.188 260.725,95.424 260.579 C 95.659 260.434,95.853 260.546,95.853 260.829 C 95.853 261.113,96.060 261.217,96.313 261.060 C 96.567 260.903,96.774 261.007,96.774 261.290 C 96.774 261.574,96.967 261.686,97.203 261.540 C 97.439 261.395,97.765 261.489,97.926 261.751 C 98.088 262.013,98.413 262.108,98.649 261.962 C 98.885 261.816,99.078 261.929,99.078 262.212 C 99.078 262.495,99.271 262.608,99.507 262.462 C 99.743 262.316,100.069 262.411,100.230 262.673 C 100.392 262.935,100.718 263.029,100.954 262.884 C 101.189 262.738,101.382 262.850,101.382 263.134 C 101.382 263.417,101.576 263.530,101.811 263.384 C 102.047 263.238,102.373 263.333,102.535 263.594 C 102.696 263.856,103.022 263.951,103.258 263.805 C 103.494 263.659,103.687 263.772,103.687 264.055 C 103.687 264.339,103.880 264.451,104.116 264.305 C 104.352 264.160,104.677 264.254,104.839 264.516 C 105.000 264.778,105.312 264.882,105.530 264.747 C 105.748 264.612,106.059 264.715,106.221 264.977 C 106.383 265.239,106.708 265.334,106.944 265.188 C 107.180 265.042,107.373 265.142,107.373 265.411 C 107.373 265.679,107.529 265.874,107.719 265.844 C 107.909 265.814,108.220 265.840,108.410 265.902 C 108.600 265.963,108.963 266.066,109.217 266.129 C 109.470 266.192,109.781 266.296,109.908 266.359 C 110.035 266.423,110.346 266.526,110.599 266.590 C 110.853 266.653,111.164 266.757,111.290 266.820 C 111.417 266.884,111.728 266.987,111.982 267.051 C 112.235 267.114,112.546 267.218,112.673 267.281 C 112.800 267.344,113.111 267.448,113.364 267.512 C 113.618 267.575,113.929 267.679,114.055 267.742 C 114.182 267.805,114.493 267.909,114.747 267.972 C 115.000 268.036,115.311 268.139,115.438 268.203 C 115.565 268.266,115.876 268.370,116.129 268.433 C 116.382 268.497,116.642 268.590,116.705 268.641 C 116.827 268.740,117.619 268.956,119.124 269.303 C 119.631 269.419,120.098 269.557,120.161 269.608 C 120.225 269.659,120.484 269.752,120.737 269.816 C 120.991 269.879,121.302 269.983,121.429 270.046 C 121.555 270.109,121.866 270.213,122.120 270.276 C 122.373 270.340,122.632 270.433,122.696 270.485 C 122.759 270.536,123.122 270.653,123.502 270.746 C 123.882 270.838,124.712 271.042,125.346 271.198 C 125.979 271.355,126.809 271.558,127.189 271.651 C 127.569 271.743,127.880 271.851,127.880 271.889 C 127.880 271.928,128.191 272.036,128.571 272.128 C 128.952 272.221,129.781 272.423,130.415 272.577 C 131.048 272.732,131.982 272.950,132.488 273.061 C 132.995 273.173,133.929 273.380,134.562 273.522 C 135.196 273.664,136.129 273.871,136.636 273.983 C 137.535 274.181,138.559 274.411,140.668 274.890 C 141.238 275.019,142.224 275.224,142.857 275.346 C 143.491 275.467,144.476 275.672,145.046 275.802 C 147.456 276.348,147.889 276.435,149.481 276.690 C 150.400 276.838,151.904 277.079,152.823 277.227 C 153.743 277.374,154.935 277.581,155.473 277.687 C 156.011 277.792,157.385 277.992,158.525 278.132 C 159.666 278.271,161.221 278.466,161.982 278.565 C 162.742 278.664,164.608 278.877,166.129 279.038 C 167.650 279.200,169.347 279.404,169.901 279.492 C 170.454 279.580,172.528 279.783,174.509 279.943 C 177.966 280.222,180.412 280.500,181.666 280.756 C 181.990 280.822,182.530 281.187,182.867 281.567 C 183.410 282.181,183.445 282.181,183.174 281.567 C 183.006 281.187,183.320 281.394,183.871 282.028 C 184.422 282.661,184.733 282.869,184.562 282.488 C 184.391 282.108,184.703 282.316,185.253 282.949 C 185.804 283.583,186.111 283.790,185.934 283.410 C 185.758 283.030,186.102 283.247,186.701 283.893 C 187.299 284.538,187.684 284.840,187.558 284.562 C 187.431 284.285,187.817 284.586,188.415 285.232 C 189.013 285.877,189.358 286.094,189.181 285.714 C 189.005 285.334,189.311 285.541,189.862 286.175 C 190.413 286.809,190.726 287.016,190.559 286.636 C 190.391 286.256,190.581 286.347,190.980 286.839 C 191.379 287.331,191.705 287.567,191.705 287.364 C 191.705 287.161,192.068 287.390,192.512 287.874 C 192.955 288.357,193.214 288.526,193.088 288.249 C 192.961 287.971,193.346 288.273,193.945 288.918 C 194.543 289.564,194.890 289.781,194.717 289.401 C 194.544 289.021,194.728 289.112,195.127 289.604 C 195.526 290.096,195.853 290.316,195.853 290.092 C 195.853 289.869,196.179 290.088,196.578 290.580 C 196.977 291.072,197.166 291.164,196.999 290.783 C 196.831 290.403,197.145 290.611,197.696 291.244 C 198.247 291.878,198.558 292.085,198.387 291.705 C 198.216 291.325,198.527 291.532,199.078 292.166 C 199.629 292.800,199.940 293.007,199.770 292.627 C 199.599 292.247,199.910 292.454,200.461 293.088 C 201.012 293.721,201.318 293.929,201.141 293.548 C 200.965 293.168,201.310 293.385,201.908 294.031 C 202.506 294.677,202.892 294.978,202.765 294.700 C 202.638 294.423,203.024 294.724,203.622 295.370 C 204.220 296.016,204.565 296.233,204.388 295.853 C 204.212 295.472,204.518 295.680,205.069 296.313 C 205.620 296.947,205.931 297.154,205.760 296.774 C 205.590 296.394,205.901 296.601,206.452 297.235 C 207.003 297.869,207.314 298.076,207.143 297.696 C 206.972 297.316,207.283 297.523,207.834 298.157 C 208.385 298.790,208.696 298.998,208.525 298.618 C 208.355 298.237,208.666 298.445,209.217 299.078 C 209.767 299.712,210.079 299.919,209.908 299.539 C 209.737 299.159,210.048 299.366,210.599 300.000 C 211.150 300.634,211.464 300.841,211.296 300.461 C 211.129 300.081,211.318 300.172,211.717 300.664 C 212.116 301.156,212.442 301.376,212.442 301.152 C 212.442 300.928,212.769 301.148,213.168 301.640 C 213.567 302.132,213.756 302.224,213.589 301.843 C 213.421 301.463,213.735 301.671,214.286 302.304 C 214.837 302.938,215.148 303.145,214.977 302.765 C 214.806 302.385,215.117 302.592,215.668 303.226 C 216.219 303.859,216.530 304.067,216.359 303.687 C 216.189 303.306,216.500 303.514,217.051 304.147 C 217.602 304.781,217.913 304.988,217.742 304.608 C 217.571 304.228,217.882 304.435,218.433 305.069 C 218.984 305.703,219.295 305.910,219.124 305.530 C 218.954 305.150,219.265 305.357,219.816 305.991 C 220.367 306.624,220.673 306.832,220.496 306.452 C 220.320 306.071,220.665 306.289,221.263 306.934 C 221.861 307.580,222.247 307.881,222.120 307.604 C 221.993 307.326,222.379 307.628,222.977 308.273 C 223.575 308.919,223.922 309.136,223.749 308.756 C 223.576 308.376,223.760 308.467,224.159 308.959 C 224.558 309.451,224.885 309.671,224.885 309.447 C 224.885 309.223,225.211 309.443,225.610 309.935 C 226.009 310.427,226.199 310.518,226.031 310.138 C 225.864 309.758,226.177 309.965,226.728 310.599 C 227.279 311.233,227.590 311.440,227.419 311.060 C 227.249 310.680,227.560 310.887,228.111 311.521 C 228.661 312.154,228.973 312.362,228.802 311.982 C 228.631 311.601,228.942 311.809,229.493 312.442 C 230.044 313.076,230.355 313.283,230.184 312.903 C 230.014 312.523,230.325 312.730,230.876 313.364 C 231.426 313.998,231.738 314.205,231.567 313.825 C 231.396 313.445,231.707 313.652,232.258 314.286 C 232.809 314.919,233.120 315.127,232.949 314.747 C 232.779 314.366,233.090 314.574,233.641 315.207 C 234.191 315.841,234.503 316.048,234.332 315.668 C 234.161 315.288,234.472 315.495,235.023 316.129 C 235.574 316.763,235.880 316.970,235.704 316.590 C 235.527 316.210,235.872 316.427,236.470 317.072 C 237.068 317.718,237.454 318.019,237.327 317.742 C 237.200 317.465,237.586 317.766,238.184 318.411 C 238.782 319.057,239.127 319.274,238.951 318.894 C 238.774 318.514,239.080 318.721,239.631 319.355 C 240.182 319.988,240.493 320.196,240.323 319.816 C 240.152 319.435,240.463 319.643,241.014 320.276 C 241.565 320.910,241.876 321.118,241.705 320.737 C 241.534 320.357,241.845 320.565,242.396 321.198 C 242.947 321.832,243.261 322.039,243.093 321.659 C 242.926 321.279,243.115 321.370,243.514 321.862 C 243.913 322.354,244.240 322.591,244.240 322.387 C 244.240 322.184,244.603 322.413,245.046 322.897 C 245.490 323.381,245.749 323.549,245.622 323.272 C 245.495 322.995,245.755 323.163,246.198 323.647 C 246.642 324.130,247.005 324.360,247.005 324.157 C 247.005 323.953,247.331 324.190,247.730 324.682 C 248.129 325.173,248.318 325.265,248.151 324.885 C 247.983 324.505,248.297 324.712,248.848 325.346 C 249.399 325.979,249.705 326.187,249.529 325.806 C 249.352 325.426,249.697 325.643,250.295 326.289 C 250.893 326.935,251.279 327.236,251.152 326.959 C 251.025 326.681,251.411 326.982,252.009 327.628 C 252.607 328.274,252.952 328.491,252.776 328.111 C 252.599 327.730,252.905 327.938,253.456 328.571 C 254.007 329.205,254.318 329.412,254.147 329.032 C 253.977 328.652,254.288 328.859,254.839 329.493 C 255.390 330.127,255.701 330.334,255.530 329.954 C 255.359 329.574,255.670 329.781,256.221 330.415 C 256.772 331.048,257.083 331.256,256.912 330.876 C 256.742 330.495,257.053 330.703,257.604 331.336 C 258.155 331.970,258.468 332.177,258.301 331.797 C 258.042 331.210,258.088 331.213,258.606 331.816 C 259.386 332.722,261.397 332.709,261.531 331.797 C 261.588 331.417,261.772 327.995,261.940 324.194 C 262.109 320.392,262.337 316.037,262.447 314.516 C 262.558 312.995,262.762 309.885,262.902 307.604 C 263.042 305.323,263.250 302.005,263.365 300.230 C 263.479 298.456,263.687 294.724,263.827 291.935 C 264.148 285.540,264.475 280.724,264.827 277.189 C 264.979 275.668,265.109 274.199,265.117 273.925 C 265.124 273.650,265.355 273.408,265.630 273.386 C 265.904 273.364,266.596 273.226,267.166 273.078 C 268.216 272.808,269.707 272.435,270.968 272.128 C 271.348 272.036,271.659 271.928,271.659 271.889 C 271.659 271.851,271.970 271.743,272.350 271.651 C 272.730 271.558,273.560 271.355,274.194 271.198 C 274.827 271.042,275.657 270.838,276.037 270.746 C 276.417 270.653,276.728 270.546,276.728 270.507 C 276.728 270.433,277.474 270.226,279.032 269.868 C 279.539 269.751,280.006 269.614,280.069 269.563 C 280.132 269.512,280.392 269.418,280.645 269.355 C 280.899 269.291,281.210 269.188,281.336 269.124 C 281.463 269.061,281.774 268.957,282.028 268.894 C 282.281 268.831,282.592 268.727,282.719 268.664 C 282.846 268.600,283.157 268.497,283.410 268.433 C 283.664 268.370,283.975 268.266,284.101 268.203 C 284.228 268.139,284.539 268.036,284.793 267.972 C 285.046 267.909,285.357 267.805,285.484 267.742 C 285.611 267.679,285.922 267.575,286.175 267.512 C 286.429 267.448,286.740 267.344,286.866 267.281 C 286.993 267.218,287.304 267.114,287.558 267.051 C 287.811 266.987,288.122 266.884,288.249 266.820 C 288.376 266.757,288.687 266.653,288.940 266.590 C 289.194 266.526,289.505 266.423,289.631 266.359 C 289.758 266.296,290.069 266.192,290.323 266.129 C 290.576 266.066,290.887 265.962,291.014 265.899 C 291.141 265.835,291.452 265.732,291.705 265.668 C 291.959 265.605,292.270 265.501,292.396 265.438 C 292.523 265.374,292.834 265.271,293.088 265.207 C 293.341 265.144,293.704 265.042,293.894 264.980 C 294.084 264.918,294.395 264.892,294.585 264.922 C 294.775 264.952,294.931 264.757,294.931 264.489 C 294.931 264.221,295.124 264.120,295.360 264.266 C 295.596 264.412,295.921 264.317,296.083 264.055 C 296.245 263.794,296.556 263.690,296.774 263.825 C 296.993 263.960,297.304 263.856,297.465 263.594 C 297.627 263.333,297.953 263.238,298.189 263.384 C 298.424 263.530,298.618 263.417,298.618 263.134 C 298.618 262.850,298.811 262.738,299.046 262.884 C 299.282 263.029,299.608 262.935,299.770 262.673 C 299.931 262.411,300.257 262.316,300.493 262.462 C 300.729 262.608,300.922 262.495,300.922 262.212 C 300.922 261.929,301.115 261.816,301.351 261.962 C 301.587 262.108,301.912 262.013,302.074 261.751 C 302.235 261.489,302.561 261.395,302.797 261.540 C 303.033 261.686,303.226 261.574,303.226 261.290 C 303.226 261.007,303.433 260.903,303.687 261.060 C 303.940 261.217,304.147 261.113,304.147 260.829 C 304.147 260.546,304.355 260.442,304.608 260.599 C 304.862 260.756,305.069 260.652,305.069 260.369 C 305.069 260.085,305.262 259.973,305.498 260.119 C 305.734 260.264,306.059 260.170,306.221 259.908 C 306.383 259.646,306.708 259.551,306.944 259.697 C 307.180 259.843,307.373 259.730,307.373 259.447 C 307.373 259.164,307.581 259.060,307.834 259.217 C 308.088 259.373,308.295 259.270,308.295 258.986 C 308.295 258.703,308.502 258.599,308.756 258.756 C 309.009 258.912,309.217 258.809,309.217 258.525 C 309.217 258.242,309.424 258.138,309.677 258.295 C 309.931 258.452,310.138 258.348,310.138 258.065 C 310.138 257.781,310.346 257.677,310.599 257.834 C 310.853 257.991,311.060 257.887,311.060 257.604 C 311.060 257.320,311.253 257.208,311.489 257.354 C 311.725 257.499,312.050 257.405,312.212 257.143 C 312.374 256.881,312.699 256.786,312.935 256.932 C 313.171 257.078,313.364 256.965,313.364 256.682 C 313.364 256.399,313.571 256.295,313.825 256.452 C 314.078 256.608,314.286 256.505,314.286 256.221 C 314.286 255.938,314.493 255.834,314.747 255.991 C 315.000 256.147,315.207 256.044,315.207 255.760 C 315.207 255.477,315.415 255.373,315.668 255.530 C 315.922 255.687,316.129 255.583,316.129 255.300 C 316.129 255.016,316.336 254.912,316.590 255.069 C 316.843 255.226,317.051 255.122,317.051 254.839 C 317.051 254.555,317.258 254.452,317.512 254.608 C 317.765 254.765,317.972 254.661,317.972 254.378 C 317.972 254.095,318.180 253.991,318.433 254.147 C 318.687 254.304,318.894 254.200,318.894 253.917 C 318.894 253.634,319.101 253.530,319.355 253.687 C 319.608 253.843,319.816 253.717,319.816 253.407 C 319.816 253.096,319.951 252.977,320.116 253.142 C 320.281 253.307,320.711 253.082,321.072 252.643 C 321.509 252.109,321.628 252.073,321.429 252.535 C 321.229 252.996,321.348 252.960,321.786 252.427 C 322.146 251.987,322.576 251.762,322.741 251.927 C 322.906 252.092,323.041 251.973,323.041 251.663 C 323.041 251.352,323.249 251.226,323.502 251.382 C 323.756 251.539,323.963 251.435,323.963 251.152 C 323.963 250.869,324.171 250.765,324.424 250.922 C 324.677 251.078,324.885 250.952,324.885 250.642 C 324.885 250.331,325.020 250.212,325.185 250.377 C 325.350 250.542,325.780 250.317,326.141 249.878 C 326.578 249.344,326.697 249.308,326.498 249.770 C 326.333 250.150,326.525 250.058,326.924 249.566 C 327.323 249.074,327.650 248.855,327.650 249.078 C 327.650 249.302,327.976 249.082,328.375 248.590 C 328.774 248.098,328.966 248.007,328.802 248.387 C 328.602 248.848,328.721 248.812,329.159 248.279 C 329.520 247.839,329.950 247.615,330.115 247.780 C 330.280 247.945,330.415 247.803,330.415 247.465 C 330.415 247.127,330.550 246.986,330.715 247.151 C 330.880 247.316,331.310 247.091,331.671 246.652 C 332.108 246.118,332.227 246.083,332.028 246.544 C 331.863 246.924,332.055 246.832,332.454 246.340 C 332.853 245.849,333.180 245.629,333.180 245.853 C 333.180 246.076,333.506 245.857,333.905 245.365 C 334.304 244.873,334.493 244.781,334.326 245.161 C 334.158 245.541,334.472 245.334,335.023 244.700 C 335.574 244.067,335.885 243.859,335.714 244.240 C 335.544 244.620,335.855 244.412,336.406 243.779 C 336.956 243.145,337.267 242.938,337.097 243.318 C 336.926 243.698,337.237 243.491,337.788 242.857 C 338.339 242.224,338.650 242.016,338.479 242.396 C 338.309 242.776,338.620 242.569,339.171 241.935 C 339.721 241.302,340.028 241.094,339.851 241.475 C 339.675 241.855,340.020 241.638,340.618 240.992 C 341.216 240.346,341.601 240.045,341.475 240.323 C 341.348 240.600,341.734 240.299,342.332 239.653 C 342.930 239.007,343.275 238.790,343.098 239.171 C 342.922 239.551,343.228 239.343,343.779 238.710 C 344.330 238.076,344.636 237.869,344.459 238.249 C 344.283 238.629,344.628 238.412,345.226 237.766 C 345.824 237.121,346.128 236.913,345.901 237.305 C 345.674 237.698,346.192 237.282,347.053 236.382 C 347.913 235.481,348.410 235.077,348.157 235.484 C 347.903 235.890,348.400 235.486,349.261 234.586 C 350.121 233.686,350.550 233.364,350.214 233.871 C 349.878 234.378,350.522 233.846,351.645 232.690 C 352.768 231.534,353.272 231.131,352.765 231.794 C 352.258 232.458,352.880 231.944,354.147 230.653 C 355.415 229.362,356.137 228.728,355.752 229.245 C 355.368 229.762,356.882 228.273,359.117 225.938 C 361.353 223.603,365.400 219.556,368.112 216.945 C 370.823 214.335,372.510 212.617,371.861 213.127 C 371.212 213.638,371.632 213.122,372.794 211.982 C 373.956 210.841,374.581 210.115,374.184 210.369 C 373.787 210.622,374.206 210.104,375.115 209.217 C 376.025 208.329,376.437 207.811,376.032 208.065 C 375.627 208.318,375.928 207.928,376.703 207.197 C 377.477 206.467,377.800 206.023,377.419 206.211 C 377.039 206.399,377.256 206.063,377.902 205.465 C 378.548 204.867,378.849 204.482,378.571 204.608 C 378.294 204.735,378.595 204.349,379.241 203.751 C 379.887 203.153,380.104 202.808,379.724 202.985 C 379.343 203.161,379.551 202.855,380.184 202.304 C 380.818 201.753,381.025 201.442,380.645 201.613 C 380.265 201.784,380.472 201.473,381.106 200.922 C 381.740 200.371,381.947 200.060,381.567 200.230 C 381.187 200.401,381.394 200.090,382.028 199.539 C 382.661 198.988,382.869 198.677,382.488 198.848 C 382.108 199.019,382.316 198.708,382.949 198.157 C 383.583 197.606,383.790 197.295,383.410 197.465 C 383.030 197.636,383.237 197.325,383.871 196.774 C 384.505 196.223,384.712 195.910,384.332 196.077 C 383.875 196.278,383.911 196.159,384.440 195.726 C 384.879 195.365,385.104 194.935,384.939 194.770 C 384.774 194.605,384.893 194.470,385.204 194.470 C 385.515 194.470,385.641 194.263,385.484 194.009 C 385.327 193.756,385.453 193.548,385.764 193.548 C 386.075 193.548,386.194 193.413,386.029 193.248 C 385.864 193.083,386.088 192.653,386.528 192.292 C 387.061 191.855,387.097 191.736,386.636 191.935 C 386.175 192.135,386.211 192.016,386.744 191.578 C 387.184 191.218,387.408 190.788,387.243 190.623 C 387.078 190.458,387.197 190.323,387.508 190.323 C 387.819 190.323,387.945 190.115,387.788 189.862 C 387.631 189.608,387.735 189.401,388.018 189.401 C 388.302 189.401,388.405 189.194,388.249 188.940 C 388.092 188.687,388.196 188.479,388.479 188.479 C 388.763 188.479,388.866 188.272,388.710 188.018 C 388.553 187.765,388.657 187.558,388.940 187.558 C 389.223 187.558,389.327 187.350,389.171 187.097 C 389.014 186.843,389.118 186.636,389.401 186.636 C 389.684 186.636,389.788 186.429,389.631 186.175 C 389.475 185.922,389.578 185.714,389.862 185.714 C 390.145 185.714,390.249 185.507,390.092 185.253 C 389.936 185.000,390.039 184.793,390.323 184.793 C 390.606 184.793,390.718 184.600,390.573 184.364 C 390.427 184.128,390.522 183.802,390.783 183.641 C 391.045 183.479,391.140 183.153,390.994 182.917 C 390.848 182.682,390.961 182.488,391.244 182.488 C 391.528 182.488,391.631 182.281,391.475 182.028 C 391.318 181.774,391.422 181.567,391.705 181.567 C 391.988 181.567,392.101 181.374,391.955 181.138 C 391.809 180.902,391.904 180.577,392.166 180.415 C 392.428 180.253,392.522 179.928,392.377 179.692 C 392.231 179.456,392.343 179.263,392.627 179.263 C 392.910 179.263,393.014 179.055,392.857 178.802 C 392.700 178.548,392.792 178.341,393.060 178.341 C 393.329 178.341,393.524 178.185,393.494 177.995 C 393.464 177.805,393.490 177.494,393.551 177.304 C 393.613 177.114,393.715 176.751,393.779 176.498 C 393.842 176.244,393.946 175.933,394.009 175.806 C 394.073 175.680,394.176 175.369,394.240 175.115 C 394.303 174.862,394.407 174.551,394.470 174.424 C 394.533 174.297,394.637 173.986,394.700 173.733 C 394.764 173.479,394.868 173.168,394.931 173.041 C 394.994 172.915,395.098 172.604,395.161 172.350 C 395.225 172.097,395.318 171.838,395.369 171.774 C 395.420 171.711,395.550 171.296,395.657 170.853 C 395.765 170.409,395.940 169.683,396.048 169.240 C 396.155 168.796,396.285 168.381,396.336 168.318 C 396.387 168.255,396.480 167.995,396.544 167.742 C 396.607 167.488,396.701 167.229,396.752 167.166 C 396.803 167.103,396.913 166.740,396.996 166.359 C 397.079 165.979,397.260 165.150,397.398 164.516 C 397.536 163.882,397.765 162.846,397.907 162.212 C 398.050 161.578,398.266 160.541,398.387 159.908 C 398.509 159.274,398.715 158.237,398.845 157.604 C 399.795 152.978,400.180 131.840,399.403 126.959 C 398.609 121.975,398.276 120.074,397.907 118.433 C 397.765 117.800,397.536 116.763,397.398 116.129 C 397.260 115.495,397.079 114.666,396.996 114.286 C 396.913 113.906,396.813 113.594,396.774 113.594 C 396.701 113.594,396.494 112.849,396.135 111.290 C 396.018 110.783,395.881 110.317,395.830 110.253 C 395.779 110.190,395.685 109.931,395.622 109.677 C 395.559 109.424,395.455 109.113,395.392 108.986 C 395.328 108.859,395.225 108.548,395.161 108.295 C 395.098 108.041,394.994 107.730,394.931 107.604 C 394.868 107.477,394.764 107.166,394.700 106.912 C 394.637 106.659,394.533 106.348,394.470 106.221 C 394.407 106.094,394.303 105.783,394.240 105.530 C 394.176 105.276,394.074 104.914,394.012 104.724 C 393.951 104.533,393.925 104.222,393.955 104.032 C 393.985 103.842,393.790 103.687,393.521 103.687 C 393.253 103.687,393.152 103.494,393.298 103.258 C 393.444 103.022,393.349 102.696,393.088 102.535 C 392.826 102.373,392.722 102.062,392.857 101.843 C 392.992 101.625,392.888 101.314,392.627 101.152 C 392.365 100.990,392.270 100.665,392.416 100.429 C 392.562 100.193,392.449 100.000,392.166 100.000 C 391.883 100.000,391.770 99.807,391.916 99.571 C 392.062 99.335,391.967 99.010,391.705 98.848 C 391.443 98.686,391.349 98.361,391.494 98.125 C 391.640 97.889,391.528 97.696,391.244 97.696 C 390.961 97.696,390.857 97.488,391.014 97.235 C 391.170 96.982,391.067 96.774,390.783 96.774 C 390.500 96.774,390.396 96.567,390.553 96.313 C 390.710 96.060,390.606 95.853,390.323 95.853 C 390.039 95.853,389.936 95.645,390.092 95.392 C 390.249 95.138,390.145 94.931,389.862 94.931 C 389.578 94.931,389.475 94.724,389.631 94.470 C 389.788 94.217,389.684 94.009,389.401 94.009 C 389.118 94.009,389.014 93.802,389.171 93.548 C 389.327 93.295,389.223 93.088,388.940 93.088 C 388.657 93.088,388.553 92.880,388.710 92.627 C 388.866 92.373,388.763 92.166,388.479 92.166 C 388.196 92.166,388.092 91.959,388.249 91.705 C 388.405 91.452,388.302 91.244,388.018 91.244 C 387.735 91.244,387.631 91.037,387.788 90.783 C 387.945 90.530,387.841 90.323,387.558 90.323 C 387.274 90.323,387.171 90.115,387.327 89.862 C 387.484 89.608,387.358 89.401,387.047 89.401 C 386.737 89.401,386.617 89.266,386.782 89.101 C 386.947 88.936,386.723 88.506,386.283 88.145 C 385.750 87.707,385.714 87.589,386.175 87.788 C 386.555 87.952,386.464 87.760,385.972 87.361 C 385.480 86.962,385.260 86.636,385.484 86.636 C 385.707 86.636,385.488 86.310,384.996 85.911 C 384.504 85.512,384.412 85.320,384.793 85.484 C 385.173 85.648,385.081 85.456,384.589 85.057 C 384.097 84.658,383.878 84.332,384.101 84.332 C 384.325 84.332,384.105 84.005,383.613 83.606 C 383.121 83.207,383.030 83.015,383.410 83.180 C 383.790 83.344,383.699 83.152,383.207 82.753 C 382.715 82.354,382.495 82.028,382.719 82.028 C 382.943 82.028,382.723 81.701,382.231 81.302 C 381.739 80.903,381.647 80.714,382.028 80.881 C 382.408 81.049,382.200 80.735,381.567 80.184 C 380.933 79.633,380.726 79.322,381.106 79.493 C 381.486 79.664,381.279 79.353,380.645 78.802 C 380.012 78.251,379.804 77.949,380.184 78.131 C 380.565 78.314,380.242 77.865,379.468 77.134 C 378.693 76.404,378.394 76.014,378.802 76.267 C 379.210 76.521,378.910 76.130,378.136 75.400 C 377.362 74.670,377.039 74.230,377.419 74.424 C 377.800 74.618,377.477 74.178,376.703 73.448 C 375.928 72.717,375.627 72.327,376.032 72.581 C 376.437 72.834,376.025 72.316,375.115 71.429 C 374.206 70.541,373.787 70.023,374.184 70.276 C 374.581 70.530,373.956 69.804,372.794 68.664 C 371.632 67.523,371.212 67.006,371.861 67.515 C 372.510 68.024,370.925 66.408,368.338 63.924 C 365.751 61.440,361.602 57.291,359.118 54.704 C 356.634 52.117,355.018 50.530,355.527 51.178 C 356.035 51.826,355.415 51.299,354.147 50.008 C 352.880 48.717,352.154 48.094,352.535 48.625 C 352.915 49.155,352.396 48.741,351.382 47.705 C 350.369 46.669,349.747 46.150,350.000 46.552 C 350.253 46.954,349.757 46.546,348.896 45.646 C 348.035 44.746,347.517 44.328,347.744 44.718 C 347.971 45.109,347.638 44.893,347.005 44.240 C 346.371 43.586,345.956 43.275,346.083 43.548 C 346.210 43.822,345.795 43.511,345.161 42.857 C 344.528 42.204,344.113 41.894,344.240 42.170 C 344.366 42.445,343.981 42.142,343.383 41.496 C 342.785 40.851,342.444 40.634,342.627 41.014 C 342.809 41.394,342.469 41.177,341.871 40.531 C 341.273 39.886,340.887 39.584,341.014 39.862 C 341.141 40.139,340.755 39.838,340.157 39.192 C 339.559 38.547,339.211 38.329,339.385 38.710 C 339.558 39.090,339.373 38.998,338.974 38.506 C 338.575 38.014,338.249 37.795,338.249 38.018 C 338.249 38.242,337.922 38.022,337.523 37.530 C 337.124 37.038,336.935 36.947,337.103 37.327 C 337.270 37.707,336.956 37.500,336.406 36.866 C 335.855 36.233,335.544 36.025,335.714 36.406 C 335.885 36.786,335.574 36.578,335.023 35.945 C 334.472 35.311,334.158 35.104,334.326 35.484 C 334.493 35.864,334.304 35.773,333.905 35.281 C 333.506 34.789,333.180 34.569,333.180 34.793 C 333.180 35.016,332.853 34.797,332.454 34.305 C 332.055 33.813,331.866 33.721,332.033 34.101 C 332.201 34.482,331.887 34.274,331.336 33.641 C 330.786 33.007,330.472 32.800,330.639 33.180 C 330.807 33.560,330.617 33.468,330.219 32.976 C 329.820 32.484,329.493 32.265,329.493 32.488 C 329.493 32.712,329.167 32.493,328.768 32.001 C 328.369 31.509,328.177 31.417,328.341 31.797 C 328.540 32.258,328.422 32.223,327.984 31.689 C 327.623 31.250,327.193 31.025,327.028 31.190 C 326.863 31.355,326.728 31.214,326.728 30.876 C 326.728 30.538,326.593 30.396,326.428 30.561 C 326.263 30.726,325.833 30.502,325.472 30.062 C 325.035 29.529,324.916 29.493,325.115 29.954 C 325.315 30.415,325.196 30.379,324.758 29.846 C 324.398 29.406,323.967 29.182,323.802 29.347 C 323.637 29.512,323.502 29.393,323.502 29.082 C 323.502 28.771,323.295 28.645,323.041 28.802 C 322.788 28.958,322.581 28.855,322.581 28.571 C 322.581 28.288,322.373 28.184,322.120 28.341 C 321.866 28.498,321.659 28.394,321.659 28.111 C 321.659 27.827,321.452 27.724,321.198 27.880 C 320.945 28.037,320.737 27.911,320.737 27.600 C 320.737 27.290,320.602 27.170,320.437 27.335 C 320.272 27.500,319.842 27.276,319.481 26.836 C 319.044 26.303,318.925 26.267,319.124 26.728 C 319.289 27.108,319.097 27.017,318.698 26.525 C 318.299 26.033,317.972 25.806,317.972 26.020 C 317.972 26.235,317.522 26.015,316.971 25.532 C 316.302 24.945,316.084 24.883,316.314 25.346 C 316.503 25.726,316.332 25.634,315.933 25.142 C 315.534 24.650,315.207 24.417,315.207 24.623 C 315.207 24.829,314.929 24.767,314.589 24.484 C 314.249 24.202,313.834 24.108,313.667 24.274 C 313.501 24.441,313.364 24.323,313.364 24.013 C 313.364 23.702,313.157 23.576,312.903 23.733 C 312.650 23.889,312.442 23.786,312.442 23.502 C 312.442 23.219,312.235 23.115,311.982 23.272 C 311.728 23.429,311.521 23.325,311.521 23.041 C 311.521 22.758,311.313 22.654,311.060 22.811 C 310.806 22.968,310.599 22.864,310.599 22.581 C 310.599 22.297,310.392 22.194,310.138 22.350 C 309.885 22.507,309.677 22.403,309.677 22.120 C 309.677 21.836,309.470 21.733,309.217 21.889 C 308.963 22.046,308.756 21.942,308.756 21.659 C 308.756 21.376,308.563 21.263,308.327 21.409 C 308.091 21.555,307.765 21.460,307.604 21.198 C 307.442 20.936,307.117 20.842,306.881 20.987 C 306.645 21.133,306.452 21.021,306.452 20.737 C 306.452 20.454,306.244 20.350,305.991 20.507 C 305.737 20.664,305.530 20.560,305.530 20.276 C 305.530 19.993,305.337 19.881,305.101 20.026 C 304.865 20.172,304.540 20.077,304.378 19.816 C 304.216 19.554,303.891 19.459,303.655 19.605 C 303.419 19.751,303.226 19.638,303.226 19.355 C 303.226 19.071,303.033 18.959,302.797 19.105 C 302.561 19.251,302.235 19.156,302.074 18.894 C 301.912 18.632,301.587 18.537,301.351 18.683 C 301.115 18.829,300.922 18.717,300.922 18.433 C 300.922 18.150,300.729 18.037,300.493 18.183 C 300.257 18.329,299.931 18.234,299.770 17.972 C 299.608 17.711,299.282 17.616,299.046 17.762 C 298.811 17.907,298.618 17.795,298.618 17.512 C 298.618 17.228,298.424 17.116,298.189 17.261 C 297.953 17.407,297.627 17.312,297.465 17.051 C 297.304 16.789,296.993 16.685,296.774 16.820 C 296.556 16.955,296.245 16.852,296.083 16.590 C 295.921 16.328,295.596 16.233,295.360 16.379 C 295.124 16.525,294.931 16.412,294.931 16.129 C 294.931 15.846,294.738 15.733,294.502 15.879 C 294.266 16.025,293.941 15.930,293.779 15.668 C 293.617 15.406,293.306 15.303,293.088 15.438 C 292.869 15.573,292.558 15.469,292.396 15.207 C 292.235 14.946,291.909 14.851,291.673 14.997 C 291.437 15.142,291.244 15.042,291.244 14.774 C 291.244 14.505,291.089 14.310,290.899 14.340 C 290.709 14.370,290.397 14.344,290.207 14.283 C 290.017 14.221,289.654 14.119,289.401 14.055 C 289.147 13.992,288.836 13.888,288.710 13.825 C 288.583 13.762,288.272 13.658,288.018 13.594 C 287.765 13.531,287.454 13.427,287.327 13.364 C 287.200 13.301,286.889 13.197,286.636 13.134 C 286.382 13.070,286.071 12.967,285.945 12.903 C 285.818 12.840,285.507 12.736,285.253 12.673 C 285.000 12.609,284.689 12.506,284.562 12.442 C 284.435 12.379,284.124 12.275,283.871 12.212 C 283.618 12.149,283.358 12.055,283.295 12.004 C 283.232 11.953,282.817 11.823,282.373 11.716 C 281.930 11.609,281.204 11.433,280.760 11.326 C 280.317 11.218,279.902 11.089,279.839 11.038 C 279.775 10.986,279.516 10.893,279.263 10.829 C 279.009 10.766,278.698 10.662,278.571 10.599 C 278.445 10.536,278.134 10.432,277.880 10.369 C 277.627 10.305,277.368 10.212,277.304 10.161 C 277.182 10.062,276.391 9.846,274.885 9.499 C 274.378 9.383,273.963 9.255,273.963 9.217 C 273.963 9.178,273.652 9.070,273.272 8.978 C 272.522 8.795,271.044 8.429,269.585 8.065 C 267.712 7.596,266.566 7.321,265.668 7.123 C 265.161 7.011,264.228 6.804,263.594 6.662 C 262.961 6.520,262.028 6.313,261.521 6.201 C 261.014 6.090,260.132 5.893,259.562 5.764 C 257.130 5.215,256.723 5.132,255.243 4.885 C 254.387 4.742,253.220 4.518,252.650 4.386 C 250.385 3.865,249.510 3.692,247.926 3.456 C 247.019 3.321,245.870 3.133,245.373 3.039 C 244.876 2.944,243.485 2.740,242.281 2.586 C 241.077 2.431,239.107 2.177,237.903 2.023 C 236.699 1.868,235.381 1.678,234.974 1.601 C 234.568 1.524,232.597 1.315,230.597 1.137 C 228.596 0.959,226.544 0.700,226.037 0.560 C 224.939 0.258,179.549 -0.128,179.243 0.162 M221.429 14.873 C 221.935 14.998,223.802 15.236,225.576 15.402 C 228.739 15.698,230.047 15.844,233.986 16.342 C 235.063 16.478,236.826 16.701,237.903 16.837 C 241.381 17.277,243.101 17.523,244.240 17.742 C 244.853 17.860,246.097 18.067,247.005 18.203 C 248.571 18.436,249.330 18.585,251.728 19.129 C 252.298 19.259,253.283 19.464,253.917 19.585 C 256.948 20.166,258.887 20.597,262.212 21.429 C 263.201 21.676,264.516 21.977,266.359 22.378 C 268.122 22.762,268.894 22.964,268.894 23.041 C 268.894 23.080,269.205 23.188,269.585 23.280 C 269.965 23.373,270.795 23.576,271.429 23.733 C 272.062 23.889,272.892 24.093,273.272 24.185 C 273.652 24.278,274.015 24.395,274.078 24.446 C 274.142 24.497,274.401 24.591,274.654 24.654 C 274.908 24.718,275.219 24.821,275.346 24.885 C 275.472 24.948,275.783 25.052,276.037 25.115 C 276.290 25.179,276.550 25.272,276.613 25.323 C 276.676 25.374,277.091 25.504,277.535 25.611 C 277.978 25.719,278.704 25.894,279.147 26.002 C 279.591 26.109,280.006 26.239,280.069 26.290 C 280.132 26.341,280.392 26.434,280.645 26.498 C 280.899 26.561,281.210 26.665,281.336 26.728 C 281.463 26.791,281.774 26.895,282.028 26.959 C 282.281 27.022,282.592 27.126,282.719 27.189 C 282.846 27.252,283.157 27.356,283.410 27.419 C 283.664 27.483,283.975 27.586,284.101 27.650 C 284.228 27.713,284.539 27.817,284.793 27.880 C 285.046 27.944,285.357 28.047,285.484 28.111 C 285.611 28.174,285.922 28.278,286.175 28.341 C 286.429 28.404,286.791 28.507,286.982 28.568 C 287.172 28.630,287.483 28.656,287.673 28.626 C 287.863 28.596,288.018 28.791,288.018 29.059 C 288.018 29.328,288.211 29.428,288.447 29.282 C 288.683 29.137,289.009 29.231,289.171 29.493 C 289.332 29.755,289.658 29.850,289.894 29.704 C 290.130 29.558,290.323 29.671,290.323 29.954 C 290.323 30.237,290.516 30.350,290.752 30.204 C 290.988 30.058,291.313 30.153,291.475 30.415 C 291.636 30.676,291.947 30.780,292.166 30.645 C 292.384 30.510,292.695 30.614,292.857 30.876 C 293.019 31.137,293.344 31.232,293.580 31.086 C 293.816 30.940,294.009 31.053,294.009 31.336 C 294.009 31.620,294.202 31.732,294.438 31.587 C 294.674 31.441,295.000 31.536,295.161 31.797 C 295.323 32.059,295.648 32.154,295.884 32.008 C 296.120 31.862,296.313 31.975,296.313 32.258 C 296.313 32.541,296.521 32.645,296.774 32.488 C 297.028 32.332,297.235 32.436,297.235 32.719 C 297.235 33.002,297.428 33.115,297.664 32.969 C 297.900 32.823,298.225 32.918,298.387 33.180 C 298.549 33.441,298.874 33.536,299.110 33.390 C 299.346 33.245,299.539 33.357,299.539 33.641 C 299.539 33.924,299.747 34.028,300.000 33.871 C 300.253 33.714,300.461 33.818,300.461 34.101 C 300.461 34.385,300.654 34.497,300.890 34.351 C 301.126 34.206,301.451 34.300,301.613 34.562 C 301.775 34.824,302.100 34.919,302.336 34.773 C 302.572 34.627,302.765 34.740,302.765 35.023 C 302.765 35.306,302.958 35.419,303.194 35.273 C 303.430 35.127,303.755 35.222,303.917 35.484 C 304.079 35.746,304.404 35.840,304.640 35.695 C 304.876 35.549,305.069 35.661,305.069 35.945 C 305.069 36.228,305.276 36.332,305.530 36.175 C 305.783 36.018,305.991 36.122,305.991 36.406 C 305.991 36.689,306.198 36.793,306.452 36.636 C 306.705 36.479,306.912 36.583,306.912 36.866 C 306.912 37.150,307.120 37.253,307.373 37.097 C 307.627 36.940,307.834 37.044,307.834 37.327 C 307.834 37.611,308.041 37.714,308.295 37.558 C 308.548 37.401,308.756 37.505,308.756 37.788 C 308.756 38.071,308.963 38.175,309.217 38.018 C 309.470 37.862,309.677 37.965,309.677 38.249 C 309.677 38.532,309.885 38.636,310.138 38.479 C 310.392 38.323,310.599 38.426,310.599 38.710 C 310.599 38.993,310.806 39.097,311.060 38.940 C 311.313 38.783,311.521 38.887,311.521 39.171 C 311.521 39.454,311.728 39.558,311.982 39.401 C 312.235 39.244,312.442 39.348,312.442 39.631 C 312.442 39.915,312.650 40.018,312.903 39.862 C 313.157 39.705,313.364 39.809,313.364 40.092 C 313.364 40.376,313.571 40.479,313.825 40.323 C 314.078 40.166,314.286 40.292,314.286 40.603 C 314.286 40.913,314.421 41.032,314.586 40.867 C 314.751 40.702,315.181 40.927,315.542 41.367 C 315.947 41.860,316.068 41.902,315.858 41.475 C 315.672 41.094,316.105 41.302,316.820 41.935 C 317.536 42.569,317.968 42.776,317.782 42.396 C 317.573 41.969,317.694 42.011,318.099 42.504 C 318.460 42.944,318.890 43.169,319.055 43.004 C 319.220 42.839,319.355 42.980,319.355 43.318 C 319.355 43.656,319.490 43.797,319.655 43.632 C 319.820 43.467,320.250 43.692,320.611 44.132 C 321.048 44.665,321.167 44.701,320.968 44.240 C 320.768 43.778,320.887 43.814,321.325 44.348 C 321.685 44.787,322.116 45.012,322.281 44.847 C 322.446 44.682,322.581 44.823,322.581 45.161 C 322.581 45.499,322.716 45.641,322.881 45.476 C 323.046 45.311,323.476 45.535,323.837 45.975 C 324.274 46.508,324.393 46.544,324.194 46.083 C 324.029 45.703,324.221 45.794,324.620 46.286 C 325.019 46.778,325.346 46.998,325.346 46.774 C 325.346 46.551,325.672 46.770,326.071 47.262 C 326.470 47.754,326.659 47.846,326.492 47.465 C 326.324 47.085,326.638 47.293,327.189 47.926 C 327.740 48.560,328.051 48.767,327.880 48.387 C 327.709 48.007,328.021 48.214,328.571 48.848 C 329.122 49.482,329.433 49.689,329.263 49.309 C 329.092 48.929,329.403 49.136,329.954 49.770 C 330.505 50.403,330.816 50.611,330.645 50.230 C 330.474 49.850,330.786 50.058,331.336 50.691 C 331.887 51.325,332.198 51.532,332.028 51.152 C 331.857 50.772,332.168 50.979,332.719 51.613 C 333.270 52.247,333.581 52.454,333.410 52.074 C 333.239 51.694,333.550 51.901,334.101 52.535 C 334.652 53.168,334.963 53.376,334.793 52.995 C 334.622 52.615,334.933 52.823,335.484 53.456 C 336.035 54.090,336.341 54.297,336.165 53.917 C 335.988 53.537,336.333 53.754,336.931 54.400 C 337.529 55.045,337.915 55.348,337.788 55.073 C 337.661 54.798,338.076 55.107,338.710 55.760 C 339.343 56.414,339.676 56.629,339.449 56.239 C 339.222 55.849,339.740 56.266,340.601 57.167 C 341.462 58.067,341.959 58.473,341.705 58.068 C 341.452 57.664,341.970 58.077,342.857 58.986 C 343.744 59.896,344.263 60.315,344.009 59.917 C 343.756 59.520,344.482 60.146,345.622 61.307 C 346.763 62.469,347.281 62.879,346.774 62.217 C 346.267 61.556,346.993 62.175,348.387 63.594 C 349.781 65.014,350.507 65.642,350.000 64.991 C 349.493 64.341,350.634 65.439,352.535 67.431 C 354.435 69.424,357.663 72.642,359.706 74.583 C 361.750 76.523,362.565 77.385,361.518 76.498 C 360.471 75.611,360.977 76.225,362.642 77.863 C 364.306 79.501,365.244 80.538,364.726 80.167 C 364.208 79.796,364.528 80.219,365.438 81.106 C 366.347 81.993,366.760 82.512,366.356 82.258 C 365.951 82.005,366.357 82.501,367.257 83.362 C 368.157 84.223,368.573 84.741,368.181 84.514 C 367.789 84.287,367.996 84.591,368.642 85.189 C 369.287 85.787,369.505 86.132,369.124 85.955 C 368.744 85.779,368.952 86.085,369.585 86.636 C 370.219 87.187,370.426 87.498,370.046 87.327 C 369.666 87.156,369.873 87.468,370.507 88.018 C 371.141 88.569,371.348 88.876,370.968 88.699 C 370.588 88.523,370.805 88.867,371.450 89.466 C 372.096 90.064,372.397 90.449,372.120 90.323 C 371.842 90.196,372.011 90.455,372.495 90.899 C 372.978 91.342,373.208 91.705,373.004 91.705 C 372.801 91.705,373.037 92.032,373.529 92.430 C 374.021 92.829,374.113 93.019,373.733 92.851 C 373.353 92.684,373.560 92.997,374.194 93.548 C 374.827 94.099,375.035 94.413,374.654 94.245 C 374.197 94.044,374.234 94.163,374.762 94.597 C 375.202 94.957,375.427 95.387,375.262 95.552 C 375.097 95.718,375.216 95.853,375.526 95.853 C 375.837 95.853,375.963 96.060,375.806 96.313 C 375.650 96.567,375.776 96.774,376.086 96.774 C 376.397 96.774,376.516 96.909,376.351 97.074 C 376.186 97.239,376.411 97.669,376.850 98.030 C 377.384 98.468,377.420 98.586,376.959 98.387 C 376.497 98.188,376.533 98.307,377.067 98.744 C 377.506 99.105,377.731 99.535,377.566 99.700 C 377.401 99.865,377.520 100.000,377.831 100.000 C 378.141 100.000,378.267 100.207,378.111 100.461 C 377.954 100.714,378.058 100.922,378.341 100.922 C 378.624 100.922,378.728 101.129,378.571 101.382 C 378.415 101.636,378.518 101.843,378.802 101.843 C 379.085 101.843,379.198 102.036,379.052 102.272 C 378.906 102.508,379.001 102.834,379.263 102.995 C 379.524 103.157,379.619 103.483,379.473 103.718 C 379.328 103.954,379.440 104.147,379.724 104.147 C 380.007 104.147,380.111 104.355,379.954 104.608 C 379.797 104.862,379.901 105.069,380.184 105.069 C 380.468 105.069,380.580 105.262,380.434 105.498 C 380.289 105.734,380.383 106.059,380.645 106.221 C 380.907 106.383,381.002 106.708,380.856 106.944 C 380.710 107.180,380.823 107.373,381.106 107.373 C 381.389 107.373,381.493 107.581,381.336 107.834 C 381.180 108.088,381.283 108.295,381.567 108.295 C 381.850 108.295,381.963 108.488,381.817 108.724 C 381.671 108.960,381.766 109.285,382.028 109.447 C 382.289 109.609,382.393 109.920,382.258 110.138 C 382.123 110.357,382.227 110.668,382.488 110.829 C 382.750 110.991,382.845 111.317,382.699 111.553 C 382.553 111.789,382.619 111.982,382.845 111.982 C 383.071 111.982,383.279 112.241,383.306 112.558 C 383.366 113.242,383.770 114.977,383.871 114.977 C 383.910 114.977,384.029 115.340,384.137 115.783 C 384.244 116.227,384.420 116.953,384.527 117.396 C 384.634 117.840,384.754 118.203,384.793 118.203 C 384.949 118.203,385.930 122.671,386.449 125.750 C 386.593 126.605,386.809 127.746,386.928 128.284 C 387.965 132.977,387.950 146.657,386.900 152.535 C 386.787 153.168,386.582 154.412,386.443 155.300 C 386.200 156.857,385.971 157.961,385.484 159.908 C 385.119 161.367,384.753 162.845,384.571 163.594 C 384.478 163.975,384.361 164.338,384.309 164.401 C 384.258 164.464,384.165 164.724,384.101 164.977 C 384.038 165.230,383.934 165.541,383.871 165.668 C 383.808 165.795,383.704 166.106,383.641 166.359 C 383.577 166.613,383.474 166.924,383.410 167.051 C 383.347 167.177,383.243 167.488,383.180 167.742 C 383.116 167.995,383.014 168.358,382.952 168.548 C 382.891 168.738,382.865 169.050,382.895 169.240 C 382.925 169.430,382.730 169.585,382.461 169.585 C 382.193 169.585,382.093 169.778,382.238 170.014 C 382.384 170.250,382.289 170.576,382.028 170.737 C 381.766 170.899,381.662 171.210,381.797 171.429 C 381.932 171.647,381.829 171.958,381.567 172.120 C 381.305 172.282,381.210 172.607,381.356 172.843 C 381.502 173.079,381.389 173.272,381.106 173.272 C 380.823 173.272,380.710 173.465,380.856 173.701 C 381.002 173.937,380.907 174.262,380.645 174.424 C 380.383 174.586,380.289 174.911,380.434 175.147 C 380.580 175.383,380.468 175.576,380.184 175.576 C 379.901 175.576,379.797 175.783,379.954 176.037 C 380.111 176.290,380.007 176.498,379.724 176.498 C 379.440 176.498,379.336 176.705,379.493 176.959 C 379.650 177.212,379.546 177.419,379.263 177.419 C 378.979 177.419,378.876 177.627,379.032 177.880 C 379.189 178.134,379.085 178.341,378.802 178.341 C 378.518 178.341,378.415 178.548,378.571 178.802 C 378.728 179.055,378.624 179.263,378.341 179.263 C 378.058 179.263,377.954 179.470,378.111 179.724 C 378.267 179.977,378.164 180.184,377.880 180.184 C 377.597 180.184,377.493 180.392,377.650 180.645 C 377.806 180.899,377.703 181.106,377.419 181.106 C 377.136 181.106,377.032 181.313,377.189 181.567 C 377.346 181.820,377.242 182.028,376.959 182.028 C 376.675 182.028,376.571 182.235,376.728 182.488 C 376.885 182.742,376.759 182.949,376.448 182.949 C 376.137 182.949,376.018 183.084,376.183 183.249 C 376.348 183.414,376.124 183.845,375.684 184.205 C 375.151 184.643,375.115 184.762,375.576 184.562 C 375.956 184.398,375.865 184.590,375.373 184.989 C 374.881 185.388,374.661 185.714,374.885 185.714 C 375.108 185.714,374.889 186.041,374.397 186.440 C 373.905 186.839,373.813 187.031,374.194 186.866 C 374.574 186.702,374.482 186.894,373.990 187.293 C 373.498 187.692,373.279 188.018,373.502 188.018 C 373.726 188.018,373.506 188.345,373.014 188.744 C 372.522 189.143,372.431 189.332,372.811 189.165 C 373.191 188.997,372.984 189.311,372.350 189.862 C 371.717 190.413,371.509 190.724,371.889 190.553 C 372.270 190.382,372.062 190.693,371.429 191.244 C 370.795 191.795,370.588 192.106,370.968 191.935 C 371.348 191.765,371.141 192.076,370.507 192.627 C 369.873 193.178,369.666 193.484,370.046 193.307 C 370.426 193.131,370.209 193.476,369.563 194.074 C 368.918 194.672,368.711 194.976,369.103 194.749 C 369.495 194.521,369.079 195.040,368.179 195.901 C 367.279 196.761,366.873 197.258,367.278 197.005 C 367.682 196.751,367.269 197.270,366.359 198.157 C 365.450 199.044,365.033 199.562,365.433 199.309 C 365.833 199.055,365.313 199.677,364.276 200.691 C 363.240 201.705,362.823 202.224,363.348 201.843 C 363.874 201.463,363.042 202.396,361.500 203.917 C 359.957 205.438,359.448 206.060,360.369 205.300 C 361.289 204.539,360.760 205.161,359.192 206.682 C 357.624 208.203,354.915 210.909,353.171 212.696 C 350.984 214.936,350.715 215.141,352.304 213.354 C 353.571 211.930,352.742 212.648,350.461 214.952 C 348.180 217.255,346.832 218.500,347.465 217.720 C 348.099 216.939,347.581 217.353,346.313 218.640 C 345.046 219.927,344.217 220.657,344.470 220.262 C 344.724 219.868,344.205 220.289,343.318 221.198 C 342.431 222.108,341.912 222.521,342.166 222.116 C 342.419 221.712,341.923 222.117,341.062 223.018 C 340.201 223.918,339.683 224.334,339.910 223.941 C 340.137 223.549,339.833 223.757,339.235 224.402 C 338.637 225.048,338.297 225.265,338.479 224.885 C 338.662 224.505,338.321 224.722,337.723 225.367 C 337.125 226.013,336.740 226.314,336.866 226.037 C 336.993 225.759,336.607 226.061,336.009 226.706 C 335.411 227.352,335.066 227.569,335.243 227.189 C 335.419 226.809,335.113 227.016,334.562 227.650 C 334.011 228.283,333.700 228.491,333.871 228.111 C 334.042 227.730,333.731 227.938,333.180 228.571 C 332.629 229.205,332.323 229.412,332.499 229.032 C 332.676 228.652,332.331 228.869,331.733 229.515 C 331.135 230.160,330.749 230.462,330.876 230.184 C 331.002 229.907,330.743 230.076,330.300 230.559 C 329.856 231.043,329.493 231.272,329.493 231.069 C 329.493 230.866,329.167 231.102,328.768 231.594 C 328.369 232.086,328.177 232.177,328.341 231.797 C 328.505 231.417,328.313 231.509,327.914 232.001 C 327.515 232.493,327.189 232.712,327.189 232.488 C 327.189 232.265,326.863 232.484,326.464 232.976 C 326.065 233.468,325.875 233.560,326.043 233.180 C 326.210 232.800,325.897 233.007,325.346 233.641 C 324.795 234.274,324.481 234.482,324.649 234.101 C 324.850 233.644,324.731 233.681,324.297 234.209 C 323.937 234.649,323.507 234.874,323.342 234.709 C 323.177 234.544,323.041 234.685,323.041 235.023 C 323.041 235.361,322.906 235.502,322.741 235.337 C 322.576 235.172,322.146 235.397,321.786 235.837 C 321.348 236.370,321.229 236.406,321.429 235.945 C 321.628 235.483,321.509 235.519,321.072 236.053 C 320.711 236.492,320.281 236.717,320.116 236.552 C 319.951 236.387,319.816 236.528,319.816 236.866 C 319.816 237.204,319.681 237.346,319.516 237.181 C 319.351 237.016,318.920 237.240,318.560 237.680 C 318.122 238.213,318.003 238.249,318.203 237.788 C 318.402 237.327,318.283 237.363,317.846 237.896 C 317.485 238.336,317.055 238.560,316.890 238.395 C 316.725 238.230,316.590 238.349,316.590 238.660 C 316.590 238.971,316.382 239.097,316.129 238.940 C 315.876 238.783,315.668 238.887,315.668 239.171 C 315.668 239.454,315.461 239.558,315.207 239.401 C 314.954 239.244,314.747 239.348,314.747 239.631 C 314.747 239.915,314.539 240.018,314.286 239.862 C 314.032 239.705,313.825 239.809,313.825 240.092 C 313.825 240.376,313.618 240.479,313.364 240.323 C 313.111 240.166,312.903 240.270,312.903 240.553 C 312.903 240.836,312.696 240.940,312.442 240.783 C 312.189 240.627,311.982 240.730,311.982 241.014 C 311.982 241.297,311.774 241.401,311.521 241.244 C 311.267 241.088,311.060 241.191,311.060 241.475 C 311.060 241.758,310.853 241.862,310.599 241.705 C 310.346 241.548,310.138 241.652,310.138 241.935 C 310.138 242.219,309.931 242.323,309.677 242.166 C 309.424 242.009,309.217 242.113,309.217 242.396 C 309.217 242.680,309.009 242.783,308.756 242.627 C 308.502 242.470,308.295 242.574,308.295 242.857 C 308.295 243.141,308.088 243.244,307.834 243.088 C 307.581 242.931,307.373 243.035,307.373 243.318 C 307.373 243.601,307.166 243.705,306.912 243.548 C 306.659 243.392,306.452 243.495,306.452 243.779 C 306.452 244.062,306.244 244.166,305.991 244.009 C 305.737 243.853,305.530 243.956,305.530 244.240 C 305.530 244.523,305.337 244.636,305.101 244.490 C 304.865 244.344,304.540 244.439,304.378 244.700 C 304.216 244.962,303.891 245.057,303.655 244.911 C 303.419 244.765,303.226 244.878,303.226 245.161 C 303.226 245.445,303.018 245.548,302.765 245.392 C 302.512 245.235,302.304 245.339,302.304 245.622 C 302.304 245.905,302.097 246.009,301.843 245.853 C 301.590 245.696,301.382 245.800,301.382 246.083 C 301.382 246.366,301.175 246.470,300.922 246.313 C 300.668 246.157,300.461 246.260,300.461 246.544 C 300.461 246.827,300.268 246.940,300.032 246.794 C 299.796 246.648,299.471 246.743,299.309 247.005 C 299.147 247.266,298.822 247.361,298.586 247.215 C 298.350 247.070,298.157 247.182,298.157 247.465 C 298.157 247.749,297.964 247.861,297.728 247.716 C 297.492 247.570,297.166 247.665,297.005 247.926 C 296.843 248.188,296.517 248.283,296.282 248.137 C 296.046 247.991,295.853 248.104,295.853 248.387 C 295.853 248.670,295.659 248.783,295.424 248.637 C 295.188 248.491,294.862 248.586,294.700 248.848 C 294.539 249.110,294.213 249.204,293.977 249.059 C 293.741 248.913,293.548 249.025,293.548 249.309 C 293.548 249.592,293.355 249.705,293.119 249.559 C 292.883 249.413,292.558 249.508,292.396 249.770 C 292.235 250.031,291.909 250.126,291.673 249.980 C 291.437 249.834,291.244 249.969,291.244 250.280 C 291.244 250.591,291.108 250.708,290.941 250.542 C 290.774 250.375,290.359 250.469,290.019 250.752 C 289.679 251.034,289.401 251.110,289.401 250.922 C 289.401 250.733,289.090 250.837,288.710 251.152 C 288.329 251.468,288.018 251.571,288.018 251.382 C 288.018 251.194,287.707 251.297,287.327 251.613 C 286.947 251.928,286.636 252.032,286.636 251.843 C 286.636 251.655,286.325 251.758,285.945 252.074 C 285.565 252.389,285.253 252.493,285.253 252.304 C 285.253 252.115,284.942 252.219,284.562 252.535 C 284.182 252.850,283.871 252.954,283.871 252.765 C 283.871 252.576,283.593 252.653,283.253 252.935 C 282.912 253.217,282.498 253.312,282.331 253.145 C 282.164 252.978,282.028 253.049,282.028 253.303 C 282.028 253.556,281.768 253.786,281.452 253.813 C 280.783 253.871,279.086 254.264,278.917 254.400 C 278.854 254.451,278.594 254.545,278.341 254.608 C 278.088 254.672,277.776 254.775,277.650 254.839 C 277.523 254.902,277.212 255.006,276.959 255.069 C 276.705 255.132,276.446 255.226,276.382 255.277 C 276.319 255.328,275.904 255.458,275.461 255.565 C 275.017 255.673,274.291 255.848,273.848 255.956 C 273.404 256.063,273.041 256.182,273.041 256.221 C 273.041 256.260,272.627 256.387,272.120 256.504 C 270.561 256.862,269.816 257.069,269.816 257.143 C 269.816 257.182,269.505 257.289,269.124 257.382 C 268.744 257.474,267.915 257.678,267.281 257.834 C 266.647 257.990,265.818 258.194,265.438 258.287 C 265.058 258.379,264.747 258.487,264.747 258.525 C 264.747 258.612,263.548 258.907,260.138 259.658 C 258.990 259.911,257.266 260.296,255.760 260.637 C 255.127 260.781,254.352 260.917,254.039 260.941 C 253.230 261.001,253.102 261.737,252.783 268.203 C 252.627 271.371,252.411 275.000,252.303 276.267 C 252.196 277.535,251.986 281.371,251.836 284.793 C 251.687 288.214,251.480 291.843,251.377 292.857 C 251.275 293.871,251.057 297.361,250.895 300.613 C 250.732 303.865,250.532 306.872,250.450 307.295 C 250.368 307.718,250.285 308.363,250.266 308.729 C 250.240 309.220,250.042 309.160,249.505 308.498 C 249.106 308.006,248.917 307.915,249.084 308.295 C 249.252 308.675,248.938 308.468,248.387 307.834 C 247.836 307.200,247.523 306.993,247.690 307.373 C 247.858 307.753,247.668 307.662,247.269 307.170 C 246.870 306.678,246.544 306.458,246.544 306.682 C 246.544 306.906,246.217 306.686,245.818 306.194 C 245.419 305.702,245.230 305.611,245.398 305.991 C 245.565 306.371,245.251 306.164,244.700 305.530 C 244.150 304.896,243.839 304.689,244.009 305.069 C 244.180 305.449,243.869 305.242,243.318 304.608 C 242.767 303.975,242.456 303.767,242.627 304.147 C 242.797 304.528,242.486 304.320,241.935 303.687 C 241.385 303.053,241.074 302.846,241.244 303.226 C 241.415 303.606,241.104 303.399,240.553 302.765 C 240.002 302.131,239.696 301.924,239.872 302.304 C 240.049 302.684,239.704 302.467,239.106 301.822 C 238.508 301.176,238.122 300.875,238.249 301.152 C 238.376 301.429,237.990 301.128,237.392 300.483 C 236.794 299.837,236.449 299.620,236.625 300.000 C 236.802 300.380,236.496 300.173,235.945 299.539 C 235.394 298.906,235.083 298.698,235.253 299.078 C 235.424 299.459,235.113 299.251,234.562 298.618 C 234.011 297.984,233.700 297.776,233.871 298.157 C 234.042 298.537,233.731 298.329,233.180 297.696 C 232.629 297.062,232.318 296.855,232.488 297.235 C 232.659 297.615,232.348 297.408,231.797 296.774 C 231.246 296.141,230.935 295.933,231.106 296.313 C 231.277 296.694,230.966 296.486,230.415 295.853 C 229.864 295.219,229.553 295.012,229.724 295.392 C 229.894 295.772,229.583 295.565,229.032 294.931 C 228.481 294.297,228.168 294.090,228.335 294.470 C 228.503 294.850,228.313 294.759,227.914 294.267 C 227.515 293.775,227.189 293.539,227.189 293.742 C 227.189 293.945,226.826 293.716,226.382 293.232 C 225.939 292.749,225.680 292.580,225.806 292.857 C 225.933 293.135,225.548 292.833,224.949 292.188 C 224.351 291.542,224.006 291.325,224.183 291.705 C 224.360 292.085,224.053 291.878,223.502 291.244 C 222.951 290.611,222.640 290.403,222.811 290.783 C 222.982 291.164,222.671 290.956,222.120 290.323 C 221.569 289.689,221.258 289.482,221.429 289.862 C 221.599 290.242,221.288 290.035,220.737 289.401 C 220.186 288.767,219.875 288.560,220.046 288.940 C 220.217 289.320,219.906 289.113,219.355 288.479 C 218.804 287.846,218.493 287.638,218.664 288.018 C 218.834 288.399,218.523 288.191,217.972 287.558 C 217.421 286.924,217.110 286.717,217.281 287.097 C 217.452 287.477,217.141 287.270,216.590 286.636 C 216.039 286.002,215.728 285.795,215.899 286.175 C 216.069 286.555,215.758 286.348,215.207 285.714 C 214.656 285.081,214.345 284.873,214.516 285.253 C 214.687 285.634,214.376 285.426,213.825 284.793 C 213.274 284.159,212.963 283.952,213.134 284.332 C 213.304 284.712,212.993 284.505,212.442 283.871 C 211.891 283.237,211.580 283.030,211.751 283.410 C 211.922 283.790,211.611 283.583,211.060 282.949 C 210.509 282.316,210.198 282.108,210.369 282.488 C 210.539 282.869,210.228 282.661,209.677 282.028 C 209.127 281.394,208.815 281.187,208.986 281.567 C 209.157 281.947,208.846 281.740,208.295 281.106 C 207.744 280.472,207.433 280.265,207.604 280.645 C 207.774 281.025,207.463 280.818,206.912 280.184 C 206.362 279.551,206.050 279.343,206.221 279.724 C 206.392 280.104,206.081 279.896,205.530 279.263 C 204.979 278.629,204.668 278.422,204.839 278.802 C 205.009 279.182,204.698 278.975,204.147 278.341 C 203.597 277.707,203.286 277.500,203.456 277.880 C 203.627 278.260,203.316 278.053,202.765 277.419 C 202.214 276.786,201.903 276.578,202.074 276.959 C 202.244 277.339,201.933 277.131,201.382 276.498 C 200.832 275.864,200.521 275.657,200.691 276.037 C 200.862 276.417,200.551 276.210,200.000 275.576 C 199.449 274.942,199.138 274.735,199.309 275.115 C 199.479 275.495,199.168 275.288,198.618 274.654 C 198.067 274.021,197.756 273.813,197.926 274.194 C 198.097 274.574,197.786 274.366,197.235 273.733 C 196.684 273.099,196.373 272.892,196.544 273.272 C 196.714 273.652,196.403 273.445,195.853 272.811 C 195.302 272.177,194.991 271.970,195.161 272.350 C 195.332 272.730,195.021 272.523,194.470 271.889 C 193.919 271.256,193.608 271.048,193.779 271.429 C 193.950 271.809,193.638 271.601,193.088 270.968 C 192.537 270.334,192.226 270.127,192.396 270.507 C 192.567 270.887,192.256 270.680,191.705 270.046 C 191.154 269.412,190.843 269.205,191.014 269.585 C 191.185 269.965,190.873 269.758,190.323 269.124 C 189.772 268.491,189.461 268.283,189.631 268.664 C 189.802 269.044,189.491 268.836,188.940 268.203 C 188.389 267.569,188.078 267.362,188.249 267.742 C 188.420 268.122,188.109 267.915,187.558 267.281 C 187.007 266.647,186.693 266.440,186.861 266.820 C 187.131 267.435,187.097 267.435,186.553 266.820 C 185.833 266.006,186.294 266.086,180.064 265.695 C 177.336 265.523,174.744 265.316,174.304 265.233 C 173.863 265.151,172.091 264.942,170.366 264.769 C 168.641 264.595,166.878 264.387,166.449 264.307 C 166.020 264.227,164.424 264.022,162.903 263.853 C 161.382 263.683,159.620 263.464,158.986 263.366 C 158.353 263.267,156.996 263.068,155.972 262.922 C 154.948 262.776,153.600 262.555,152.977 262.430 C 152.353 262.305,151.325 262.103,150.691 261.982 C 150.058 261.860,149.073 261.655,148.502 261.525 C 147.932 261.396,146.999 261.184,146.429 261.055 C 145.858 260.926,144.873 260.721,144.240 260.599 C 143.606 260.478,142.621 260.272,142.051 260.143 C 139.942 259.665,138.917 259.434,138.018 259.236 C 137.120 259.039,135.975 258.763,134.101 258.295 C 133.594 258.168,132.765 257.961,132.258 257.834 C 130.799 257.469,129.321 257.103,128.571 256.921 C 128.191 256.828,127.880 256.721,127.880 256.682 C 127.880 256.643,127.517 256.524,127.074 256.416 C 126.630 256.309,125.904 256.133,125.461 256.026 C 125.017 255.919,124.603 255.789,124.539 255.738 C 124.476 255.687,124.217 255.593,123.963 255.530 C 123.710 255.467,123.399 255.363,123.272 255.300 C 123.145 255.236,122.834 255.132,122.581 255.069 C 122.327 255.006,122.068 254.912,122.005 254.861 C 121.941 254.810,121.526 254.680,121.083 254.573 C 120.639 254.466,119.914 254.290,119.470 254.183 C 119.026 254.075,118.612 253.946,118.548 253.895 C 118.485 253.844,118.226 253.750,117.972 253.687 C 117.719 253.623,117.408 253.520,117.281 253.456 C 117.154 253.393,116.843 253.289,116.590 253.226 C 116.336 253.162,116.025 253.059,115.899 252.995 C 115.772 252.932,115.461 252.828,115.207 252.765 C 114.954 252.702,114.591 252.599,114.401 252.538 C 114.211 252.476,113.900 252.450,113.710 252.480 C 113.520 252.510,113.364 252.315,113.364 252.047 C 113.364 251.778,113.171 251.678,112.935 251.824 C 112.699 251.969,112.374 251.875,112.212 251.613 C 112.050 251.351,111.739 251.247,111.521 251.382 C 111.302 251.517,110.991 251.414,110.829 251.152 C 110.668 250.890,110.357 250.787,110.138 250.922 C 109.920 251.057,109.609 250.953,109.447 250.691 C 109.285 250.430,108.960 250.335,108.724 250.481 C 108.488 250.626,108.295 250.514,108.295 250.230 C 108.295 249.947,108.088 249.843,107.834 250.000 C 107.581 250.157,107.373 250.053,107.373 249.770 C 107.373 249.486,107.180 249.374,106.944 249.519 C 106.708 249.665,106.383 249.570,106.221 249.309 C 106.059 249.047,105.748 248.943,105.530 249.078 C 105.312 249.213,105.000 249.110,104.839 248.848 C 104.677 248.586,104.352 248.491,104.116 248.637 C 103.880 248.783,103.687 248.670,103.687 248.387 C 103.687 248.104,103.479 248.000,103.226 248.157 C 102.972 248.313,102.765 248.210,102.765 247.926 C 102.765 247.643,102.572 247.530,102.336 247.676 C 102.100 247.822,101.775 247.727,101.613 247.465 C 101.451 247.204,101.126 247.109,100.890 247.255 C 100.654 247.401,100.461 247.288,100.461 247.005 C 100.461 246.721,100.253 246.618,100.000 246.774 C 99.747 246.931,99.539 246.827,99.539 246.544 C 99.539 246.260,99.346 246.148,99.110 246.294 C 98.874 246.440,98.549 246.345,98.387 246.083 C 98.225 245.821,97.900 245.726,97.664 245.872 C 97.428 246.018,97.235 245.905,97.235 245.622 C 97.235 245.339,97.028 245.235,96.774 245.392 C 96.521 245.548,96.313 245.445,96.313 245.161 C 96.313 244.878,96.120 244.765,95.884 244.911 C 95.648 245.057,95.323 244.962,95.161 244.700 C 95.000 244.439,94.674 244.344,94.438 244.490 C 94.202 244.636,94.009 244.523,94.009 244.240 C 94.009 243.956,93.802 243.853,93.548 244.009 C 93.295 244.166,93.088 244.062,93.088 243.779 C 93.088 243.495,92.880 243.392,92.627 243.548 C 92.373 243.705,92.166 243.601,92.166 243.318 C 92.166 243.035,91.959 242.931,91.705 243.088 C 91.452 243.244,91.244 243.141,91.244 242.857 C 91.244 242.574,91.037 242.470,90.783 242.627 C 90.530 242.783,90.323 242.680,90.323 242.396 C 90.323 242.113,90.115 242.009,89.862 242.166 C 89.608 242.323,89.401 242.219,89.401 241.935 C 89.401 241.652,89.194 241.548,88.940 241.705 C 88.687 241.862,88.479 241.758,88.479 241.475 C 88.479 241.191,88.272 241.088,88.018 241.244 C 87.765 241.401,87.558 241.297,87.558 241.014 C 87.558 240.730,87.350 240.627,87.097 240.783 C 86.843 240.940,86.636 240.836,86.636 240.553 C 86.636 240.270,86.429 240.166,86.175 240.323 C 85.922 240.479,85.714 240.376,85.714 240.092 C 85.714 239.809,85.507 239.705,85.253 239.862 C 85.000 240.018,84.793 239.915,84.793 239.631 C 84.793 239.348,84.585 239.244,84.332 239.401 C 84.078 239.558,83.871 239.454,83.871 239.171 C 83.871 238.887,83.664 238.783,83.410 238.940 C 83.157 239.097,82.949 238.971,82.949 238.660 C 82.949 238.349,82.814 238.230,82.649 238.395 C 82.484 238.560,82.054 238.336,81.693 237.896 C 81.256 237.363,81.137 237.327,81.336 237.788 C 81.536 238.249,81.417 238.213,80.979 237.680 C 80.619 237.240,80.189 237.016,80.024 237.181 C 79.859 237.346,79.724 237.204,79.724 236.866 C 79.724 236.528,79.588 236.387,79.423 236.552 C 79.258 236.717,78.828 236.492,78.468 236.053 C 78.030 235.519,77.911 235.483,78.111 235.945 C 78.310 236.406,78.191 236.370,77.754 235.837 C 77.393 235.397,76.963 235.172,76.798 235.337 C 76.633 235.502,76.498 235.361,76.498 235.023 C 76.498 234.685,76.363 234.544,76.198 234.709 C 76.033 234.874,75.602 234.649,75.242 234.209 C 74.808 233.681,74.689 233.644,74.891 234.101 C 75.058 234.482,74.744 234.274,74.194 233.641 C 73.643 233.007,73.329 232.800,73.496 233.180 C 73.664 233.560,73.475 233.468,73.076 232.976 C 72.677 232.484,72.350 232.265,72.350 232.488 C 72.350 232.712,72.024 232.493,71.625 232.001 C 71.226 231.509,71.036 231.417,71.204 231.797 C 71.371 232.177,71.058 231.970,70.507 231.336 C 69.956 230.703,69.645 230.495,69.816 230.876 C 69.986 231.256,69.675 231.048,69.124 230.415 C 68.574 229.781,68.262 229.574,68.433 229.954 C 68.604 230.334,68.293 230.127,67.742 229.493 C 67.191 228.859,66.880 228.652,67.051 229.032 C 67.221 229.412,66.910 229.205,66.359 228.571 C 65.809 227.938,65.502 227.730,65.679 228.111 C 65.855 228.491,65.510 228.274,64.912 227.628 C 64.314 226.982,63.929 226.681,64.055 226.959 C 64.182 227.236,63.796 226.935,63.198 226.289 C 62.600 225.643,62.260 225.426,62.442 225.806 C 62.625 226.187,62.285 225.969,61.687 225.324 C 61.088 224.678,60.703 224.375,60.829 224.651 C 60.956 224.926,60.541 224.617,59.908 223.963 C 59.274 223.310,58.945 223.094,59.177 223.484 C 59.409 223.874,58.786 223.352,57.794 222.323 C 56.802 221.294,56.302 220.889,56.682 221.423 C 57.062 221.957,56.440 221.441,55.300 220.276 C 54.159 219.112,53.537 218.594,53.917 219.124 C 54.297 219.655,53.675 219.137,52.535 217.972 C 51.394 216.808,50.772 216.285,51.152 216.809 C 51.532 217.334,50.536 216.366,48.939 214.657 C 47.341 212.949,43.709 209.315,40.867 206.582 C 38.025 203.849,36.442 202.235,37.351 202.995 C 38.259 203.756,37.744 203.144,36.206 201.636 C 34.668 200.128,33.836 199.194,34.356 199.562 C 34.876 199.930,34.565 199.526,33.664 198.666 C 32.764 197.805,32.347 197.286,32.737 197.513 C 33.127 197.741,32.911 197.408,32.258 196.774 C 31.605 196.141,31.295 195.726,31.571 195.853 C 31.846 195.979,31.543 195.594,30.897 194.996 C 30.252 194.397,30.035 194.053,30.415 194.229 C 30.795 194.406,30.588 194.099,29.954 193.548 C 29.320 192.997,29.113 192.691,29.493 192.868 C 29.873 193.044,29.656 192.699,29.010 192.101 C 28.365 191.503,28.064 191.118,28.341 191.244 C 28.618 191.371,28.317 190.985,27.672 190.387 C 27.026 189.789,26.809 189.442,27.189 189.615 C 27.569 189.788,27.478 189.604,26.986 189.205 C 26.494 188.806,26.274 188.479,26.498 188.479 C 26.721 188.479,26.502 188.153,26.010 187.754 C 25.518 187.355,25.426 187.163,25.806 187.327 C 26.187 187.492,26.095 187.300,25.603 186.901 C 25.111 186.502,24.892 186.175,25.115 186.175 C 25.339 186.175,25.119 185.849,24.627 185.450 C 24.135 185.051,24.044 184.859,24.424 185.023 C 24.885 185.222,24.849 185.104,24.316 184.666 C 23.876 184.305,23.652 183.875,23.817 183.710 C 23.982 183.545,23.863 183.410,23.552 183.410 C 23.241 183.410,23.115 183.203,23.272 182.949 C 23.429 182.696,23.325 182.488,23.041 182.488 C 22.758 182.488,22.654 182.281,22.811 182.028 C 22.968 181.774,22.864 181.567,22.581 181.567 C 22.297 181.567,22.194 181.359,22.350 181.106 C 22.507 180.853,22.403 180.645,22.120 180.645 C 21.836 180.645,21.733 180.438,21.889 180.184 C 22.046 179.931,21.942 179.724,21.659 179.724 C 21.376 179.724,21.272 179.516,21.429 179.263 C 21.585 179.009,21.482 178.802,21.198 178.802 C 20.915 178.802,20.811 178.594,20.968 178.341 C 21.124 178.088,21.021 177.880,20.737 177.880 C 20.454 177.880,20.350 177.673,20.507 177.419 C 20.664 177.166,20.560 176.959,20.276 176.959 C 19.993 176.959,19.881 176.765,20.026 176.530 C 20.172 176.294,20.077 175.968,19.816 175.806 C 19.554 175.645,19.459 175.319,19.605 175.083 C 19.751 174.847,19.638 174.654,19.355 174.654 C 19.071 174.654,18.968 174.447,19.124 174.194 C 19.281 173.940,19.177 173.733,18.894 173.733 C 18.611 173.733,18.498 173.540,18.644 173.304 C 18.790 173.068,18.695 172.742,18.433 172.581 C 18.171 172.419,18.077 172.094,18.222 171.858 C 18.368 171.622,18.256 171.429,17.972 171.429 C 17.689 171.429,17.576 171.236,17.722 171.000 C 17.868 170.764,17.773 170.438,17.512 170.276 C 17.250 170.115,17.155 169.789,17.301 169.553 C 17.447 169.317,17.346 169.124,17.078 169.124 C 16.809 169.124,16.614 168.969,16.644 168.779 C 16.674 168.589,16.659 168.329,16.609 168.203 C 16.560 168.076,16.424 167.558,16.307 167.051 C 15.961 165.545,15.745 164.754,15.646 164.631 C 15.595 164.568,15.501 164.309,15.438 164.055 C 15.374 163.802,15.281 163.543,15.230 163.479 C 15.133 163.359,14.978 162.765,14.539 160.829 C 13.975 158.339,13.775 157.385,13.115 154.032 C 12.411 150.460,12.212 147.487,12.212 140.553 C 12.212 132.466,12.540 128.461,13.598 123.618 C 13.723 123.047,13.948 122.010,14.099 121.313 C 14.250 120.616,14.442 119.735,14.525 119.355 C 14.608 118.975,14.708 118.664,14.747 118.664 C 14.785 118.664,14.905 118.301,15.012 117.857 C 15.120 117.414,15.295 116.688,15.403 116.244 C 15.510 115.801,15.639 115.386,15.691 115.323 C 15.742 115.259,15.835 115.000,15.899 114.747 C 15.962 114.493,16.066 114.182,16.129 114.055 C 16.192 113.929,16.296 113.618,16.359 113.364 C 16.423 113.111,16.526 112.800,16.590 112.673 C 16.653 112.546,16.757 112.235,16.820 111.982 C 16.884 111.728,16.987 111.417,17.051 111.290 C 17.114 111.164,17.218 110.853,17.281 110.599 C 17.344 110.346,17.447 109.983,17.508 109.793 C 17.570 109.603,17.596 109.291,17.566 109.101 C 17.536 108.911,17.731 108.756,18.000 108.756 C 18.268 108.756,18.368 108.563,18.222 108.327 C 18.077 108.091,18.171 107.765,18.433 107.604 C 18.695 107.442,18.790 107.117,18.644 106.881 C 18.498 106.645,18.611 106.452,18.894 106.452 C 19.177 106.452,19.281 106.244,19.124 105.991 C 18.968 105.737,19.094 105.530,19.404 105.530 C 19.715 105.530,19.833 105.394,19.666 105.227 C 19.499 105.060,19.594 104.645,19.876 104.305 C 20.158 103.965,20.221 103.687,20.014 103.687 C 19.808 103.687,20.042 103.360,20.534 102.961 C 21.026 102.562,21.118 102.388,20.737 102.575 C 20.357 102.761,20.565 102.328,21.198 101.613 C 21.832 100.898,22.039 100.465,21.659 100.651 C 21.232 100.860,21.273 100.739,21.767 100.334 C 22.207 99.974,22.431 99.543,22.266 99.378 C 22.101 99.213,22.220 99.078,22.531 99.078 C 22.842 99.078,22.968 98.871,22.811 98.618 C 22.654 98.364,22.758 98.157,23.041 98.157 C 23.325 98.157,23.429 97.949,23.272 97.696 C 23.115 97.442,23.219 97.235,23.502 97.235 C 23.786 97.235,23.889 97.028,23.733 96.774 C 23.576 96.521,23.702 96.313,24.013 96.313 C 24.323 96.313,24.443 96.178,24.278 96.013 C 24.112 95.848,24.337 95.418,24.777 95.057 C 25.310 94.620,25.346 94.501,24.885 94.700 C 24.505 94.865,24.596 94.673,25.088 94.274 C 25.580 93.875,25.800 93.548,25.576 93.548 C 25.352 93.548,25.572 93.222,26.064 92.823 C 26.556 92.424,26.647 92.235,26.267 92.402 C 25.887 92.570,26.094 92.256,26.728 91.705 C 27.362 91.154,27.569 90.840,27.189 91.008 C 26.809 91.176,26.900 90.986,27.392 90.587 C 27.884 90.188,28.120 89.862,27.917 89.862 C 27.714 89.862,27.943 89.499,28.427 89.055 C 28.910 88.612,29.079 88.353,28.802 88.479 C 28.524 88.606,28.826 88.220,29.471 87.622 C 30.117 87.024,30.334 86.684,29.954 86.866 C 29.574 87.049,29.791 86.709,30.437 86.110 C 31.082 85.512,31.289 85.209,30.897 85.436 C 30.505 85.663,30.921 85.144,31.821 84.284 C 32.721 83.423,33.127 82.926,32.722 83.180 C 32.318 83.433,32.731 82.915,33.641 82.028 C 34.550 81.141,34.967 80.622,34.567 80.876 C 34.167 81.129,34.687 80.507,35.724 79.493 C 36.760 78.479,37.179 77.961,36.654 78.341 C 36.130 78.721,37.200 77.623,39.031 75.901 C 40.862 74.179,44.805 70.238,47.793 67.143 C 50.781 64.049,52.604 62.258,51.843 63.163 C 51.083 64.068,51.695 63.550,53.203 62.012 C 54.711 60.475,55.644 59.642,55.277 60.162 C 54.909 60.682,55.312 60.371,56.173 59.471 C 57.034 58.571,57.552 58.153,57.325 58.543 C 57.098 58.933,57.431 58.718,58.065 58.065 C 58.698 57.411,59.113 57.100,58.986 57.373 C 58.859 57.646,59.274 57.335,59.908 56.682 C 60.541 56.029,60.956 55.718,60.829 55.991 C 60.703 56.264,61.118 55.953,61.751 55.300 C 62.385 54.646,62.800 54.337,62.673 54.612 C 62.546 54.887,62.932 54.584,63.530 53.939 C 64.128 53.293,64.473 53.076,64.296 53.456 C 64.120 53.836,64.426 53.629,64.977 52.995 C 65.528 52.362,65.834 52.154,65.658 52.535 C 65.481 52.915,65.826 52.698,66.424 52.052 C 67.022 51.406,67.408 51.105,67.281 51.382 C 67.154 51.660,67.540 51.359,68.138 50.713 C 68.736 50.067,69.084 49.850,68.910 50.230 C 68.737 50.611,68.922 50.519,69.321 50.027 C 69.720 49.535,70.046 49.316,70.046 49.539 C 70.046 49.763,70.373 49.543,70.772 49.051 C 71.170 48.559,71.360 48.468,71.192 48.848 C 71.025 49.228,71.339 49.021,71.889 48.387 C 72.440 47.753,72.754 47.546,72.586 47.926 C 72.419 48.306,72.608 48.215,73.007 47.723 C 73.406 47.231,73.733 47.011,73.733 47.235 C 73.733 47.459,74.059 47.239,74.458 46.747 C 74.857 46.255,75.049 46.164,74.885 46.544 C 74.720 46.924,74.912 46.832,75.311 46.340 C 75.710 45.849,76.037 45.629,76.037 45.853 C 76.037 46.076,76.363 45.857,76.762 45.365 C 77.161 44.873,77.353 44.781,77.189 45.161 C 76.990 45.623,77.108 45.587,77.546 45.053 C 77.907 44.614,78.337 44.389,78.502 44.554 C 78.667 44.719,78.802 44.600,78.802 44.289 C 78.802 43.979,79.009 43.853,79.263 44.009 C 79.516 44.166,79.724 44.040,79.724 43.729 C 79.724 43.419,79.859 43.299,80.024 43.464 C 80.189 43.629,80.619 43.405,80.979 42.965 C 81.417 42.432,81.536 42.396,81.336 42.857 C 81.137 43.318,81.256 43.282,81.693 42.749 C 82.054 42.309,82.484 42.085,82.649 42.250 C 82.814 42.415,82.949 42.296,82.949 41.985 C 82.949 41.674,83.157 41.548,83.410 41.705 C 83.664 41.862,83.871 41.736,83.871 41.425 C 83.871 41.114,84.006 40.995,84.171 41.160 C 84.336 41.325,84.766 41.101,85.127 40.661 C 85.564 40.128,85.683 40.092,85.484 40.553 C 85.285 41.014,85.403 40.978,85.841 40.445 C 86.202 40.005,86.632 39.781,86.797 39.946 C 86.962 40.111,87.097 39.992,87.097 39.681 C 87.097 39.370,87.304 39.244,87.558 39.401 C 87.811 39.558,88.018 39.454,88.018 39.171 C 88.018 38.887,88.211 38.775,88.447 38.920 C 88.683 39.066,89.009 38.971,89.171 38.710 C 89.332 38.448,89.658 38.353,89.894 38.499 C 90.130 38.645,90.323 38.532,90.323 38.249 C 90.323 37.965,90.530 37.862,90.783 38.018 C 91.037 38.175,91.244 38.071,91.244 37.788 C 91.244 37.505,91.452 37.401,91.705 37.558 C 91.959 37.714,92.166 37.611,92.166 37.327 C 92.166 37.044,92.373 36.940,92.627 37.097 C 92.880 37.253,93.088 37.150,93.088 36.866 C 93.088 36.583,93.295 36.479,93.548 36.636 C 93.802 36.793,94.009 36.689,94.009 36.406 C 94.009 36.122,94.217 36.018,94.470 36.175 C 94.724 36.332,94.931 36.228,94.931 35.945 C 94.931 35.661,95.138 35.558,95.392 35.714 C 95.645 35.871,95.853 35.767,95.853 35.484 C 95.853 35.200,96.060 35.097,96.313 35.253 C 96.567 35.410,96.774 35.306,96.774 35.023 C 96.774 34.740,96.967 34.627,97.203 34.773 C 97.439 34.919,97.765 34.824,97.926 34.562 C 98.088 34.300,98.413 34.206,98.649 34.351 C 98.885 34.497,99.078 34.385,99.078 34.101 C 99.078 33.818,99.286 33.714,99.539 33.871 C 99.793 34.028,100.000 33.924,100.000 33.641 C 100.000 33.357,100.193 33.245,100.429 33.390 C 100.665 33.536,100.990 33.441,101.152 33.180 C 101.314 32.918,101.639 32.823,101.875 32.969 C 102.111 33.115,102.304 33.002,102.304 32.719 C 102.304 32.436,102.512 32.332,102.765 32.488 C 103.018 32.645,103.226 32.541,103.226 32.258 C 103.226 31.975,103.419 31.862,103.655 32.008 C 103.891 32.154,104.216 32.059,104.378 31.797 C 104.540 31.536,104.865 31.441,105.101 31.587 C 105.337 31.732,105.530 31.620,105.530 31.336 C 105.530 31.053,105.723 30.940,105.959 31.086 C 106.195 31.232,106.520 31.137,106.682 30.876 C 106.844 30.614,107.155 30.510,107.373 30.645 C 107.592 30.780,107.903 30.676,108.065 30.415 C 108.226 30.153,108.537 30.049,108.756 30.184 C 108.974 30.319,109.285 30.216,109.447 29.954 C 109.609 29.692,109.934 29.597,110.170 29.743 C 110.406 29.889,110.599 29.789,110.599 29.520 C 110.599 29.252,110.755 29.057,110.945 29.087 C 111.135 29.117,111.446 29.091,111.636 29.029 C 111.826 28.968,112.189 28.865,112.442 28.802 C 112.696 28.738,113.007 28.635,113.134 28.571 C 113.260 28.508,113.571 28.404,113.825 28.341 C 114.078 28.278,114.389 28.174,114.516 28.111 C 114.643 28.047,114.954 27.944,115.207 27.880 C 115.461 27.817,115.772 27.713,115.899 27.650 C 116.025 27.586,116.336 27.483,116.590 27.419 C 116.843 27.356,117.154 27.252,117.281 27.189 C 117.408 27.126,117.719 27.022,117.972 26.959 C 118.226 26.895,118.537 26.791,118.664 26.728 C 118.790 26.665,119.101 26.561,119.355 26.498 C 119.608 26.434,119.919 26.331,120.046 26.267 C 120.173 26.204,120.484 26.100,120.737 26.037 C 120.991 25.974,121.250 25.880,121.313 25.829 C 121.377 25.778,121.791 25.648,122.235 25.541 C 122.679 25.433,123.404 25.258,123.848 25.150 C 124.291 25.043,124.706 24.914,124.770 24.862 C 124.833 24.811,125.092 24.718,125.346 24.654 C 125.599 24.591,125.858 24.497,125.922 24.446 C 125.985 24.395,126.348 24.278,126.728 24.185 C 127.108 24.093,127.938 23.889,128.571 23.733 C 129.205 23.576,130.035 23.373,130.415 23.280 C 130.795 23.188,131.106 23.080,131.106 23.041 C 131.106 23.003,131.469 22.883,131.912 22.776 C 132.356 22.668,133.082 22.493,133.525 22.385 C 133.969 22.278,134.332 22.159,134.332 22.120 C 134.332 22.081,134.643 21.981,135.023 21.898 C 135.403 21.815,136.233 21.634,136.866 21.496 C 137.500 21.358,138.485 21.131,139.055 20.991 C 140.093 20.737,141.358 20.447,143.088 20.066 C 143.594 19.954,144.450 19.766,144.988 19.647 C 145.526 19.528,146.770 19.303,147.753 19.147 C 149.697 18.840,151.216 18.569,152.977 18.215 C 153.600 18.090,154.853 17.877,155.760 17.742 C 156.668 17.607,157.912 17.399,158.525 17.281 C 159.139 17.163,160.478 16.947,161.502 16.801 C 162.526 16.656,163.882 16.457,164.516 16.360 C 165.150 16.263,167.120 16.044,168.894 15.872 C 170.668 15.701,172.431 15.504,172.811 15.434 C 173.191 15.364,176.198 15.157,179.493 14.974 C 182.788 14.791,185.585 14.547,185.708 14.432 C 186.003 14.156,220.235 14.579,221.429 14.873 M149.926 45.100 C 144.534 46.063,139.079 50.436,136.437 55.915 C 135.377 58.112,123.463 100.351,117.773 122.083 C 117.086 124.707,117.411 124.581,106.919 126.270 C 49.695 135.481,56.920 152.328,121.429 160.103 C 166.384 165.521,233.310 165.417,277.650 159.859 C 340.684 151.959,346.920 135.769,290.582 126.289 C 283.714 125.133,280.356 124.377,280.108 123.930 C 279.907 123.568,275.992 109.510,271.408 92.690 C 261.355 55.811,261.730 57.043,259.535 53.653 C 255.762 47.825,250.659 45.014,243.779 44.973 C 238.716 44.943,238.829 44.911,226.037 50.030 C 204.201 58.767,192.993 58.795,171.659 50.166 C 158.707 44.927,155.319 44.138,149.926 45.100 M363.825 58.986 C 367.366 62.535,370.368 65.438,370.495 65.438 C 370.621 65.438,367.827 62.535,364.286 58.986 C 360.744 55.438,357.743 52.535,357.616 52.535 C 357.489 52.535,360.283 55.438,363.825 58.986 M35.706 58.641 L 30.645 63.825 35.829 58.764 C 38.681 55.980,41.014 53.647,41.014 53.579 C 41.014 53.247,40.408 53.825,35.706 58.641 M49.309 65.099 C 49.309 65.166,46.665 67.810,43.433 70.975 L 37.558 76.728 43.311 70.853 C 48.655 65.395,49.309 64.768,49.309 65.099 M355.991 70.046 C 358.007 72.074,359.552 73.733,359.425 73.733 C 359.299 73.733,357.546 72.074,355.530 70.046 C 353.514 68.018,351.969 66.359,352.095 66.359 C 352.222 66.359,353.975 68.018,355.991 70.046 M112.637 173.465 C 105.330 176.646,104.882 181.761,110.525 197.554 C 117.700 217.633,125.366 224.494,148.295 231.353 C 168.705 237.459,177.041 236.952,187.375 228.974 C 197.507 221.152,202.974 221.268,213.645 229.532 C 222.939 236.729,231.482 237.243,250.559 231.752 C 274.007 225.004,281.654 217.786,289.093 195.381 C 293.240 182.889,293.367 180.183,289.981 176.436 C 286.445 172.521,285.326 172.348,272.350 173.705 C 230.217 178.110,168.453 178.115,124.899 173.717 C 114.427 172.660,114.483 172.661,112.637 173.465 M164.286 194.701 C 178.443 196.316,181.573 198.977,177.884 206.263 C 175.276 211.413,171.305 213.147,162.212 213.105 C 148.560 213.043,140.524 208.334,139.383 199.728 C 138.713 194.683,147.889 192.831,164.286 194.701 M252.254 194.487 C 257.664 195.269,259.449 196.317,259.437 198.707 C 259.374 211.076,232.469 218.669,222.836 209.036 C 218.591 204.790,218.467 199.550,222.564 197.474 C 227.973 194.733,243.294 193.191,252.254 194.487 M44.470 210.599 C 47.249 213.387,49.420 215.668,49.293 215.668 C 49.166 215.668,46.789 213.387,44.009 210.599 C 41.230 207.811,39.059 205.530,39.186 205.530 C 39.313 205.530,41.691 207.811,44.470 210.599 M358.525 207.978 C 358.525 208.058,357.851 208.732,357.028 209.476 L 355.530 210.829 356.883 209.332 C 358.145 207.936,358.525 207.622,358.525 207.978 M363.819 221.774 L 357.373 228.341 363.940 221.896 C 370.040 215.908,370.716 215.207,370.386 215.207 C 370.319 215.207,367.364 218.162,363.819 221.774 M34.793 221.198 C 37.063 223.479,39.025 225.346,39.151 225.346 C 39.278 225.346,37.524 223.479,35.253 221.198 C 32.983 218.917,31.022 217.051,30.895 217.051 C 30.768 217.051,32.522 218.917,34.793 221.198 "
      stroke="#334191"
      stroke-width="0"
      fill="currentcolor"
      fill-rule="evenodd"
      style="filter: invert(70%)"
    />
  </g>
</svg>