<svg
  xmlns="http://www.w3.org/2000/svg"
  xmlns:xlink="http://www.w3.org/1999/xlink"
  viewBox="0, 0, 400,400"
>
  <g>
    <path
      d="M228.516 1.215 C 184.215 8.700,156.137 40.630,152.367 87.809 C 151.925 93.350,151.563 108.203,151.563 120.817 L 151.563 143.750 123.975 143.750 C 87.503 143.750,91.406 138.842,91.406 184.700 C 91.406 230.956,87.555 226.089,124.400 226.405 L 151.535 226.638 151.744 310.924 L 151.953 395.210 154.248 397.605 L 156.542 400.000 194.364 400.000 L 232.186 400.000 234.452 397.574 L 236.719 395.147 236.719 310.888 L 236.719 226.628 268.555 226.400 C 302.843 226.154,302.590 226.185,304.836 221.988 C 305.637 220.490,305.859 212.287,305.859 184.192 L 305.859 148.309 303.308 146.029 L 300.757 143.750 268.663 143.750 L 236.570 143.750 236.907 119.336 C 237.464 79.115,237.665 78.914,278.125 78.180 C 311.917 77.568,308.594 81.884,308.594 38.606 C 308.594 6.320,308.434 4.493,305.369 1.638 C 303.157 -0.424,240.260 -0.769,228.516 1.215 "
      stroke="none"
      fill="currentcolor"
      fill-rule="evenodd"
    />
  </g>
</svg>