<svg xmlns="http://www.w3.org/2000/svg" xmlns:xlink="http://www.w3.org/1999/xlink" viewBox="0, 0, 400, 400" version="1.1">
  <g>
    <path
      d="M173.200 45.200 C 173.200 45.429,172.000 45.600,170.400 45.600 C 168.800 45.600,167.600 45.771,167.600 46.000 C 167.600 46.220,166.700 46.400,165.600 46.400 C 164.500 46.400,163.600 46.580,163.600 46.800 C 163.600 47.020,162.880 47.200,162.000 47.200 C 161.120 47.200,160.400 47.380,160.400 47.600 C 160.400 47.820,159.770 48.000,159.000 48.000 C 158.230 48.000,157.600 48.180,157.600 48.400 C 157.600 48.620,157.060 48.800,156.400 48.800 C 155.740 48.800,155.200 48.980,155.200 49.200 C 155.200 49.420,154.660 49.600,154.000 49.600 C 153.340 49.600,152.800 49.780,152.800 50.000 C 152.800 50.220,152.260 50.400,151.600 50.400 C 150.940 50.400,150.400 50.580,150.400 50.800 C 150.400 51.020,150.040 51.200,149.600 51.200 C 149.160 51.200,148.800 51.380,148.800 51.600 C 148.800 51.820,148.260 52.000,147.600 52.000 C 146.940 52.000,146.400 52.180,146.400 52.400 C 146.400 52.620,146.040 52.800,145.600 52.800 C 145.160 52.800,144.800 52.980,144.800 53.200 C 144.800 53.420,144.440 53.600,144.000 53.600 C 143.560 53.600,143.200 53.780,143.200 54.000 C 143.200 54.220,142.930 54.400,142.600 54.400 C 142.270 54.400,142.000 54.580,142.000 54.800 C 142.000 55.020,141.640 55.200,141.200 55.200 C 140.760 55.200,140.400 55.380,140.400 55.600 C 140.400 55.820,140.040 56.000,139.600 56.000 C 139.160 56.000,138.800 56.180,138.800 56.400 C 138.800 56.620,138.480 56.800,138.088 56.800 C 137.697 56.800,137.117 57.160,136.800 57.600 C 136.483 58.040,135.925 58.400,135.561 58.400 C 135.196 58.400,134.674 58.670,134.400 59.000 C 134.126 59.330,133.604 59.600,133.239 59.600 C 132.875 59.600,132.317 59.960,132.000 60.400 C 131.683 60.840,131.143 61.200,130.800 61.200 C 130.457 61.200,129.917 61.560,129.600 62.000 C 129.283 62.440,128.748 62.808,128.412 62.819 C 128.075 62.829,127.260 63.540,126.600 64.400 C 125.940 65.260,125.182 65.971,124.916 65.981 C 124.425 66.000,112.800 77.292,112.800 77.750 C 112.800 77.887,112.080 78.741,111.200 79.648 C 110.320 80.555,109.600 81.523,109.600 81.799 C 109.600 82.076,109.330 82.526,109.000 82.800 C 108.670 83.074,108.400 83.564,108.400 83.888 C 108.400 84.213,107.860 84.983,107.200 85.600 C 106.540 86.217,106.000 87.009,106.000 87.360 C 106.000 87.712,105.820 88.000,105.600 88.000 C 105.380 88.000,105.200 88.320,105.200 88.712 C 105.200 89.103,104.840 89.683,104.400 90.000 C 103.960 90.317,103.600 90.897,103.600 91.288 C 103.600 91.680,103.420 92.000,103.200 92.000 C 102.980 92.000,102.800 92.230,102.800 92.512 C 102.800 92.793,102.440 93.283,102.000 93.600 C 101.560 93.917,101.200 94.497,101.200 94.888 C 101.200 95.280,101.020 95.600,100.800 95.600 C 100.580 95.600,100.400 95.960,100.400 96.400 C 100.400 96.840,100.220 97.200,100.000 97.200 C 99.780 97.200,99.600 97.560,99.600 98.000 C 99.600 98.440,99.420 98.800,99.200 98.800 C 98.980 98.800,98.800 99.300,98.800 99.912 C 98.800 100.565,98.470 101.261,98.000 101.600 C 97.530 101.939,97.200 102.635,97.200 103.288 C 97.200 103.900,97.020 104.400,96.800 104.400 C 96.580 104.400,96.400 104.760,96.400 105.200 C 96.400 105.640,96.220 106.000,96.000 106.000 C 95.780 106.000,95.600 106.540,95.600 107.200 C 95.600 107.860,95.420 108.400,95.200 108.400 C 94.980 108.400,94.800 108.839,94.800 109.376 C 94.800 109.913,94.620 110.464,94.400 110.600 C 94.180 110.736,94.000 111.276,94.000 111.800 C 94.000 112.324,93.820 112.864,93.600 113.000 C 93.380 113.136,93.200 113.856,93.200 114.600 C 93.200 115.344,93.020 116.064,92.800 116.200 C 92.580 116.336,92.400 116.878,92.400 117.404 C 92.400 117.930,92.130 119.398,91.800 120.665 C 91.470 121.931,91.200 123.650,91.200 124.484 C 91.200 125.318,91.020 126.000,90.800 126.000 C 90.563 126.000,90.400 127.467,90.400 129.600 C 90.400 131.733,90.237 133.200,90.000 133.200 C 89.767 133.200,89.600 134.533,89.600 136.400 C 89.600 138.267,89.433 139.600,89.200 139.600 C 88.944 139.600,88.800 143.067,88.800 149.200 C 88.800 155.333,88.944 158.800,89.200 158.800 C 89.440 158.800,89.600 160.400,89.600 162.800 C 89.600 165.200,89.760 166.800,90.000 166.800 C 90.229 166.800,90.400 168.000,90.400 169.600 C 90.400 171.140,90.542 172.400,90.717 172.400 C 90.891 172.400,91.261 174.065,91.539 176.100 C 92.405 182.428,92.475 182.799,92.842 183.026 C 93.039 183.148,93.200 183.676,93.200 184.200 C 93.200 184.724,93.380 185.264,93.600 185.400 C 93.820 185.536,94.000 186.076,94.000 186.600 C 94.000 187.124,94.180 187.664,94.400 187.800 C 94.620 187.936,94.800 188.361,94.800 188.744 C 94.800 189.619,95.699 191.593,96.100 191.597 C 96.265 191.599,96.400 192.140,96.400 192.800 C 96.400 193.460,96.580 194.000,96.800 194.000 C 97.020 194.000,97.200 194.360,97.200 194.800 C 97.200 195.240,97.380 195.600,97.600 195.600 C 97.820 195.600,98.000 195.960,98.000 196.400 C 98.000 196.840,98.180 197.200,98.400 197.200 C 98.620 197.200,98.800 197.740,98.800 198.400 C 98.800 199.060,98.980 199.600,99.200 199.600 C 99.420 199.600,99.600 199.960,99.600 200.400 C 99.600 200.840,99.780 201.200,100.000 201.200 C 100.220 201.200,100.400 201.560,100.400 202.000 C 100.400 202.440,100.580 202.800,100.800 202.800 C 101.020 202.800,101.200 203.120,101.200 203.512 C 101.200 203.903,101.560 204.483,102.000 204.800 C 102.440 205.117,102.800 205.697,102.800 206.088 C 102.800 206.480,102.980 206.800,103.200 206.800 C 103.420 206.800,103.600 207.030,103.600 207.312 C 103.600 207.593,103.960 208.083,104.400 208.400 C 104.840 208.717,105.200 209.297,105.200 209.688 C 105.200 210.080,105.380 210.400,105.600 210.400 C 105.820 210.400,106.000 210.720,106.000 211.112 C 106.000 211.503,106.360 212.083,106.800 212.400 C 107.240 212.717,107.600 213.215,107.600 213.506 C 107.600 213.797,108.050 214.520,108.600 215.113 C 109.150 215.707,109.600 216.436,109.600 216.735 C 109.600 217.034,110.140 217.783,110.800 218.400 C 111.460 219.017,112.000 219.732,112.000 219.989 C 112.000 220.660,113.034 221.600,113.771 221.600 C 114.133 221.600,114.400 221.939,114.400 222.400 C 114.400 222.840,114.563 223.200,114.763 223.200 C 114.963 223.200,117.037 225.090,119.372 227.400 C 121.707 229.710,123.839 231.602,124.109 231.604 C 124.379 231.606,124.990 232.101,125.466 232.704 C 127.248 234.960,127.909 235.600,128.459 235.600 C 128.769 235.600,129.283 235.960,129.600 236.400 C 129.917 236.840,130.457 237.200,130.800 237.200 C 131.143 237.200,131.683 237.560,132.000 238.000 C 132.317 238.440,132.857 238.800,133.200 238.800 C 133.543 238.800,134.083 239.160,134.400 239.600 C 134.717 240.040,135.275 240.400,135.639 240.400 C 136.004 240.400,136.526 240.670,136.800 241.000 C 137.074 241.330,137.636 241.600,138.049 241.600 C 138.462 241.600,138.800 241.780,138.800 242.000 C 138.800 242.220,139.160 242.400,139.600 242.400 C 140.040 242.400,140.400 242.580,140.400 242.800 C 140.400 243.020,140.760 243.200,141.200 243.200 C 141.640 243.200,142.000 243.380,142.000 243.600 C 142.000 243.820,142.270 244.000,142.600 244.000 C 142.930 244.000,143.200 244.180,143.200 244.400 C 143.200 244.620,143.560 244.800,144.000 244.800 C 144.440 244.800,144.800 244.980,144.800 245.200 C 144.800 245.420,145.160 245.600,145.600 245.600 C 146.040 245.600,146.400 245.780,146.400 246.000 C 146.400 246.220,146.940 246.400,147.600 246.400 C 148.260 246.400,148.800 246.580,148.800 246.800 C 148.800 247.020,149.160 247.200,149.600 247.200 C 150.040 247.200,150.400 247.380,150.400 247.600 C 150.400 247.820,150.940 248.000,151.600 248.000 C 152.260 248.000,152.800 248.180,152.800 248.400 C 152.800 248.620,153.340 248.800,154.000 248.800 C 154.660 248.800,155.200 248.980,155.200 249.200 C 155.200 249.420,155.740 249.600,156.400 249.600 C 157.060 249.600,157.600 249.780,157.600 250.000 C 157.600 250.220,158.230 250.400,159.000 250.400 C 159.770 250.400,160.400 250.580,160.400 250.800 C 160.400 251.020,161.120 251.200,162.000 251.200 C 162.880 251.200,163.600 251.380,163.600 251.600 C 163.600 251.822,164.667 252.000,166.000 252.000 C 167.333 252.000,168.400 252.178,168.400 252.400 C 168.400 252.629,169.600 252.800,171.200 252.800 C 172.800 252.800,174.000 252.971,174.000 253.200 C 174.000 253.459,178.800 253.600,187.600 253.600 C 196.400 253.600,201.200 253.459,201.200 253.200 C 201.200 252.978,202.267 252.800,203.600 252.800 C 204.933 252.800,206.000 252.622,206.000 252.400 C 206.000 252.180,206.990 252.000,208.200 252.000 C 209.410 252.000,210.400 251.820,210.400 251.600 C 210.400 251.380,210.940 251.200,211.600 251.200 C 212.260 251.200,212.800 251.020,212.800 250.800 C 212.800 250.580,213.520 250.400,214.400 250.400 C 215.280 250.400,216.000 250.220,216.000 250.000 C 216.000 249.780,216.540 249.600,217.200 249.600 C 217.860 249.600,218.400 249.420,218.400 249.200 C 218.400 248.980,218.760 248.800,219.200 248.800 C 219.640 248.800,220.000 248.620,220.000 248.400 C 220.000 248.180,220.500 248.000,221.112 248.000 C 221.765 248.000,222.461 247.670,222.800 247.200 C 223.117 246.760,223.787 246.400,224.288 246.400 C 224.790 246.400,225.200 246.220,225.200 246.000 C 225.200 245.780,225.560 245.600,226.000 245.600 C 226.440 245.600,226.800 245.420,226.800 245.200 C 226.800 244.980,227.120 244.800,227.512 244.800 C 227.903 244.800,228.483 244.440,228.800 244.000 C 229.117 243.560,229.697 243.200,230.088 243.200 C 230.480 243.200,230.800 243.020,230.800 242.800 C 230.800 242.580,231.160 242.400,231.600 242.400 C 232.040 242.400,232.400 242.223,232.400 242.008 C 232.400 241.792,232.837 241.506,233.371 241.372 C 233.904 241.238,234.652 240.784,235.033 240.364 C 235.413 239.944,235.954 239.600,236.235 239.600 C 236.517 239.600,237.569 238.754,238.573 237.721 L 240.400 235.841 240.400 239.521 C 240.400 241.707,240.238 243.200,240.000 243.200 C 239.778 243.200,239.600 244.267,239.600 245.600 C 239.600 246.933,239.422 248.000,239.200 248.000 C 238.980 248.000,238.800 248.540,238.800 249.200 C 238.800 249.860,238.620 250.400,238.400 250.400 C 238.180 250.400,238.000 251.300,238.000 252.400 C 238.000 253.500,237.820 254.400,237.600 254.400 C 237.380 254.400,237.200 254.760,237.200 255.200 C 237.200 255.640,237.020 256.000,236.800 256.000 C 236.580 256.000,236.400 256.540,236.400 257.200 C 236.400 257.860,236.220 258.400,236.000 258.400 C 235.780 258.400,235.600 258.670,235.600 259.000 C 235.600 259.330,235.420 259.600,235.200 259.600 C 234.980 259.600,234.800 260.140,234.800 260.800 C 234.800 261.460,234.620 262.000,234.400 262.000 C 234.180 262.000,234.000 262.320,234.000 262.712 C 234.000 263.103,233.640 263.683,233.200 264.000 C 232.760 264.317,232.400 264.897,232.400 265.288 C 232.400 265.680,232.220 266.000,232.000 266.000 C 231.780 266.000,231.600 266.320,231.600 266.712 C 231.600 267.103,231.240 267.683,230.800 268.000 C 230.360 268.317,230.000 268.857,230.000 269.200 C 230.000 269.543,229.640 270.083,229.200 270.400 C 228.760 270.717,228.400 271.220,228.400 271.516 C 228.400 272.207,219.787 280.800,219.096 280.800 C 218.810 280.800,218.317 281.160,218.000 281.600 C 217.683 282.040,217.143 282.400,216.800 282.400 C 216.457 282.400,215.917 282.760,215.600 283.200 C 215.283 283.640,214.703 284.000,214.312 284.000 C 213.920 284.000,213.600 284.180,213.600 284.400 C 213.600 284.620,213.240 284.800,212.800 284.800 C 212.360 284.800,212.000 284.980,212.000 285.200 C 212.000 285.420,211.640 285.600,211.200 285.600 C 210.760 285.600,210.400 285.780,210.400 286.000 C 210.400 286.220,209.950 286.400,209.400 286.400 C 208.850 286.400,208.400 286.580,208.400 286.800 C 208.400 287.020,208.040 287.200,207.600 287.200 C 207.160 287.200,206.800 287.380,206.800 287.600 C 206.800 287.820,206.260 288.000,205.600 288.000 C 204.940 288.000,204.400 288.180,204.400 288.400 C 204.400 288.620,203.860 288.800,203.200 288.800 C 202.540 288.800,202.000 288.980,202.000 289.200 C 202.000 289.420,201.100 289.600,200.000 289.600 C 198.900 289.600,198.000 289.780,198.000 290.000 C 198.000 290.229,196.800 290.400,195.200 290.400 C 193.600 290.400,192.400 290.571,192.400 290.800 C 192.400 291.026,191.267 291.200,189.800 291.200 C 188.333 291.200,187.200 291.026,187.200 290.800 C 187.200 290.567,185.867 290.400,184.000 290.400 C 182.133 290.400,180.800 290.233,180.800 290.000 C 180.800 289.778,179.733 289.600,178.400 289.600 C 177.067 289.600,176.000 289.422,176.000 289.200 C 176.000 288.980,175.550 288.800,175.000 288.800 C 174.450 288.800,174.000 288.620,174.000 288.400 C 174.000 288.180,173.460 288.000,172.800 288.000 C 172.140 288.000,171.600 287.820,171.600 287.600 C 171.600 287.380,170.880 287.200,170.000 287.200 C 169.120 287.200,168.400 287.020,168.400 286.800 C 168.400 286.580,168.040 286.400,167.600 286.400 C 167.160 286.400,166.800 286.220,166.800 286.000 C 166.800 285.780,166.260 285.600,165.600 285.600 C 164.940 285.600,164.400 285.420,164.400 285.200 C 164.400 284.980,164.040 284.800,163.600 284.800 C 163.160 284.800,162.800 284.620,162.800 284.400 C 162.800 284.180,162.440 284.000,162.000 284.000 C 161.560 284.000,161.200 283.820,161.200 283.600 C 161.200 283.380,160.840 283.200,160.400 283.200 C 159.960 283.200,159.600 283.020,159.600 282.800 C 159.600 282.580,159.240 282.400,158.800 282.400 C 158.360 282.400,158.000 282.254,158.000 282.075 C 158.000 281.896,157.370 281.502,156.600 281.200 C 155.830 280.898,155.200 280.504,155.200 280.325 C 155.200 280.146,154.880 280.000,154.488 280.000 C 154.097 280.000,153.517 279.640,153.200 279.200 C 152.883 278.760,152.343 278.400,152.000 278.400 C 151.657 278.400,151.117 278.040,150.800 277.600 C 150.483 277.160,149.903 276.800,149.512 276.800 C 149.120 276.800,148.800 276.620,148.800 276.400 C 148.800 276.155,146.924 276.000,143.971 276.000 C 138.984 276.000,138.000 276.292,138.000 277.771 C 138.000 278.117,137.820 278.400,137.600 278.400 C 137.380 278.400,137.200 278.760,137.200 279.200 C 137.200 279.640,137.020 280.000,136.800 280.000 C 136.580 280.000,136.400 280.320,136.400 280.712 C 136.400 281.103,136.040 281.683,135.600 282.000 C 135.130 282.339,134.800 283.035,134.800 283.688 C 134.800 284.300,134.620 284.800,134.400 284.800 C 134.180 284.800,134.000 285.120,134.000 285.512 C 134.000 285.903,133.640 286.483,133.200 286.800 C 132.760 287.117,132.400 287.697,132.400 288.088 C 132.400 288.480,132.220 288.800,132.000 288.800 C 131.780 288.800,131.600 289.160,131.600 289.600 C 131.600 290.040,131.420 290.400,131.200 290.400 C 130.980 290.400,130.800 290.760,130.800 291.200 C 130.800 291.640,130.664 292.000,130.498 292.000 C 130.331 292.000,129.940 292.585,129.628 293.300 C 129.316 294.015,128.732 294.891,128.330 295.247 C 127.929 295.603,127.600 296.368,127.600 296.947 C 127.600 297.526,127.441 298.000,127.247 298.000 C 126.830 298.000,124.800 302.157,124.800 303.011 C 124.800 303.335,124.620 303.600,124.400 303.600 C 124.180 303.600,124.000 303.960,124.000 304.400 C 124.000 304.840,123.820 305.200,123.600 305.200 C 123.380 305.200,123.200 305.560,123.200 306.000 C 123.200 306.440,123.020 306.800,122.800 306.800 C 122.580 306.800,122.400 307.160,122.400 307.600 C 122.400 308.040,122.220 308.400,122.000 308.400 C 121.780 308.400,121.600 308.630,121.600 308.912 C 121.600 309.193,121.240 309.683,120.800 310.000 C 120.360 310.317,120.000 310.897,120.000 311.288 C 120.000 311.680,119.820 312.000,119.600 312.000 C 119.380 312.000,119.200 312.360,119.200 312.800 C 119.200 313.240,119.020 313.600,118.800 313.600 C 118.580 313.600,118.400 313.960,118.400 314.400 C 118.400 314.840,118.220 315.200,118.000 315.200 C 117.780 315.200,117.600 315.560,117.600 316.000 C 117.600 316.440,117.420 316.800,117.200 316.800 C 116.980 316.800,116.800 317.160,116.800 317.600 C 116.800 318.040,116.620 318.400,116.400 318.400 C 116.180 318.400,116.000 318.940,116.000 319.600 C 116.000 320.533,115.822 320.800,115.200 320.800 C 114.448 320.800,114.400 321.067,114.400 325.213 L 114.400 329.627 115.787 331.013 C 116.549 331.776,117.410 332.400,117.698 332.400 C 117.987 332.400,118.483 332.760,118.800 333.200 C 119.117 333.640,119.625 334.000,119.928 334.000 C 120.231 334.000,120.983 334.540,121.600 335.200 C 122.217 335.860,123.009 336.400,123.360 336.400 C 123.712 336.400,124.000 336.580,124.000 336.800 C 124.000 337.020,124.341 337.200,124.757 337.200 C 125.174 337.200,125.615 337.461,125.737 337.781 C 125.860 338.100,126.750 338.722,127.715 339.161 C 128.680 339.601,129.697 340.235,129.975 340.570 C 130.253 340.905,131.092 341.294,131.840 341.434 C 132.588 341.574,133.200 341.849,133.200 342.045 C 133.200 342.240,133.560 342.400,134.000 342.400 C 134.440 342.400,134.800 342.580,134.800 342.800 C 134.800 343.020,135.160 343.200,135.600 343.200 C 136.040 343.200,136.400 343.380,136.400 343.600 C 136.400 343.820,136.940 344.000,137.600 344.000 C 138.260 344.000,138.800 344.180,138.800 344.400 C 138.800 344.620,139.160 344.800,139.600 344.800 C 140.040 344.800,140.400 344.980,140.400 345.200 C 140.400 345.420,140.850 345.600,141.400 345.600 C 141.950 345.600,142.400 345.780,142.400 346.000 C 142.400 346.220,142.940 346.400,143.600 346.400 C 144.260 346.400,144.800 346.580,144.800 346.800 C 144.800 347.020,145.160 347.200,145.600 347.200 C 146.040 347.200,146.400 347.380,146.400 347.600 C 146.400 347.820,146.940 348.000,147.600 348.000 C 148.260 348.000,148.800 348.180,148.800 348.400 C 148.800 348.620,149.520 348.800,150.400 348.800 C 151.280 348.800,152.000 348.980,152.000 349.200 C 152.000 349.420,152.540 349.600,153.200 349.600 C 153.860 349.600,154.400 349.780,154.400 350.000 C 154.400 350.220,155.120 350.400,156.000 350.400 C 156.880 350.400,157.600 350.580,157.600 350.800 C 157.600 351.020,158.410 351.200,159.400 351.200 C 160.390 351.200,161.200 351.380,161.200 351.600 C 161.200 351.820,161.920 352.000,162.800 352.000 C 163.680 352.000,164.400 352.180,164.400 352.400 C 164.400 352.629,165.600 352.800,167.200 352.800 C 168.800 352.800,170.000 352.971,170.000 353.200 C 170.000 353.431,171.259 353.600,172.976 353.600 C 174.613 353.600,176.064 353.780,176.200 354.000 C 176.337 354.221,178.137 354.400,180.224 354.400 C 182.475 354.400,184.000 354.562,184.000 354.800 C 184.000 355.056,187.533 355.200,193.800 355.200 C 200.067 355.200,203.600 355.056,203.600 354.800 C 203.600 354.557,205.400 354.400,208.200 354.400 C 211.000 354.400,212.800 354.243,212.800 354.000 C 212.800 353.760,214.400 353.600,216.800 353.600 C 219.200 353.600,220.800 353.440,220.800 353.200 C 220.800 352.980,221.610 352.800,222.600 352.800 C 223.590 352.800,224.400 352.620,224.400 352.400 C 224.400 352.180,225.300 352.000,226.400 352.000 C 227.500 352.000,228.400 351.820,228.400 351.600 C 228.400 351.380,229.300 351.200,230.400 351.200 C 231.500 351.200,232.400 351.020,232.400 350.800 C 232.400 350.580,232.940 350.400,233.600 350.400 C 234.260 350.400,234.800 350.220,234.800 350.000 C 234.800 349.780,235.340 349.600,236.000 349.600 C 236.660 349.600,237.200 349.420,237.200 349.200 C 237.200 348.980,237.920 348.800,238.800 348.800 C 239.680 348.800,240.400 348.620,240.400 348.400 C 240.400 348.180,240.850 348.000,241.400 348.000 C 241.950 348.000,242.400 347.820,242.400 347.600 C 242.400 347.380,242.940 347.200,243.600 347.200 C 244.260 347.200,244.800 347.020,244.800 346.800 C 244.800 346.580,245.340 346.400,246.000 346.400 C 246.660 346.400,247.200 346.220,247.200 346.000 C 247.200 345.780,247.560 345.600,248.000 345.600 C 248.440 345.600,248.800 345.420,248.800 345.200 C 248.800 344.980,249.160 344.800,249.600 344.800 C 250.040 344.800,250.400 344.620,250.400 344.400 C 250.400 344.180,250.760 344.000,251.200 344.000 C 251.640 344.000,252.000 343.820,252.000 343.600 C 252.000 343.380,252.360 343.200,252.800 343.200 C 253.240 343.200,253.600 343.020,253.600 342.800 C 253.600 342.580,254.140 342.400,254.800 342.400 C 255.460 342.400,256.000 342.220,256.000 342.000 C 256.000 341.780,256.366 341.600,256.813 341.600 C 257.259 341.600,257.729 341.330,257.855 341.000 C 257.982 340.670,258.426 340.400,258.843 340.400 C 259.259 340.400,259.600 340.220,259.600 340.000 C 259.600 339.780,259.920 339.600,260.312 339.600 C 260.703 339.600,261.283 339.240,261.600 338.800 C 261.917 338.360,262.497 338.000,262.888 338.000 C 263.280 338.000,263.600 337.820,263.600 337.600 C 263.600 337.380,263.884 337.200,264.231 337.200 C 264.579 337.200,265.554 336.480,266.400 335.600 C 267.246 334.720,268.221 334.000,268.569 334.000 C 268.916 334.000,269.200 333.820,269.200 333.600 C 269.200 333.380,269.482 333.200,269.826 333.200 C 270.170 333.200,271.329 332.300,272.400 331.200 C 273.471 330.100,274.540 329.200,274.774 329.200 C 275.008 329.200,275.200 328.840,275.200 328.400 C 275.200 327.948,275.467 327.600,275.813 327.600 C 276.151 327.600,277.015 327.015,277.734 326.300 C 278.454 325.585,279.616 324.550,280.317 324.000 C 281.019 323.450,281.594 322.763,281.596 322.474 C 281.598 322.185,282.500 321.071,283.600 320.000 C 284.700 318.929,285.600 317.770,285.600 317.426 C 285.600 317.067,285.941 316.800,286.400 316.800 C 286.900 316.800,287.200 316.533,287.200 316.088 C 287.200 315.697,287.560 315.117,288.000 314.800 C 288.440 314.483,288.800 313.943,288.800 313.600 C 288.800 313.257,289.160 312.717,289.600 312.400 C 290.040 312.083,290.400 311.525,290.400 311.161 C 290.400 310.796,290.670 310.274,291.000 310.000 C 291.330 309.726,291.600 309.176,291.600 308.778 C 291.600 308.380,291.960 307.940,292.400 307.800 C 292.840 307.660,293.200 307.198,293.200 306.773 C 293.200 306.348,293.380 306.000,293.600 306.000 C 293.820 306.000,294.000 305.640,294.000 305.200 C 294.000 304.760,294.180 304.400,294.400 304.400 C 294.620 304.400,294.800 304.040,294.800 303.600 C 294.800 303.160,294.980 302.800,295.200 302.800 C 295.420 302.800,295.600 302.440,295.600 302.000 C 295.600 301.560,295.780 301.200,296.000 301.200 C 296.220 301.200,296.400 300.840,296.400 300.400 C 296.400 299.960,296.580 299.600,296.800 299.600 C 297.020 299.600,297.200 299.240,297.200 298.800 C 297.200 298.360,297.380 298.000,297.600 298.000 C 297.820 298.000,298.000 297.640,298.000 297.200 C 298.000 296.760,298.180 296.400,298.400 296.400 C 298.620 296.400,298.800 296.040,298.800 295.600 C 298.800 295.160,298.980 294.800,299.200 294.800 C 299.420 294.800,299.600 294.300,299.600 293.688 C 299.600 293.035,299.930 292.339,300.400 292.000 C 300.920 291.625,301.200 290.965,301.200 290.112 C 301.200 289.390,301.380 288.800,301.600 288.800 C 301.820 288.800,302.000 288.440,302.000 288.000 C 302.000 287.560,302.180 287.200,302.400 287.200 C 302.620 287.200,302.800 286.480,302.800 285.600 C 302.800 284.720,302.980 284.000,303.200 284.000 C 303.420 284.000,303.600 283.460,303.600 282.800 C 303.600 282.140,303.780 281.600,304.000 281.600 C 304.220 281.600,304.400 281.060,304.400 280.400 C 304.400 279.740,304.580 279.200,304.800 279.200 C 305.020 279.200,305.200 278.480,305.200 277.600 C 305.200 276.720,305.380 276.000,305.600 276.000 C 305.820 276.000,306.000 275.381,306.000 274.624 C 306.000 273.867,306.180 273.136,306.400 273.000 C 306.620 272.864,306.800 272.144,306.800 271.400 C 306.800 270.656,306.980 269.936,307.200 269.800 C 307.420 269.664,307.600 268.675,307.600 267.602 C 307.600 266.530,307.793 265.145,308.028 264.526 C 308.264 263.907,308.561 261.555,308.688 259.300 C 308.816 257.045,309.073 255.200,309.260 255.200 C 309.447 255.200,309.600 252.860,309.600 250.000 C 309.600 246.800,309.754 244.800,310.000 244.800 C 310.266 244.800,310.400 212.267,310.400 148.000 L 310.400 51.200 275.400 51.200 L 240.400 51.200 240.400 56.881 L 240.400 62.562 238.883 61.081 C 238.049 60.267,237.186 59.600,236.966 59.600 C 236.747 59.600,235.899 58.970,235.082 58.200 C 234.266 57.430,233.329 56.800,232.999 56.800 C 232.670 56.800,232.400 56.620,232.400 56.400 C 232.400 56.180,232.080 56.000,231.688 56.000 C 231.297 56.000,230.717 55.640,230.400 55.200 C 230.083 54.760,229.503 54.400,229.112 54.400 C 228.720 54.400,228.400 54.220,228.400 54.000 C 228.400 53.780,228.040 53.600,227.600 53.600 C 227.160 53.600,226.800 53.420,226.800 53.200 C 226.800 52.980,226.440 52.800,226.000 52.800 C 225.560 52.800,225.200 52.620,225.200 52.400 C 225.200 52.180,224.930 52.000,224.600 52.000 C 224.270 52.000,224.000 51.820,224.000 51.600 C 224.000 51.380,223.640 51.200,223.200 51.200 C 222.760 51.200,222.400 51.020,222.400 50.800 C 222.400 50.580,221.860 50.400,221.200 50.400 C 220.540 50.400,220.000 50.220,220.000 50.000 C 220.000 49.780,219.640 49.600,219.200 49.600 C 218.760 49.600,218.400 49.420,218.400 49.200 C 218.400 48.980,217.860 48.800,217.200 48.800 C 216.540 48.800,216.000 48.620,216.000 48.400 C 216.000 48.180,215.280 48.000,214.400 48.000 C 213.520 48.000,212.800 47.820,212.800 47.600 C 212.800 47.380,212.260 47.200,211.600 47.200 C 210.940 47.200,210.400 47.020,210.400 46.800 C 210.400 46.580,209.601 46.400,208.624 46.400 C 207.647 46.400,206.736 46.220,206.600 46.000 C 206.464 45.780,205.193 45.600,203.776 45.600 C 202.325 45.600,201.200 45.425,201.200 45.200 C 201.200 44.941,196.267 44.800,187.200 44.800 C 178.133 44.800,173.200 44.941,173.200 45.200 M205.200 109.200 C 205.200 109.420,205.920 109.600,206.800 109.600 C 207.680 109.600,208.400 109.780,208.400 110.000 C 208.400 110.220,208.670 110.400,209.000 110.400 C 209.330 110.400,209.600 110.580,209.600 110.800 C 209.600 111.020,210.140 111.200,210.800 111.200 C 211.460 111.200,212.000 111.380,212.000 111.600 C 212.000 111.820,212.540 112.000,213.200 112.000 C 213.860 112.000,214.400 112.180,214.400 112.400 C 214.400 112.620,214.760 112.800,215.200 112.800 C 215.640 112.800,216.000 112.980,216.000 113.200 C 216.000 113.420,216.320 113.600,216.712 113.600 C 217.103 113.600,217.683 113.960,218.000 114.400 C 218.317 114.840,218.857 115.200,219.200 115.200 C 219.543 115.200,220.083 115.560,220.400 116.000 C 220.717 116.440,221.225 116.800,221.528 116.800 C 221.831 116.800,222.583 117.340,223.200 118.000 C 223.817 118.660,224.488 119.200,224.692 119.200 C 225.175 119.200,230.800 124.825,230.800 125.308 C 230.800 125.512,231.340 126.183,232.000 126.800 C 232.660 127.417,233.200 128.209,233.200 128.560 C 233.200 128.912,233.380 129.200,233.600 129.200 C 233.820 129.200,234.000 129.560,234.000 130.000 C 234.000 130.440,234.180 130.800,234.400 130.800 C 234.620 130.800,234.800 131.120,234.800 131.512 C 234.800 131.903,235.160 132.483,235.600 132.800 C 236.040 133.117,236.400 133.697,236.400 134.088 C 236.400 134.480,236.580 134.800,236.800 134.800 C 237.020 134.800,237.200 135.340,237.200 136.000 C 237.200 136.660,237.380 137.200,237.600 137.200 C 237.820 137.200,238.000 137.740,238.000 138.400 C 238.000 139.060,238.180 139.600,238.400 139.600 C 238.620 139.600,238.800 140.050,238.800 140.600 C 238.800 141.150,238.980 141.600,239.200 141.600 C 239.420 141.600,239.600 142.320,239.600 143.200 C 239.600 144.080,239.780 144.800,240.000 144.800 C 240.242 144.800,240.400 146.533,240.400 149.200 C 240.400 151.867,240.242 153.600,240.000 153.600 C 239.780 153.600,239.600 154.320,239.600 155.200 C 239.600 156.080,239.420 156.800,239.200 156.800 C 238.980 156.800,238.800 157.430,238.800 158.200 C 238.800 158.970,238.620 159.600,238.400 159.600 C 238.180 159.600,238.000 159.960,238.000 160.400 C 238.000 160.840,237.820 161.200,237.600 161.200 C 237.380 161.200,237.200 161.560,237.200 162.000 C 237.200 162.440,237.020 162.800,236.800 162.800 C 236.580 162.800,236.400 163.160,236.400 163.600 C 236.400 164.040,236.220 164.400,236.000 164.400 C 235.780 164.400,235.600 164.868,235.600 165.440 C 235.600 166.079,235.138 166.911,234.400 167.600 C 233.740 168.217,233.200 169.009,233.200 169.360 C 233.200 169.712,233.020 170.000,232.800 170.000 C 232.580 170.000,232.400 170.288,232.400 170.640 C 232.400 170.991,231.860 171.783,231.200 172.400 C 230.540 173.017,230.000 173.809,230.000 174.160 C 230.000 174.533,229.666 174.800,229.200 174.800 C 228.760 174.800,228.400 175.016,228.400 175.281 C 228.400 175.840,226.012 178.400,225.490 178.400 C 225.296 178.400,224.446 179.120,223.600 180.000 C 222.754 180.880,221.818 181.600,221.520 181.600 C 221.221 181.600,220.717 181.960,220.400 182.400 C 220.083 182.840,219.543 183.200,219.200 183.200 C 218.857 183.200,218.317 183.560,218.000 184.000 C 217.683 184.440,217.103 184.800,216.712 184.800 C 216.320 184.800,216.000 184.980,216.000 185.200 C 216.000 185.420,215.640 185.600,215.200 185.600 C 214.760 185.600,214.400 185.780,214.400 186.000 C 214.400 186.220,213.860 186.400,213.200 186.400 C 212.540 186.400,212.000 186.580,212.000 186.800 C 212.000 187.020,211.460 187.200,210.800 187.200 C 210.140 187.200,209.600 187.380,209.600 187.600 C 209.600 187.820,209.330 188.000,209.000 188.000 C 208.670 188.000,208.400 188.180,208.400 188.400 C 208.400 188.622,207.333 188.800,206.000 188.800 C 204.667 188.800,203.600 188.978,203.600 189.200 C 203.600 189.440,202.000 189.600,199.600 189.600 C 197.200 189.600,195.600 189.440,195.600 189.200 C 195.600 188.980,194.700 188.800,193.600 188.800 C 192.500 188.800,191.600 188.620,191.600 188.400 C 191.600 188.180,191.150 188.000,190.600 188.000 C 190.050 188.000,189.600 187.820,189.600 187.600 C 189.600 187.380,189.240 187.200,188.800 187.200 C 188.360 187.200,188.000 187.020,188.000 186.800 C 188.000 186.580,187.460 186.400,186.800 186.400 C 186.140 186.400,185.600 186.220,185.600 186.000 C 185.600 185.780,185.240 185.600,184.800 185.600 C 184.360 185.600,184.000 185.420,184.000 185.200 C 184.000 184.980,183.640 184.800,183.200 184.800 C 182.760 184.800,182.400 184.620,182.400 184.400 C 182.400 184.180,182.040 184.000,181.600 184.000 C 181.160 184.000,180.800 183.820,180.800 183.600 C 180.800 183.380,180.516 183.200,180.169 183.200 C 179.821 183.200,178.846 182.480,178.000 181.600 C 177.154 180.720,176.292 180.000,176.083 180.000 C 175.465 180.000,169.200 173.609,169.200 172.979 C 169.200 172.660,168.917 172.400,168.571 172.400 C 167.653 172.400,166.800 171.397,166.800 170.317 C 166.800 169.800,166.440 169.117,166.000 168.800 C 165.560 168.483,165.200 167.903,165.200 167.512 C 165.200 167.120,165.020 166.800,164.800 166.800 C 164.580 166.800,164.400 166.440,164.400 166.000 C 164.400 165.560,164.220 165.200,164.000 165.200 C 163.780 165.200,163.600 164.840,163.600 164.400 C 163.600 163.960,163.420 163.600,163.200 163.600 C 162.980 163.600,162.800 163.240,162.800 162.800 C 162.800 162.360,162.620 162.000,162.400 162.000 C 162.180 162.000,162.000 161.640,162.000 161.200 C 162.000 160.760,161.820 160.400,161.600 160.400 C 161.380 160.400,161.200 159.770,161.200 159.000 C 161.200 158.230,161.020 157.600,160.800 157.600 C 160.580 157.600,160.400 157.060,160.400 156.400 C 160.400 155.740,160.220 155.200,160.000 155.200 C 159.778 155.200,159.600 154.133,159.600 152.800 C 159.600 151.467,159.422 150.400,159.200 150.400 C 158.980 150.400,158.800 149.860,158.800 149.200 C 158.800 148.540,158.980 148.000,159.200 148.000 C 159.422 148.000,159.600 146.933,159.600 145.600 C 159.600 144.267,159.778 143.200,160.000 143.200 C 160.220 143.200,160.400 142.570,160.400 141.800 C 160.400 141.030,160.580 140.400,160.800 140.400 C 161.020 140.400,161.200 139.860,161.200 139.200 C 161.200 138.540,161.380 138.000,161.600 138.000 C 161.820 138.000,162.000 137.640,162.000 137.200 C 162.000 136.760,162.180 136.400,162.400 136.400 C 162.620 136.400,162.800 135.860,162.800 135.200 C 162.800 134.540,162.980 134.000,163.200 134.000 C 163.420 134.000,163.600 133.640,163.600 133.200 C 163.600 132.760,163.780 132.400,164.000 132.400 C 164.220 132.400,164.400 132.080,164.400 131.688 C 164.400 131.297,164.760 130.717,165.200 130.400 C 165.640 130.083,166.000 129.543,166.000 129.200 C 166.000 128.857,166.360 128.317,166.800 128.000 C 167.240 127.683,167.600 127.187,167.600 126.898 C 167.600 126.609,169.124 124.920,170.987 123.144 C 172.849 121.368,174.481 119.574,174.614 119.157 C 174.746 118.741,175.112 118.400,175.427 118.400 C 175.742 118.400,176.000 118.220,176.000 118.000 C 176.000 117.780,176.288 117.600,176.640 117.600 C 176.991 117.600,177.783 117.060,178.400 116.400 C 179.017 115.740,179.809 115.200,180.160 115.200 C 180.512 115.200,180.800 115.020,180.800 114.800 C 180.800 114.580,181.160 114.400,181.600 114.400 C 182.040 114.400,182.400 114.220,182.400 114.000 C 182.400 113.780,182.760 113.600,183.200 113.600 C 183.640 113.600,184.000 113.420,184.000 113.200 C 184.000 112.980,184.360 112.800,184.800 112.800 C 185.240 112.800,185.600 112.620,185.600 112.400 C 185.600 112.180,185.960 112.000,186.400 112.000 C 186.840 112.000,187.200 111.820,187.200 111.600 C 187.200 111.380,187.740 111.200,188.400 111.200 C 189.060 111.200,189.601 111.065,189.603 110.900 C 189.609 110.352,191.737 109.600,193.280 109.600 C 194.116 109.600,194.800 109.420,194.800 109.200 C 194.800 108.954,196.800 108.800,200.000 108.800 C 203.200 108.800,205.200 108.954,205.200 109.200 "
      stroke="#04d47c"
      fill="currentcolor"
      fill-rule="evenodd"
    />
  </g>
</svg>