<svg
  xmlns="http://www.w3.org/2000/svg"
  xmlns:xlink="http://www.w3.org/1999/xlink"
  viewBox="0, 0, 400, 400"
>
  <g>
    <path
      d="M312.500 32.514 C 305.031 37.892,293.996 42.302,268.750 49.998 C 182.740 76.218,160.404 110.687,194.711 164.258 C 199.151 171.192,200.109 171.568,201.905 167.079 C 206.685 155.134,212.771 151.710,236.445 147.649 C 271.186 141.689,287.374 132.513,296.907 113.377 C 303.180 100.786,303.099 95.313,296.699 99.216 C 292.256 101.925,292.041 100.935,295.979 95.898 C 301.002 89.475,304.257 83.570,306.645 76.551 C 310.001 66.682,309.120 64.507,303.304 68.312 C 299.714 70.660,295.239 71.946,296.569 70.247 C 297.045 69.638,299.259 66.855,301.488 64.063 C 306.730 57.495,311.903 48.640,315.264 40.482 C 319.382 30.485,318.570 28.144,312.500 32.514 M105.469 194.165 C 105.469 197.574,105.793 199.363,106.445 199.554 C 106.982 199.711,110.547 200.418,114.366 201.124 C 134.952 204.930,149.194 215.231,154.682 230.281 L 156.464 235.169 199.803 234.967 L 243.142 234.766 244.843 230.069 C 250.302 214.993,268.665 202.686,289.258 200.304 L 293.750 199.785 293.750 194.424 L 293.750 189.063 199.609 189.063 L 105.469 189.063 105.469 194.165 M155.122 243.143 C 153.449 245.531,153.494 245.959,157.078 261.988 C 161.113 280.036,160.665 278.770,163.123 279.053 C 165.124 279.284,165.295 279.644,166.406 285.938 L 167.578 292.578 170.703 292.826 C 175.032 293.169,174.448 290.319,178.620 331.445 L 182.404 368.750 199.796 368.750 C 209.361 368.750,217.188 368.533,217.188 368.267 C 217.188 366.867,224.278 297.659,224.641 295.508 C 225.049 293.101,225.246 292.969,228.451 292.969 C 231.794 292.969,231.837 292.934,232.334 289.826 C 233.829 280.477,234.392 279.010,236.578 278.758 C 238.622 278.521,238.750 278.177,241.935 264.453 C 246.670 244.048,246.358 241.406,239.214 241.406 C 234.609 241.406,234.051 242.672,231.287 259.375 C 228.018 279.130,228.644 277.344,224.985 277.344 C 221.253 277.344,221.353 278.283,223.438 262.891 C 225.993 244.020,225.504 241.406,219.424 241.406 C 214.013 241.406,213.898 241.723,212.546 260.255 L 211.328 276.953 207.999 277.194 L 204.670 277.434 205.176 260.788 C 205.762 241.502,205.630 241.083,199.122 241.553 C 193.991 241.923,193.791 242.749,194.322 261.454 L 194.772 277.344 191.618 277.344 L 188.463 277.344 187.990 272.461 C 187.729 269.775,187.139 262.480,186.678 256.250 C 185.673 242.682,185.106 241.406,180.078 241.406 C 173.907 241.406,173.632 242.577,175.709 260.014 C 176.666 268.041,177.624 275.225,177.839 275.977 C 178.171 277.136,177.688 277.344,174.662 277.344 C 172.699 277.344,171.089 277.080,171.084 276.758 C 171.006 272.224,165.420 244.038,164.370 242.877 C 162.387 240.686,156.730 240.848,155.122 243.143 "
      stroke="#e40404"
      fill="currentcolor"
      fill-rule="evenodd"
    />
  </g>
</svg>