<svg
  xmlns="http://www.w3.org/2000/svg"
  xmlns:xlink="http://www.w3.org/1999/xlink"
  viewBox="0, 0, 400,57.0694087403599"
>
  <g>
    <path
      d="M29.820 0.114 C 22.414 0.839,14.910 3.345,10.404 6.598 C 8.238 8.162,7.423 8.843,6.044 10.239 C -4.753 21.174,-0.930 36.669,14.396 44.093 C 18.816 46.235,23.383 47.541,28.449 48.113 L 31.105 48.414 37.595 52.741 C 41.400 55.279,44.248 57.069,44.480 57.069 C 44.957 57.069,44.976 56.936,45.243 51.842 C 45.488 47.179,45.488 47.178,46.157 47.035 C 57.226 44.671,66.837 36.294,68.379 27.665 C 68.718 25.772,68.524 20.821,68.047 19.195 C 64.437 6.868,47.447 -1.612,29.820 0.114 M182.512 1.090 C 182.461 1.143,181.883 1.261,181.227 1.353 C 178.811 1.693,177.558 2.168,176.139 3.282 C 175.737 3.598,175.257 3.972,175.072 4.113 C 173.528 5.294,170.556 10.077,170.023 12.239 C 169.928 12.624,169.695 13.518,169.506 14.225 C 168.641 17.450,168.026 21.669,167.799 25.935 C 167.646 28.824,167.943 35.322,168.279 36.401 C 168.370 36.693,168.535 37.665,168.645 38.560 C 169.974 49.334,175.474 55.931,183.113 55.914 C 185.077 55.910,185.423 55.855,187.711 55.183 C 188.407 54.979,189.522 54.379,189.803 54.057 C 189.897 53.949,190.329 53.623,190.763 53.332 C 196.404 49.550,199.789 35.393,198.280 21.892 C 197.867 18.199,197.639 16.675,197.443 16.299 C 197.364 16.148,197.046 15.099,196.736 13.967 C 196.088 11.600,194.642 8.057,194.185 7.712 C 194.122 7.665,193.708 7.076,193.265 6.404 C 192.502 5.246,192.170 4.902,190.358 3.395 C 189.409 2.606,187.676 1.714,187.093 1.714 C 186.851 1.714,186.611 1.646,186.560 1.564 C 186.509 1.481,186.022 1.364,185.479 1.302 C 183.194 1.043,182.600 1.000,182.512 1.090 M149.443 1.616 C 147.623 2.135,146.786 2.486,146.363 2.908 C 146.182 3.090,145.808 3.355,145.532 3.497 C 144.609 3.974,142.228 6.555,141.414 7.960 C 140.858 8.920,139.332 12.320,139.332 12.597 C 139.332 12.723,139.263 12.851,139.180 12.882 C 139.097 12.913,138.784 13.808,138.484 14.870 C 136.117 23.258,136.397 37.580,139.067 44.725 C 140.903 49.639,141.815 51.036,144.987 53.798 C 147.375 55.876,152.663 56.577,157.145 55.408 C 160.759 54.466,160.925 54.270,160.925 50.950 C 160.925 47.963,160.909 47.930,159.703 48.476 C 154.307 50.918,149.374 50.490,146.316 47.314 C 144.792 45.731,143.392 43.001,142.744 40.345 C 142.631 39.882,142.480 39.426,142.409 39.332 C 142.011 38.802,141.217 31.513,141.217 28.383 C 141.217 25.683,142.066 18.440,142.414 18.166 C 142.474 18.119,142.665 17.551,142.837 16.903 C 143.471 14.526,144.659 12.043,145.776 10.758 C 147.423 8.865,147.836 8.506,148.929 8.020 C 149.542 7.748,150.224 7.434,150.446 7.323 C 152.121 6.485,157.629 7.712,159.610 9.365 C 160.303 9.942,160.543 9.874,160.754 9.040 C 160.856 8.640,161.171 7.618,161.455 6.769 C 162.302 4.235,162.359 4.495,160.725 3.422 C 157.594 1.367,152.937 0.621,149.443 1.616 M221.251 1.318 C 218.140 1.648,215.663 2.762,213.131 4.968 C 211.825 6.107,208.398 11.372,208.398 12.240 C 208.398 12.365,208.249 12.805,208.067 13.217 C 207.885 13.630,207.607 14.507,207.450 15.167 C 207.292 15.827,207.062 16.598,206.939 16.881 C 205.326 20.580,205.323 37.466,206.934 41.032 C 207.065 41.322,207.222 41.829,207.283 42.159 C 207.688 44.362,209.436 48.458,210.559 49.836 C 210.973 50.344,211.311 50.823,211.311 50.900 C 211.311 51.467,214.936 54.366,216.380 54.954 C 220.611 56.675,227.257 56.175,232.005 53.778 L 233.419 53.065 233.419 40.069 L 233.419 27.074 227.464 27.119 L 221.508 27.164 221.508 30.077 L 221.508 32.991 225.323 33.037 L 229.138 33.083 229.093 40.987 L 229.049 48.892 228.021 49.233 C 227.455 49.421,226.838 49.632,226.650 49.702 C 225.339 50.188,222.754 50.343,220.983 50.041 C 217.649 49.472,215.871 48.372,214.057 45.758 C 213.828 45.428,213.583 45.117,213.512 45.067 C 212.519 44.367,210.454 36.736,210.454 33.766 C 210.454 33.398,210.377 33.049,210.283 32.991 C 210.176 32.925,210.111 31.307,210.111 28.706 C 210.111 26.105,210.176 24.488,210.283 24.422 C 210.377 24.363,210.455 23.992,210.455 23.597 C 210.459 20.330,212.320 14.229,213.973 12.063 C 216.214 9.127,217.360 8.253,220.137 7.359 C 220.973 7.090,224.391 7.081,225.210 7.345 C 227.498 8.083,228.107 8.311,228.771 8.673 C 229.183 8.899,229.623 9.083,229.747 9.083 C 229.872 9.083,230.036 9.187,230.111 9.313 C 230.357 9.726,231.195 10.176,231.378 9.993 C 232.100 9.271,232.923 4.263,232.366 3.979 C 231.853 3.717,231.057 3.244,230.506 2.875 C 228.788 1.723,224.397 0.985,221.251 1.318 M87.061 28.620 L 87.061 55.356 89.203 55.356 L 91.345 55.356 91.345 28.620 L 91.345 1.885 89.203 1.885 L 87.061 1.885 87.061 28.620 M101.879 2.099 C 101.834 2.217,101.817 14.229,101.841 28.792 L 101.885 55.270 103.730 55.319 L 105.574 55.367 105.756 54.890 C 105.933 54.426,105.853 21.638,105.658 14.653 L 105.577 11.740 106.088 13.025 C 106.368 13.732,106.752 14.619,106.940 14.996 C 107.128 15.373,107.864 17.181,108.576 19.015 C 109.287 20.848,109.931 22.429,110.006 22.528 C 110.081 22.627,110.393 23.363,110.699 24.165 C 111.006 24.966,111.521 26.277,111.843 27.078 C 112.166 27.879,112.429 28.606,112.428 28.693 C 112.426 28.781,112.691 29.397,113.016 30.064 C 113.341 30.731,114.182 32.782,114.883 34.621 C 115.585 36.461,116.322 38.278,116.521 38.660 C 116.720 39.041,117.184 40.158,117.552 41.142 C 118.737 44.307,119.604 46.471,119.767 46.674 C 119.855 46.783,120.561 48.522,121.337 50.538 C 122.113 52.555,122.902 54.466,123.090 54.785 L 123.433 55.365 125.684 55.318 L 127.935 55.270 127.978 28.578 L 128.022 1.885 126.033 1.885 L 124.044 1.885 124.104 23.548 C 124.137 35.463,124.108 45.122,124.039 45.014 C 123.969 44.905,123.751 44.334,123.553 43.745 C 123.356 43.156,123.139 42.674,123.071 42.674 C 123.003 42.674,122.850 42.384,122.730 42.031 C 122.194 40.456,120.485 36.092,119.793 34.533 C 119.285 33.389,118.959 32.571,117.811 29.563 C 117.380 28.432,116.813 27.044,116.551 26.478 C 116.290 25.913,115.782 24.679,115.422 23.736 C 115.062 22.793,114.267 20.827,113.655 19.366 C 113.043 17.905,112.330 16.131,112.070 15.424 C 111.402 13.606,110.579 11.569,110.029 10.368 C 109.769 9.803,109.304 8.685,108.995 7.883 C 107.738 4.625,107.411 3.812,106.979 2.871 L 106.527 1.885 104.243 1.885 C 102.574 1.885,101.938 1.943,101.879 2.099 M242.959 1.999 C 242.735 2.223,242.826 54.925,243.051 55.150 C 243.371 55.471,246.514 55.428,246.786 55.099 C 246.993 54.849,246.912 15.872,246.698 12.853 C 246.606 11.554,246.624 11.582,247.730 14.482 C 248.161 15.613,248.781 17.094,249.107 17.773 C 249.433 18.452,249.700 19.050,249.700 19.103 C 249.700 19.289,251.962 25.109,252.100 25.278 C 252.176 25.373,252.522 26.183,252.867 27.078 C 253.212 27.973,253.717 29.246,253.990 29.906 C 254.263 30.566,254.653 31.562,254.859 32.121 C 255.064 32.680,255.376 33.381,255.552 33.679 C 255.728 33.978,256.056 34.755,256.282 35.406 C 256.786 36.860,258.315 40.680,258.686 41.409 C 258.950 41.928,259.994 44.582,261.038 47.386 C 261.319 48.141,261.770 49.220,262.042 49.786 C 262.313 50.351,262.904 51.778,263.355 52.956 C 263.806 54.135,264.254 55.155,264.350 55.224 C 264.607 55.410,268.594 55.378,268.895 55.188 C 269.160 55.020,269.405 4.417,269.148 2.614 L 269.045 1.885 267.205 1.885 C 266.002 1.885,265.293 1.956,265.159 2.091 C 264.891 2.359,264.857 39.166,265.124 39.332 C 265.228 39.396,265.294 40.627,265.290 42.469 C 265.287 44.273,265.225 45.397,265.136 45.244 C 265.054 45.103,264.592 43.946,264.108 42.674 C 263.624 41.401,263.079 40.013,262.896 39.589 C 262.138 37.836,260.668 34.210,259.802 31.962 C 259.294 30.643,258.833 29.524,258.777 29.477 C 258.676 29.393,258.013 27.745,256.472 23.744 C 256.038 22.617,255.623 21.615,255.551 21.516 C 255.399 21.310,254.877 20.006,253.728 16.967 C 253.283 15.788,252.703 14.362,252.440 13.796 C 252.177 13.231,251.637 11.919,251.241 10.883 C 250.844 9.846,250.137 8.072,249.670 6.941 C 249.203 5.810,248.546 4.210,248.210 3.385 L 247.600 1.885 245.336 1.885 C 244.092 1.885,243.022 1.937,242.959 1.999 M279.520 28.620 L 279.520 55.356 281.662 55.356 L 283.805 55.356 283.805 28.620 L 283.805 1.885 281.662 1.885 L 279.520 1.885 279.520 28.620 M290.260 1.999 C 289.943 2.317,290.141 7.526,290.477 7.706 C 290.683 7.816,292.657 7.883,295.704 7.883 L 300.599 7.883 300.642 31.577 L 300.686 55.270 302.399 55.320 C 303.342 55.348,304.287 55.327,304.499 55.274 L 304.884 55.178 304.884 31.531 L 304.884 7.883 309.842 7.883 C 314.121 7.883,314.837 7.847,315.069 7.614 C 315.347 7.336,315.473 3.175,315.230 2.271 L 315.127 1.885 302.751 1.885 C 295.944 1.885,290.323 1.937,290.260 1.999 M321.680 28.619 L 321.680 55.356 331.001 55.356 C 339.344 55.356,340.334 55.327,340.427 55.085 C 340.484 54.935,340.531 53.708,340.531 52.356 C 340.531 51.005,340.484 49.778,340.427 49.628 C 340.335 49.387,339.525 49.357,333.058 49.357 L 325.793 49.357 325.793 39.848 L 325.793 30.338 332.691 30.293 L 339.589 30.249 339.589 27.421 L 339.589 24.593 332.691 24.548 L 325.793 24.503 325.793 16.193 L 325.793 7.883 332.970 7.883 C 338.872 7.883,340.181 7.841,340.343 7.646 C 340.478 7.484,340.525 6.550,340.493 4.690 L 340.446 1.971 331.063 1.927 L 321.680 1.882 321.680 28.619 M345.673 2.279 C 345.673 2.496,345.740 2.747,345.822 2.836 C 345.904 2.926,346.295 3.847,346.691 4.884 C 347.856 7.935,348.965 10.698,349.100 10.883 C 349.169 10.977,349.475 11.710,349.780 12.511 C 350.720 14.981,352.148 18.568,352.406 19.109 C 352.750 19.829,353.575 21.887,354.332 23.907 C 354.685 24.850,355.163 26.029,355.395 26.528 C 355.790 27.378,355.800 27.470,355.557 27.985 C 355.415 28.287,354.667 30.193,353.895 32.219 C 353.124 34.246,352.424 35.988,352.340 36.091 C 352.185 36.283,351.401 38.281,350.397 41.045 C 350.089 41.894,349.638 43.012,349.395 43.530 C 348.912 44.559,348.752 44.962,347.114 49.258 C 346.506 50.853,345.944 52.241,345.865 52.343 C 345.424 52.912,344.780 55.056,345.008 55.201 C 345.294 55.382,348.934 55.402,349.211 55.224 C 349.388 55.111,350.181 53.137,351.707 49.015 C 352.003 48.213,352.305 47.478,352.377 47.380 C 352.510 47.201,353.672 44.142,354.621 41.474 C 354.906 40.673,355.289 39.720,355.474 39.357 C 355.792 38.730,357.084 35.406,357.767 33.455 L 358.085 32.549 358.567 33.541 C 359.076 34.587,359.392 35.394,360.329 38.046 C 361.270 40.707,361.775 42.014,362.283 43.102 C 362.547 43.668,362.860 44.439,362.980 44.816 C 363.314 45.871,364.861 50.045,365.203 50.814 C 365.495 51.473,366.449 53.907,366.797 54.884 L 366.965 55.356 369.178 55.356 C 371.568 55.356,371.808 55.258,371.417 54.444 C 371.318 54.239,370.718 52.682,370.085 50.985 C 369.451 49.289,368.851 47.746,368.750 47.558 C 368.500 47.089,367.444 44.502,367.441 44.350 C 367.436 44.152,365.537 39.349,365.389 39.160 C 365.315 39.066,364.852 37.909,364.360 36.590 C 363.145 33.325,362.280 31.140,362.124 30.934 C 362.052 30.840,361.709 30.000,361.362 29.068 L 360.730 27.372 361.114 26.325 C 361.325 25.750,361.680 24.893,361.903 24.422 C 362.346 23.484,363.410 20.852,364.536 17.909 C 364.933 16.872,365.324 15.939,365.406 15.834 C 365.543 15.659,366.049 14.377,367.792 9.785 C 368.164 8.804,368.535 7.917,368.616 7.814 C 368.908 7.443,370.522 3.237,370.629 2.569 L 370.738 1.885 368.587 1.885 L 366.436 1.885 366.231 2.528 C 366.118 2.881,365.765 3.727,365.447 4.408 C 365.128 5.089,364.867 5.692,364.867 5.749 C 364.867 5.806,364.567 6.637,364.201 7.596 C 363.834 8.556,363.243 10.111,362.888 11.054 C 362.533 11.997,362.143 12.922,362.022 13.111 C 361.901 13.299,361.578 14.070,361.306 14.824 C 360.237 17.775,359.038 20.855,358.705 21.502 C 358.512 21.875,358.352 22.299,358.350 22.444 C 358.347 22.589,357.781 21.203,357.092 19.365 C 356.403 17.526,355.751 15.868,355.644 15.680 C 355.413 15.273,354.678 13.459,354.499 12.853 C 354.260 12.041,352.689 7.968,352.446 7.528 C 352.312 7.286,351.849 6.129,351.417 4.958 C 350.986 3.786,350.548 2.616,350.445 2.356 L 350.258 1.885 347.965 1.885 C 345.687 1.885,345.673 1.888,345.673 2.279 M373.712 2.155 C 373.577 2.507,373.580 6.992,373.716 7.498 L 373.819 7.883 378.940 7.883 L 384.060 7.883 384.104 31.577 L 384.147 55.270 385.861 55.320 C 386.804 55.348,387.749 55.327,387.961 55.274 L 388.346 55.178 388.346 31.531 L 388.346 7.883 393.484 7.883 L 398.622 7.883 398.718 7.498 C 398.770 7.286,398.791 5.955,398.764 4.542 L 398.715 1.971 386.266 1.927 C 375.024 1.887,373.806 1.909,373.712 2.155 M40.544 3.160 C 43.417 3.560,47.910 4.644,49.443 5.307 C 49.632 5.388,50.447 5.730,51.255 6.067 C 63.466 11.153,69.273 21.483,64.946 30.427 C 61.806 36.919,54.025 42.322,44.709 44.480 L 43.402 44.783 43.299 46.170 C 43.242 46.933,43.145 48.599,43.082 49.871 C 43.019 51.144,42.917 52.326,42.855 52.498 C 42.758 52.766,41.959 52.291,37.352 49.228 L 31.962 45.644 29.820 45.435 C 26.611 45.121,20.225 43.734,19.452 43.183 C 19.357 43.116,18.972 42.964,18.595 42.845 C 12.633 40.968,6.207 35.657,3.766 30.591 C -3.594 15.318,17.088 -0.108,40.544 3.160 M185.093 7.183 C 189.158 7.849,192.101 11.982,193.218 18.595 C 194.614 26.851,194.200 36.365,192.179 42.480 C 191.344 45.003,191.090 45.425,188.784 48.119 C 187.599 49.502,184.099 50.482,181.891 50.048 C 180.494 49.774,178.920 49.204,178.920 48.973 C 178.920 48.901,178.844 48.843,178.751 48.843 C 178.523 48.843,177.221 47.934,177.213 47.770 C 177.209 47.698,176.879 47.235,176.478 46.741 C 173.627 43.228,172.506 38.063,172.507 28.449 C 172.509 21.358,172.937 17.905,174.252 14.396 C 174.522 13.676,175.959 10.988,176.175 10.797 C 176.229 10.750,176.539 10.364,176.863 9.940 C 178.626 7.639,181.663 6.622,185.093 7.183 M24.734 8.144 C 23.550 8.854,22.689 11.186,20.563 19.452 C 20.062 21.397,20.099 21.356,18.628 21.593 C 12.044 22.654,9.884 24.394,13.130 26.022 C 18.511 28.721,41.505 29.284,51.928 26.971 C 58.869 25.431,57.772 22.918,49.581 21.594 C 48.000 21.339,48.250 21.831,46.542 15.597 C 44.261 7.273,43.665 6.682,39.246 8.364 C 34.702 10.094,33.564 10.107,29.171 8.483 C 26.694 7.567,25.810 7.499,24.734 8.144 M19.109 29.834 C 18.188 30.371,18.080 31.649,18.779 33.732 C 20.075 37.594,21.770 39.042,26.359 40.206 C 29.292 40.950,30.343 40.781,32.897 39.155 C 34.175 38.342,34.981 38.419,36.380 39.486 C 39.510 41.873,46.632 39.962,48.640 36.196 C 50.122 33.414,50.534 31.055,49.694 30.156 L 49.173 29.599 47.766 29.703 C 46.992 29.761,45.317 29.905,44.045 30.023 C 41.033 30.302,27.291 30.308,24.250 30.031 C 20.061 29.649,19.466 29.626,19.109 29.834 M29.724 33.977 C 30.668 34.313,30.835 34.641,30.438 35.378 C 29.359 37.382,23.993 36.508,23.993 34.328 C 23.993 33.599,27.975 33.355,29.724 33.977 M43.745 33.771 C 45.611 34.289,43.309 36.326,40.703 36.464 C 38.688 36.570,37.083 35.335,38.019 34.399 C 38.689 33.729,42.205 33.343,43.745 33.771 "
      stroke="none"
      fill="currentcolor"
      fill-rule="evenodd"
    />
  </g>
</svg>