<svg
  xmlns="http://www.w3.org/2000/svg"
  xmlns:xlink="http://www.w3.org/1999/xlink"
  viewBox="0, 0, 400, 400"
  version="1.1"
>
  <g>
    <path d="M82.031 87.846 L 82.031 106.161 153.711 106.456 C 238.252 106.803,239.369 106.925,257.723 117.759 C 300.668 143.108,298.356 215.571,253.906 237.367 C 237.411 245.456,228.320 246.875,193.000 246.875 L 168.750 246.875 168.750 266.797 L 168.750 286.719 194.027 286.719 C 238.423 286.719,255.186 284.019,275.301 273.630 C 309.539 255.947,327.555 222.830,327.684 177.344 C 327.858 116.278,295.685 78.504,236.825 70.668 C 230.169 69.782,213.945 69.559,155.273 69.547 L 82.031 69.531 82.031 87.846 M116.406 159.464 C 105.413 161.224,92.204 171.157,87.168 181.452 C 82.715 190.553,82.832 188.363,82.822 262.695 L 82.813 331.250 101.519 331.250 L 120.225 331.250 120.510 270.898 C 120.821 205.038,120.691 206.883,125.377 201.914 C 130.095 196.912,130.539 196.875,186.079 196.875 L 235.938 196.875 235.938 177.734 L 235.938 158.594 178.320 158.685 C 146.631 158.735,118.770 159.086,116.406 159.464 "
      stroke="#bc1c2c"
      fill="currentcolor"
      fill-rule="evenodd"
    />
  </g>
</svg>