<svg
  xmlns="http://www.w3.org/2000/svg"
  xmlns:xlink="http://www.w3.org/1999/xlink"
  viewBox="0, 0, 400,400"
  version="1.1"
>
  <g>
    <path
      d="M265.600 37.600 C 265.600 37.822,264.541 38.000,263.224 38.000 C 261.917 38.000,260.736 38.180,260.600 38.400 C 260.464 38.620,259.733 38.800,258.976 38.800 C 258.219 38.800,257.600 38.980,257.600 39.200 C 257.600 39.420,256.880 39.600,256.000 39.600 C 255.120 39.600,254.400 39.780,254.400 40.000 C 254.400 40.220,253.680 40.400,252.800 40.400 C 251.920 40.400,251.200 40.580,251.200 40.800 C 251.200 41.020,250.761 41.200,250.224 41.200 C 249.687 41.200,249.149 41.360,249.028 41.555 C 248.907 41.750,248.145 42.034,247.333 42.186 C 245.695 42.493,242.275 43.984,242.067 44.481 C 241.993 44.657,241.588 44.800,241.167 44.800 C 240.745 44.800,240.400 44.980,240.400 45.200 C 240.400 45.420,240.166 45.600,239.880 45.600 C 239.144 45.600,237.207 46.541,237.203 46.900 C 237.201 47.065,236.840 47.200,236.400 47.200 C 235.960 47.200,235.600 47.380,235.600 47.600 C 235.600 47.820,235.280 48.000,234.888 48.000 C 234.497 48.000,233.917 48.360,233.600 48.800 C 233.283 49.240,232.703 49.600,232.312 49.600 C 231.920 49.600,231.600 49.780,231.600 50.000 C 231.600 50.220,231.357 50.400,231.059 50.400 C 230.762 50.400,229.954 50.940,229.263 51.600 C 228.572 52.260,227.906 52.800,227.782 52.800 C 227.658 52.800,226.981 53.339,226.278 53.998 C 225.575 54.657,224.861 55.197,224.691 55.198 C 224.102 55.202,212.800 66.254,212.800 66.826 C 212.800 67.036,212.260 67.772,211.600 68.463 C 210.940 69.154,210.400 69.880,210.400 70.077 C 210.400 70.274,209.950 70.920,209.400 71.513 C 208.850 72.107,208.400 72.843,208.400 73.149 C 208.400 73.455,208.084 73.997,207.697 74.353 C 207.311 74.709,206.726 75.540,206.397 76.200 C 206.069 76.860,205.485 77.749,205.100 78.175 C 204.715 78.602,204.400 79.187,204.400 79.475 C 204.400 79.764,204.220 80.000,204.000 80.000 C 203.780 80.000,203.600 80.360,203.600 80.800 C 203.600 81.240,203.420 81.600,203.200 81.600 C 202.980 81.600,202.800 81.960,202.800 82.400 C 202.800 82.840,202.620 83.200,202.400 83.200 C 202.180 83.200,202.000 83.560,202.000 84.000 C 202.000 84.440,201.820 84.800,201.600 84.800 C 201.380 84.800,201.200 85.149,201.200 85.576 C 201.200 86.003,201.020 86.464,200.800 86.600 C 200.580 86.736,200.400 87.287,200.400 87.824 C 200.400 88.361,200.220 88.800,200.000 88.800 C 199.780 88.800,199.600 89.340,199.600 90.000 C 199.600 90.660,199.420 91.200,199.200 91.200 C 198.980 91.200,198.800 91.650,198.800 92.200 C 198.800 92.750,198.620 93.200,198.400 93.200 C 198.180 93.200,198.000 93.740,198.000 94.400 C 198.000 95.060,197.820 95.600,197.600 95.600 C 197.380 95.600,197.200 96.320,197.200 97.200 C 197.200 98.080,197.040 98.800,196.844 98.800 C 196.480 98.800,196.122 100.389,195.761 103.600 C 195.649 104.590,195.394 105.760,195.194 106.200 C 194.024 108.766,194.055 132.577,195.229 133.780 C 195.433 133.989,195.600 134.844,195.600 135.680 L 195.600 137.200 191.824 137.200 C 189.737 137.200,187.937 137.021,187.800 136.800 C 187.664 136.580,186.044 136.400,184.200 136.400 C 182.356 136.400,180.736 136.220,180.600 136.000 C 180.464 135.780,179.013 135.600,177.376 135.600 C 175.659 135.600,174.400 135.431,174.400 135.200 C 174.400 134.980,173.421 134.800,172.224 134.800 C 171.027 134.800,169.936 134.620,169.800 134.400 C 169.664 134.180,168.573 134.000,167.376 134.000 C 166.179 134.000,165.200 133.820,165.200 133.600 C 165.200 133.380,164.300 133.200,163.200 133.200 C 162.100 133.200,161.200 133.020,161.200 132.800 C 161.200 132.580,160.401 132.400,159.424 132.400 C 158.447 132.400,157.536 132.220,157.400 132.000 C 157.264 131.780,156.533 131.600,155.776 131.600 C 155.019 131.600,154.400 131.420,154.400 131.200 C 154.400 130.980,153.680 130.800,152.800 130.800 C 151.920 130.800,151.200 130.620,151.200 130.400 C 151.200 130.180,150.480 130.000,149.600 130.000 C 148.720 130.000,148.000 129.820,148.000 129.600 C 148.000 129.380,147.460 129.200,146.800 129.200 C 146.140 129.200,145.600 129.020,145.600 128.800 C 145.600 128.580,145.208 128.400,144.728 128.400 C 143.924 128.400,142.160 127.927,140.200 127.187 C 137.995 126.354,132.447 124.800,131.676 124.800 C 131.194 124.800,130.800 124.620,130.800 124.400 C 130.800 124.180,130.260 124.000,129.600 124.000 C 128.940 124.000,128.400 123.820,128.400 123.600 C 128.400 123.380,128.040 123.200,127.600 123.200 C 127.160 123.200,126.800 123.020,126.800 122.800 C 126.800 122.580,126.260 122.400,125.600 122.400 C 124.940 122.400,124.400 122.220,124.400 122.000 C 124.400 121.780,124.051 121.600,123.624 121.600 C 123.197 121.600,122.736 121.420,122.600 121.200 C 122.464 120.980,122.003 120.800,121.576 120.800 C 121.149 120.800,120.800 120.620,120.800 120.400 C 120.800 120.180,120.440 120.000,120.000 120.000 C 119.560 120.000,119.200 119.820,119.200 119.600 C 119.200 119.380,118.660 119.200,118.000 119.200 C 117.340 119.200,116.800 119.020,116.800 118.800 C 116.800 118.580,116.440 118.400,116.000 118.400 C 115.560 118.400,115.200 118.220,115.200 118.000 C 115.200 117.780,114.840 117.600,114.400 117.600 C 113.960 117.600,113.600 117.420,113.600 117.200 C 113.600 116.980,113.364 116.800,113.075 116.800 C 112.786 116.800,111.805 116.440,110.894 116.000 C 109.984 115.560,109.050 115.200,108.819 115.200 C 108.589 115.200,108.400 115.020,108.400 114.800 C 108.400 114.580,108.040 114.400,107.600 114.400 C 107.160 114.400,106.800 114.220,106.800 114.000 C 106.800 113.780,106.440 113.600,106.000 113.600 C 105.560 113.600,105.200 113.420,105.200 113.200 C 105.200 112.980,104.840 112.800,104.400 112.800 C 103.960 112.800,103.600 112.620,103.600 112.400 C 103.600 112.180,103.255 112.000,102.833 112.000 C 102.412 112.000,102.007 111.861,101.933 111.691 C 101.730 111.218,96.171 108.400,95.442 108.400 C 95.089 108.400,94.800 108.220,94.800 108.000 C 94.800 107.780,94.506 107.600,94.147 107.600 C 93.788 107.600,93.203 107.284,92.847 106.897 C 92.491 106.511,91.660 105.926,91.000 105.597 C 90.340 105.269,89.451 104.685,89.025 104.300 C 88.598 103.915,88.013 103.600,87.725 103.600 C 87.436 103.600,87.200 103.420,87.200 103.200 C 87.200 102.980,86.964 102.800,86.675 102.800 C 86.387 102.800,85.764 102.440,85.292 102.000 C 84.820 101.560,84.156 101.200,83.817 101.200 C 83.478 101.200,83.200 101.050,83.200 100.868 C 83.200 100.685,82.705 100.281,82.100 99.970 C 81.495 99.660,80.709 99.089,80.353 98.703 C 79.997 98.316,79.452 98.000,79.141 98.000 C 78.831 98.000,78.317 97.640,78.000 97.200 C 77.683 96.760,77.169 96.400,76.859 96.400 C 76.548 96.400,76.003 96.082,75.647 95.693 C 75.291 95.304,73.920 94.269,72.600 93.393 C 71.280 92.517,69.909 91.485,69.553 91.100 C 69.197 90.715,68.740 90.400,68.537 90.400 C 68.334 90.400,67.372 89.680,66.400 88.800 C 65.428 87.920,64.476 87.200,64.285 87.200 C 64.094 87.200,63.246 86.480,62.400 85.600 C 61.554 84.720,60.676 84.000,60.448 84.000 C 60.220 84.000,59.072 83.055,57.897 81.900 C 56.722 80.745,54.525 78.720,53.014 77.400 C 49.057 73.943,34.800 59.502,34.800 58.952 C 34.800 58.840,33.900 57.871,32.800 56.800 C 31.700 55.729,30.800 54.705,30.800 54.526 C 30.798 53.714,28.831 52.000,27.900 52.000 C 26.900 52.000,24.800 55.394,24.800 57.011 C 24.800 57.335,24.620 57.600,24.400 57.600 C 24.180 57.600,24.000 57.960,24.000 58.400 C 24.000 58.840,23.865 59.201,23.700 59.203 C 23.294 59.207,22.400 61.186,22.400 62.080 C 22.400 62.476,22.220 62.800,22.000 62.800 C 21.780 62.800,21.600 63.340,21.600 64.000 C 21.600 64.660,21.420 65.200,21.200 65.200 C 20.980 65.200,20.800 65.650,20.800 66.200 C 20.800 66.750,20.620 67.200,20.400 67.200 C 20.180 67.200,20.000 67.650,20.000 68.200 C 20.000 68.750,19.820 69.200,19.600 69.200 C 19.380 69.200,19.200 69.729,19.200 70.376 C 19.200 71.023,19.020 71.664,18.800 71.800 C 18.580 71.936,18.400 72.847,18.400 73.824 C 18.400 74.801,18.220 75.600,18.000 75.600 C 17.780 75.600,17.600 76.399,17.600 77.376 C 17.600 78.353,17.420 79.264,17.200 79.400 C 16.980 79.536,16.800 80.886,16.800 82.400 C 16.800 83.914,16.620 85.264,16.400 85.400 C 15.859 85.734,15.859 102.666,16.400 103.000 C 16.620 103.136,16.800 104.306,16.800 105.600 C 16.800 106.894,16.980 108.064,17.200 108.200 C 17.420 108.336,17.600 109.247,17.600 110.224 C 17.600 111.201,17.780 112.000,18.000 112.000 C 18.220 112.000,18.400 112.900,18.400 114.000 C 18.400 115.100,18.580 116.000,18.800 116.000 C 19.020 116.000,19.200 116.540,19.200 117.200 C 19.200 117.860,19.380 118.400,19.600 118.400 C 19.820 118.400,20.000 118.940,20.000 119.600 C 20.000 120.260,20.180 120.800,20.400 120.800 C 20.620 120.800,20.800 121.340,20.800 122.000 C 20.800 122.660,20.980 123.200,21.200 123.200 C 21.420 123.200,21.600 123.650,21.600 124.200 C 21.600 124.750,21.780 125.200,22.000 125.200 C 22.220 125.200,22.400 125.560,22.400 126.000 C 22.400 126.440,22.580 126.800,22.800 126.800 C 23.020 126.800,23.200 127.160,23.200 127.600 C 23.200 128.040,23.380 128.400,23.600 128.400 C 23.820 128.400,24.000 128.760,24.000 129.200 C 24.000 129.640,24.180 130.000,24.400 130.000 C 24.620 130.000,24.800 130.302,24.800 130.670 C 24.800 131.568,27.601 137.200,28.048 137.200 C 28.241 137.200,28.400 137.393,28.400 137.628 C 28.400 137.863,28.940 138.841,29.600 139.800 C 30.260 140.759,30.800 141.661,30.800 141.803 C 30.800 141.946,31.520 142.754,32.400 143.600 C 33.280 144.446,34.000 145.346,34.000 145.600 C 34.000 145.854,34.720 146.754,35.600 147.600 C 36.480 148.446,37.200 149.319,37.200 149.542 C 37.200 149.764,38.047 150.633,39.082 151.473 C 40.117 152.313,42.115 154.209,43.523 155.686 C 44.931 157.163,46.454 158.490,46.907 158.634 C 47.361 158.778,48.116 159.279,48.584 159.748 L 49.436 160.600 46.218 160.480 C 44.448 160.414,42.640 160.200,42.200 160.005 C 41.760 159.809,40.770 159.553,40.000 159.435 C 39.230 159.317,37.205 159.006,35.500 158.745 C 33.795 158.483,32.400 158.119,32.400 157.935 C 32.400 157.751,31.860 157.600,31.200 157.600 C 30.540 157.600,30.000 157.420,30.000 157.200 C 30.000 156.980,29.638 156.800,29.195 156.800 C 28.752 156.800,28.032 156.620,27.595 156.400 C 27.158 156.180,26.442 155.820,26.005 155.600 C 25.568 155.380,24.938 155.200,24.605 155.200 C 24.272 155.200,24.000 155.020,24.000 154.800 C 24.000 154.580,23.640 154.400,23.200 154.400 C 22.760 154.400,22.400 154.220,22.400 154.000 C 22.400 153.780,22.040 153.600,21.600 153.600 C 21.160 153.600,20.800 153.420,20.800 153.200 C 20.800 152.980,20.440 152.800,20.000 152.800 C 19.560 152.800,19.200 152.620,19.200 152.400 C 19.200 152.180,18.840 152.000,18.400 152.000 C 17.960 152.000,17.600 151.820,17.600 151.600 C 17.600 151.380,17.060 151.200,16.400 151.200 L 15.200 151.200 15.200 156.200 C 15.200 159.267,15.355 161.200,15.600 161.200 C 15.828 161.200,16.000 162.392,16.000 163.976 C 16.000 165.503,16.180 166.864,16.400 167.000 C 16.620 167.136,16.800 168.047,16.800 169.024 C 16.800 170.001,16.980 170.800,17.200 170.800 C 17.420 170.800,17.600 171.610,17.600 172.600 C 17.600 173.590,17.780 174.400,18.000 174.400 C 18.220 174.400,18.400 174.940,18.400 175.600 C 18.400 176.260,18.580 176.800,18.800 176.800 C 19.020 176.800,19.200 177.340,19.200 178.000 C 19.200 178.660,19.380 179.200,19.600 179.200 C 19.820 179.200,20.000 179.740,20.000 180.400 C 20.000 181.060,20.180 181.600,20.400 181.600 C 20.620 181.600,20.800 182.140,20.800 182.800 C 20.800 183.460,20.980 184.000,21.200 184.000 C 21.420 184.000,21.600 184.360,21.600 184.800 C 21.600 185.240,21.780 185.600,22.000 185.600 C 22.220 185.600,22.400 185.943,22.400 186.362 C 22.400 187.178,24.001 190.512,24.500 190.733 C 24.665 190.807,24.800 191.190,24.800 191.584 C 24.800 191.979,25.070 192.526,25.400 192.800 C 25.730 193.074,26.000 193.636,26.000 194.049 C 26.000 194.462,26.180 194.800,26.400 194.800 C 26.620 194.800,26.800 195.036,26.800 195.325 C 26.800 195.613,27.160 196.236,27.600 196.708 C 28.040 197.180,28.400 197.844,28.400 198.183 C 28.400 198.522,28.550 198.800,28.732 198.800 C 28.915 198.800,29.319 199.295,29.630 199.900 C 29.940 200.505,30.511 201.291,30.897 201.647 C 31.284 202.003,31.600 202.498,31.600 202.747 C 31.600 202.996,31.780 203.200,32.000 203.200 C 32.220 203.200,32.400 203.398,32.400 203.640 C 32.400 203.881,32.940 204.583,33.600 205.200 C 34.260 205.817,34.800 206.425,34.800 206.552 C 34.800 206.857,43.864 216.000,44.166 216.000 C 44.294 216.000,45.141 216.720,46.048 217.600 C 46.955 218.480,47.856 219.200,48.052 219.200 C 48.247 219.200,48.972 219.740,49.663 220.400 C 50.354 221.060,51.162 221.600,51.459 221.600 C 51.757 221.600,52.000 221.768,52.000 221.973 C 52.000 222.178,52.359 222.460,52.798 222.599 C 53.236 222.738,53.825 223.066,54.105 223.326 C 54.944 224.106,57.079 225.200,57.762 225.200 C 58.113 225.200,58.400 225.380,58.400 225.600 C 58.400 225.820,58.670 226.000,59.000 226.000 C 59.330 226.000,59.600 226.180,59.600 226.400 C 59.600 226.620,59.960 226.800,60.400 226.800 C 60.840 226.800,61.200 226.980,61.200 227.200 C 61.200 227.420,61.560 227.600,62.000 227.600 C 62.440 227.600,62.800 227.780,62.800 228.000 C 62.800 228.220,63.160 228.400,63.600 228.400 C 64.040 228.400,64.400 228.580,64.400 228.800 C 64.400 229.020,64.850 229.200,65.400 229.200 C 65.950 229.200,66.400 229.380,66.400 229.600 C 66.400 229.820,66.850 230.000,67.400 230.000 C 67.950 230.000,68.400 230.180,68.400 230.400 C 68.400 230.620,68.940 230.800,69.600 230.800 C 70.260 230.800,70.800 230.980,70.800 231.200 C 70.800 231.420,71.340 231.600,72.000 231.600 C 72.660 231.600,73.200 231.780,73.200 232.000 C 73.200 232.220,73.663 232.400,74.229 232.400 C 75.155 232.400,76.400 233.186,76.400 233.771 C 76.400 233.897,75.500 234.000,74.400 234.000 C 73.300 234.000,72.400 234.180,72.400 234.400 C 72.400 234.643,70.608 234.800,67.824 234.800 C 65.204 234.800,63.142 234.971,63.000 235.200 C 62.864 235.421,61.070 235.600,59.000 235.600 C 56.930 235.600,55.136 235.421,55.000 235.200 C 54.864 234.980,53.233 234.800,51.376 234.800 C 49.392 234.800,48.000 234.635,48.000 234.400 C 48.000 234.180,47.100 234.000,46.000 234.000 C 43.878 234.000,43.314 235.063,44.353 237.105 C 44.548 237.487,44.890 238.250,45.113 238.800 C 45.337 239.350,45.898 240.653,46.360 241.696 C 46.822 242.738,47.200 243.863,47.200 244.196 C 47.200 244.528,47.380 244.800,47.600 244.800 C 47.820 244.800,48.000 245.160,48.000 245.600 C 48.000 246.040,48.180 246.400,48.400 246.400 C 48.620 246.400,48.800 246.745,48.800 247.167 C 48.800 247.588,48.935 247.993,49.100 248.067 C 49.476 248.234,50.775 250.364,51.071 251.300 C 51.193 251.685,51.452 252.000,51.647 252.000 C 51.841 252.000,52.000 252.320,52.000 252.712 C 52.000 253.103,52.360 253.683,52.800 254.000 C 53.240 254.317,53.600 254.857,53.600 255.200 C 53.600 255.543,53.960 256.083,54.400 256.400 C 54.840 256.717,55.200 257.162,55.200 257.390 C 55.200 257.617,55.740 258.312,56.400 258.935 C 57.060 259.558,57.600 260.240,57.600 260.451 C 57.600 260.839,57.955 261.326,59.400 262.922 C 59.840 263.408,60.737 264.524,61.394 265.403 C 62.657 267.093,67.600 272.000,68.039 272.000 C 68.182 272.000,69.070 272.705,70.012 273.566 C 70.954 274.427,72.192 275.371,72.762 275.663 C 73.333 275.955,74.091 276.511,74.447 276.897 C 74.803 277.284,75.298 277.600,75.547 277.600 C 75.796 277.600,76.000 277.750,76.000 277.932 C 76.000 278.115,76.495 278.520,77.100 278.832 C 77.705 279.145,78.549 279.715,78.975 280.100 C 79.402 280.485,79.987 280.800,80.275 280.800 C 80.564 280.800,80.800 280.980,80.800 281.200 C 80.800 281.420,81.160 281.600,81.600 281.600 C 82.040 281.600,82.400 281.761,82.400 281.958 C 82.400 282.155,83.615 282.882,85.100 283.574 C 86.585 284.266,88.113 285.005,88.495 285.216 C 88.877 285.427,89.462 285.600,89.795 285.600 C 90.128 285.600,90.400 285.780,90.400 286.000 C 90.400 286.220,90.760 286.400,91.200 286.400 C 91.640 286.400,92.000 286.580,92.000 286.800 C 92.000 287.020,92.439 287.200,92.976 287.200 C 93.513 287.200,94.064 287.380,94.200 287.600 C 94.336 287.820,94.887 288.000,95.424 288.000 C 95.961 288.000,96.400 288.180,96.400 288.400 C 96.400 288.620,96.852 288.800,97.405 288.800 C 97.958 288.800,98.723 288.958,99.105 289.151 C 100.327 289.768,102.626 290.400,103.648 290.400 C 104.194 290.400,104.819 290.579,105.039 290.799 C 105.258 291.018,107.364 291.316,109.719 291.460 C 112.073 291.604,114.000 291.874,114.000 292.061 C 114.000 292.247,114.990 292.400,116.200 292.400 C 117.410 292.400,118.400 292.580,118.400 292.800 C 118.400 293.020,118.164 293.200,117.875 293.200 C 117.587 293.200,116.964 293.560,116.492 294.000 C 116.020 294.440,115.473 294.800,115.276 294.800 C 115.079 294.800,114.394 295.295,113.752 295.900 C 113.111 296.505,112.094 297.255,111.493 297.568 C 110.892 297.880,110.400 298.285,110.400 298.468 C 110.400 298.650,110.170 298.800,109.888 298.800 C 109.607 298.800,109.117 299.160,108.800 299.600 C 108.483 300.040,107.903 300.400,107.512 300.400 C 107.120 300.400,106.800 300.580,106.800 300.800 C 106.800 301.020,106.480 301.200,106.088 301.200 C 105.697 301.200,105.117 301.560,104.800 302.000 C 104.483 302.440,103.903 302.800,103.512 302.800 C 103.120 302.800,102.800 302.980,102.800 303.200 C 102.800 303.420,102.480 303.600,102.088 303.600 C 101.697 303.600,101.117 303.960,100.800 304.400 C 100.483 304.840,99.903 305.200,99.512 305.200 C 99.120 305.200,98.800 305.380,98.800 305.600 C 98.800 305.820,98.440 306.000,98.000 306.000 C 97.560 306.000,97.200 306.180,97.200 306.400 C 97.200 306.620,96.840 306.800,96.400 306.800 C 95.960 306.800,95.600 306.980,95.600 307.200 C 95.600 307.420,95.240 307.600,94.800 307.600 C 94.360 307.600,94.000 307.780,94.000 308.000 C 94.000 308.220,93.819 308.400,93.598 308.400 C 93.377 308.400,92.263 308.850,91.123 309.400 C 89.983 309.950,88.814 310.400,88.525 310.400 C 88.236 310.400,88.000 310.580,88.000 310.800 C 88.000 311.020,87.640 311.200,87.200 311.200 C 86.760 311.200,86.400 311.380,86.400 311.600 C 86.400 311.820,86.040 312.000,85.600 312.000 C 85.160 312.000,84.800 312.180,84.800 312.400 C 84.800 312.620,84.260 312.800,83.600 312.800 C 82.940 312.800,82.400 312.980,82.400 313.200 C 82.400 313.420,82.040 313.600,81.600 313.600 C 81.160 313.600,80.800 313.780,80.800 314.000 C 80.800 314.220,80.361 314.400,79.824 314.400 C 79.287 314.400,78.736 314.580,78.600 314.800 C 78.464 315.020,78.003 315.200,77.576 315.200 C 77.149 315.200,76.800 315.380,76.800 315.600 C 76.800 315.820,76.350 316.000,75.800 316.000 C 75.250 316.000,74.800 316.180,74.800 316.400 C 74.800 316.620,74.260 316.800,73.600 316.800 C 72.940 316.800,72.400 316.980,72.400 317.200 C 72.400 317.420,71.860 317.600,71.200 317.600 C 70.540 317.600,70.000 317.780,70.000 318.000 C 70.000 318.220,69.471 318.400,68.824 318.400 C 68.177 318.400,67.536 318.580,67.400 318.800 C 67.264 319.020,66.533 319.200,65.776 319.200 C 65.019 319.200,64.400 319.380,64.400 319.600 C 64.400 319.820,63.860 320.000,63.200 320.000 C 62.540 320.000,62.000 320.180,62.000 320.400 C 62.000 320.620,61.370 320.800,60.600 320.800 C 59.830 320.800,59.200 320.980,59.200 321.200 C 59.200 321.420,58.401 321.600,57.424 321.600 C 56.447 321.600,55.536 321.780,55.400 322.000 C 55.264 322.220,54.443 322.400,53.576 322.400 C 52.709 322.400,52.000 322.580,52.000 322.800 C 52.000 323.020,51.100 323.200,50.000 323.200 C 48.900 323.200,48.000 323.380,48.000 323.600 C 48.000 323.825,46.878 324.000,45.433 324.000 C 44.022 324.000,42.807 324.161,42.733 324.358 C 42.405 325.239,13.474 326.347,9.200 325.642 C 7.770 325.407,5.106 325.150,3.280 325.072 L -0.041 324.930 0.080 325.965 C 0.151 326.580,0.565 327.160,1.100 327.395 C 1.595 327.612,2.000 327.927,2.000 328.095 C 2.000 328.263,2.360 328.400,2.800 328.400 C 3.240 328.400,3.600 328.580,3.600 328.800 C 3.600 329.020,3.836 329.200,4.125 329.200 C 4.413 329.200,5.036 329.560,5.508 330.000 C 5.980 330.440,6.644 330.800,6.983 330.800 C 7.322 330.800,7.600 330.980,7.600 331.200 C 7.600 331.420,7.836 331.600,8.125 331.600 C 8.413 331.600,9.036 331.960,9.508 332.400 C 9.980 332.840,10.554 333.200,10.783 333.200 C 11.012 333.200,11.200 333.380,11.200 333.600 C 11.200 333.820,11.545 334.000,11.967 334.000 C 12.388 334.000,12.793 334.148,12.867 334.329 C 13.084 334.866,28.336 342.400,29.204 342.400 C 29.642 342.400,30.000 342.580,30.000 342.800 C 30.000 343.020,30.360 343.200,30.800 343.200 C 31.240 343.200,31.600 343.380,31.600 343.600 C 31.600 343.820,32.039 344.000,32.576 344.000 C 33.113 344.000,33.664 344.180,33.800 344.400 C 33.936 344.620,34.397 344.800,34.824 344.800 C 35.251 344.800,35.600 344.980,35.600 345.200 C 35.600 345.420,35.960 345.600,36.400 345.600 C 36.840 345.600,37.200 345.780,37.200 346.000 C 37.200 346.220,37.740 346.400,38.400 346.400 C 39.060 346.400,39.600 346.580,39.600 346.800 C 39.600 347.020,39.960 347.200,40.400 347.200 C 40.840 347.200,41.200 347.380,41.200 347.600 C 41.200 347.820,41.650 348.000,42.200 348.000 C 42.750 348.000,43.200 348.180,43.200 348.400 C 43.200 348.620,43.639 348.800,44.176 348.800 C 44.713 348.800,45.264 348.980,45.400 349.200 C 45.536 349.420,46.076 349.600,46.600 349.600 C 47.124 349.600,47.642 349.744,47.751 349.921 C 47.860 350.097,48.872 350.493,50.000 350.800 C 51.128 351.107,52.140 351.503,52.249 351.679 C 52.358 351.856,52.876 352.000,53.400 352.000 C 53.924 352.000,54.464 352.180,54.600 352.400 C 54.736 352.620,55.276 352.800,55.800 352.800 C 56.324 352.800,56.864 352.980,57.000 353.200 C 57.136 353.420,57.766 353.600,58.400 353.600 C 59.034 353.600,59.664 353.780,59.800 354.000 C 59.936 354.220,60.566 354.400,61.200 354.400 C 61.834 354.400,62.452 354.560,62.573 354.756 C 62.694 354.951,63.379 355.208,64.096 355.327 C 64.813 355.445,66.165 355.735,67.100 355.971 C 68.035 356.207,69.520 356.580,70.400 356.800 C 71.280 357.020,72.765 357.397,73.700 357.639 C 74.635 357.880,77.155 358.271,79.300 358.508 C 81.445 358.744,83.200 359.087,83.200 359.269 C 83.200 359.451,84.089 359.600,85.176 359.600 C 86.263 359.600,87.264 359.780,87.400 360.000 C 87.536 360.220,88.706 360.400,90.000 360.400 C 91.294 360.400,92.464 360.580,92.600 360.800 C 92.736 361.020,94.367 361.200,96.224 361.200 C 98.208 361.200,99.600 361.365,99.600 361.600 C 99.600 361.837,101.067 362.000,103.200 362.000 C 105.333 362.000,106.800 362.163,106.800 362.400 C 106.800 362.661,113.459 362.800,125.976 362.800 C 138.329 362.800,145.241 362.658,145.400 362.400 C 145.540 362.173,147.530 362.000,150.000 362.000 C 152.470 362.000,154.460 361.827,154.600 361.600 C 154.736 361.380,156.097 361.200,157.624 361.200 C 159.208 361.200,160.400 361.028,160.400 360.800 C 160.400 360.567,161.733 360.400,163.600 360.400 C 165.467 360.400,166.800 360.233,166.800 360.000 C 166.800 359.780,167.700 359.600,168.800 359.600 C 169.900 359.600,170.800 359.451,170.800 359.269 C 170.800 359.087,172.555 358.744,174.700 358.508 C 176.845 358.271,179.410 357.865,180.400 357.606 C 181.390 357.347,182.876 357.040,183.703 356.925 C 184.529 356.810,185.305 356.555,185.426 356.358 C 185.548 356.161,186.256 356.000,187.000 356.000 C 187.744 356.000,188.464 355.820,188.600 355.600 C 188.736 355.380,189.467 355.200,190.224 355.200 C 190.981 355.200,191.600 355.040,191.600 354.844 C 191.600 354.648,192.230 354.378,193.000 354.244 C 193.770 354.110,195.030 353.890,195.800 353.756 C 196.570 353.622,197.200 353.352,197.200 353.156 C 197.200 352.960,197.740 352.800,198.400 352.800 C 199.060 352.800,199.600 352.620,199.600 352.400 C 199.600 352.180,200.140 352.000,200.800 352.000 C 201.460 352.000,202.000 351.820,202.000 351.600 C 202.000 351.380,202.540 351.200,203.200 351.200 C 203.860 351.200,204.400 351.020,204.400 350.800 C 204.400 350.580,204.839 350.400,205.376 350.400 C 205.913 350.400,206.464 350.220,206.600 350.000 C 206.736 349.780,207.287 349.600,207.824 349.600 C 208.361 349.600,208.800 349.420,208.800 349.200 C 208.800 348.980,209.340 348.800,210.000 348.800 C 210.660 348.800,211.200 348.620,211.200 348.400 C 211.200 348.180,211.560 348.000,212.000 348.000 C 212.440 348.000,212.800 347.820,212.800 347.600 C 212.800 347.380,213.340 347.200,214.000 347.200 C 214.660 347.200,215.200 347.020,215.200 346.800 C 215.200 346.580,215.650 346.400,216.200 346.400 C 216.750 346.400,217.200 346.220,217.200 346.000 C 217.200 345.780,217.650 345.600,218.200 345.600 C 218.750 345.600,219.200 345.420,219.200 345.200 C 219.200 344.980,219.560 344.800,220.000 344.800 C 220.440 344.800,220.800 344.620,220.800 344.400 C 220.800 344.180,221.149 344.000,221.576 344.000 C 222.003 344.000,222.464 343.820,222.600 343.600 C 222.736 343.380,223.197 343.200,223.624 343.200 C 224.051 343.200,224.400 343.020,224.400 342.800 C 224.400 342.580,224.760 342.400,225.200 342.400 C 225.640 342.400,226.000 342.236,226.000 342.035 C 226.000 341.834,226.720 341.549,227.600 341.400 C 228.480 341.251,229.200 340.966,229.200 340.765 C 229.200 340.564,229.560 340.400,230.000 340.400 C 230.440 340.400,230.800 340.220,230.800 340.000 C 230.800 339.780,231.160 339.600,231.600 339.600 C 232.040 339.600,232.400 339.420,232.400 339.200 C 232.400 338.980,232.760 338.800,233.200 338.800 C 233.640 338.800,234.000 338.620,234.000 338.400 C 234.000 338.180,234.360 338.000,234.800 338.000 C 235.240 338.000,235.600 337.820,235.600 337.600 C 235.600 337.380,235.960 337.200,236.400 337.200 C 236.840 337.200,237.200 337.020,237.200 336.800 C 237.200 336.580,237.560 336.400,238.000 336.400 C 238.440 336.400,238.800 336.220,238.800 336.000 C 238.800 335.780,239.070 335.600,239.400 335.600 C 239.730 335.600,240.000 335.420,240.000 335.200 C 240.000 334.980,240.236 334.800,240.525 334.800 C 240.813 334.800,241.436 334.440,241.908 334.000 C 242.380 333.560,243.044 333.200,243.383 333.200 C 243.722 333.200,244.000 333.020,244.000 332.800 C 244.000 332.580,244.360 332.400,244.800 332.400 C 245.240 332.400,245.600 332.220,245.600 332.000 C 245.600 331.780,245.920 331.600,246.312 331.600 C 246.703 331.600,247.283 331.240,247.600 330.800 C 247.917 330.360,248.457 330.000,248.800 330.000 C 249.143 330.000,249.683 329.640,250.000 329.200 C 250.317 328.760,250.897 328.400,251.288 328.400 C 251.680 328.400,252.000 328.220,252.000 328.000 C 252.000 327.780,252.270 327.600,252.600 327.600 C 252.930 327.600,253.200 327.420,253.200 327.200 C 253.200 326.980,253.470 326.800,253.800 326.800 C 254.130 326.800,254.402 326.665,254.405 326.500 C 254.407 326.335,255.098 325.870,255.940 325.467 C 256.783 325.064,258.086 324.209,258.836 323.568 C 259.586 322.927,260.385 322.401,260.612 322.401 C 260.838 322.400,261.283 322.040,261.600 321.600 C 261.917 321.160,262.362 320.800,262.588 320.799 C 262.815 320.799,263.630 320.259,264.400 319.600 C 265.170 318.941,265.953 318.401,266.140 318.401 C 266.326 318.400,266.983 317.860,267.600 317.200 C 268.217 316.540,268.897 316.000,269.112 316.000 C 269.327 316.000,270.245 315.280,271.152 314.400 C 272.059 313.520,272.918 312.800,273.060 312.800 C 273.203 312.800,274.183 311.900,275.237 310.800 C 276.292 309.700,277.344 308.800,277.574 308.800 C 278.110 308.800,279.364 307.732,283.213 304.000 C 284.915 302.350,287.815 299.560,289.657 297.800 C 291.499 296.040,293.245 294.134,293.536 293.564 C 293.828 292.995,294.442 292.275,294.900 291.964 C 296.203 291.083,301.200 285.985,301.200 285.538 C 301.200 285.318,301.881 284.476,302.713 283.669 C 303.545 282.861,304.668 281.570,305.209 280.800 C 305.749 280.030,306.688 278.878,307.296 278.241 C 307.903 277.603,308.400 276.856,308.400 276.581 C 308.400 276.305,309.030 275.450,309.800 274.680 C 310.570 273.910,311.200 273.170,311.200 273.036 C 311.200 272.902,311.740 272.228,312.400 271.537 C 313.060 270.846,313.600 270.078,313.600 269.829 C 313.600 269.580,313.960 269.117,314.400 268.800 C 314.840 268.483,315.200 267.943,315.200 267.600 C 315.200 267.257,315.560 266.717,316.000 266.400 C 316.440 266.083,316.800 265.585,316.800 265.294 C 316.800 265.002,317.236 264.328,317.769 263.795 C 318.302 263.262,318.854 262.460,318.996 262.013 C 319.138 261.566,319.400 261.200,319.578 261.200 C 319.757 261.200,320.127 260.660,320.400 260.000 C 320.673 259.340,321.055 258.800,321.249 258.800 C 321.442 258.800,321.600 258.614,321.600 258.387 C 321.600 258.161,322.410 256.767,323.400 255.292 C 324.390 253.816,325.200 252.331,325.200 251.993 C 325.200 251.654,325.560 251.117,326.000 250.800 C 326.440 250.483,326.800 249.903,326.800 249.512 C 326.800 249.120,326.980 248.800,327.200 248.800 C 327.420 248.800,327.600 248.440,327.600 248.000 C 327.600 247.560,327.780 247.200,328.000 247.200 C 328.220 247.200,328.400 246.922,328.400 246.583 C 328.400 246.244,328.760 245.580,329.200 245.108 C 329.640 244.636,330.000 244.013,330.000 243.725 C 330.000 243.436,330.180 243.200,330.400 243.200 C 330.620 243.200,330.800 242.840,330.800 242.400 C 330.800 241.960,330.946 241.600,331.125 241.600 C 331.304 241.600,331.698 240.970,332.000 240.200 C 332.302 239.430,332.696 238.800,332.875 238.800 C 333.054 238.800,333.200 238.440,333.200 238.000 C 333.200 237.560,333.380 237.200,333.600 237.200 C 333.820 237.200,334.000 236.840,334.000 236.400 C 334.000 235.960,334.180 235.600,334.400 235.600 C 334.620 235.600,334.800 235.240,334.800 234.800 C 334.800 234.360,334.980 234.000,335.200 234.000 C 335.420 234.000,335.600 233.640,335.600 233.200 C 335.600 232.760,335.780 232.400,336.000 232.400 C 336.220 232.400,336.400 232.040,336.400 231.600 C 336.400 231.160,336.580 230.800,336.800 230.800 C 337.020 230.800,337.200 230.564,337.200 230.275 C 337.200 229.986,337.560 229.005,338.000 228.094 C 338.440 227.184,338.800 226.175,338.800 225.853 C 338.800 225.530,338.943 225.207,339.119 225.133 C 339.615 224.926,341.106 221.506,341.413 219.871 C 341.565 219.062,341.849 218.400,342.045 218.400 C 342.240 218.400,342.400 217.860,342.400 217.200 C 342.400 216.540,342.580 216.000,342.800 216.000 C 343.020 216.000,343.200 215.640,343.200 215.200 C 343.200 214.760,343.380 214.400,343.600 214.400 C 343.820 214.400,344.000 213.860,344.000 213.200 C 344.000 212.540,344.180 212.000,344.400 212.000 C 344.620 212.000,344.800 211.640,344.800 211.200 C 344.800 210.760,344.980 210.400,345.200 210.400 C 345.420 210.400,345.600 209.860,345.600 209.200 C 345.600 208.540,345.780 208.000,346.000 208.000 C 346.220 208.000,346.400 207.561,346.400 207.024 C 346.400 206.487,346.580 205.936,346.800 205.800 C 347.020 205.664,347.200 205.113,347.200 204.576 C 347.200 204.039,347.380 203.600,347.600 203.600 C 347.820 203.600,348.000 203.060,348.000 202.400 C 348.000 201.740,348.180 201.200,348.400 201.200 C 348.620 201.200,348.800 200.660,348.800 200.000 C 348.800 199.340,348.980 198.800,349.200 198.800 C 349.420 198.800,349.600 198.181,349.600 197.424 C 349.600 196.667,349.780 195.936,350.000 195.800 C 350.220 195.664,350.400 195.023,350.400 194.376 C 350.400 193.729,350.580 193.200,350.800 193.200 C 351.020 193.200,351.200 192.660,351.200 192.000 C 351.200 191.340,351.380 190.800,351.600 190.800 C 351.820 190.800,352.000 190.181,352.000 189.424 C 352.000 188.667,352.180 187.936,352.400 187.800 C 352.620 187.664,352.800 186.944,352.800 186.200 C 352.800 185.456,352.980 184.736,353.200 184.600 C 353.420 184.464,353.600 183.733,353.600 182.976 C 353.600 182.219,353.780 181.600,354.000 181.600 C 354.220 181.600,354.400 180.700,354.400 179.600 C 354.400 178.500,354.580 177.600,354.800 177.600 C 355.020 177.600,355.200 176.801,355.200 175.824 C 355.200 174.847,355.380 173.936,355.600 173.800 C 355.820 173.664,356.000 172.789,356.000 171.856 C 356.000 170.923,356.164 169.989,356.365 169.780 C 356.565 169.571,356.826 168.410,356.945 167.200 C 357.063 165.990,357.356 163.830,357.596 162.400 C 358.260 158.444,358.721 153.030,358.762 148.700 C 358.785 146.392,358.963 144.800,359.200 144.800 C 359.458 144.800,359.600 140.329,359.600 132.187 L 359.600 119.573 360.987 118.187 C 361.749 117.424,362.538 116.800,362.738 116.800 C 362.939 116.800,363.845 116.080,364.752 115.200 C 365.659 114.320,366.595 113.600,366.832 113.600 C 367.069 113.600,367.954 112.880,368.800 112.000 C 369.646 111.120,370.549 110.400,370.808 110.400 C 371.377 110.400,385.851 95.901,387.212 93.967 C 387.742 93.215,388.945 91.904,389.887 91.052 C 390.829 90.201,391.600 89.256,391.600 88.952 C 391.600 88.649,391.780 88.400,392.000 88.400 C 392.220 88.400,392.400 88.170,392.400 87.888 C 392.400 87.607,392.760 87.117,393.200 86.800 C 393.640 86.483,394.000 86.020,394.000 85.771 C 394.000 85.522,394.540 84.754,395.200 84.063 C 395.860 83.372,396.400 82.608,396.400 82.364 C 396.400 82.120,396.940 81.417,397.600 80.800 C 398.260 80.183,398.800 79.468,398.800 79.211 C 398.800 78.953,399.070 78.473,399.400 78.143 C 399.994 77.549,400.254 75.200,399.727 75.200 C 399.174 75.200,394.588 76.904,394.220 77.247 C 394.011 77.441,393.426 77.600,392.920 77.600 C 392.414 77.600,392.000 77.780,392.000 78.000 C 392.000 78.220,391.640 78.400,391.200 78.400 C 390.760 78.400,390.400 78.580,390.400 78.800 C 390.400 79.020,389.860 79.200,389.200 79.200 C 388.540 79.200,388.000 79.380,388.000 79.600 C 388.000 79.820,387.460 80.000,386.800 80.000 C 386.140 80.000,385.600 80.180,385.600 80.400 C 385.600 80.620,385.060 80.800,384.400 80.800 C 383.740 80.800,383.200 80.980,383.200 81.200 C 383.200 81.420,382.660 81.600,382.000 81.600 C 381.340 81.600,380.800 81.780,380.800 82.000 C 380.800 82.220,380.170 82.400,379.400 82.400 C 378.630 82.400,378.000 82.580,378.000 82.800 C 378.000 83.020,377.460 83.200,376.800 83.200 C 376.140 83.200,375.600 83.380,375.600 83.600 C 375.600 83.820,374.880 84.000,374.000 84.000 C 373.120 84.000,372.400 84.180,372.400 84.400 C 372.400 84.620,371.601 84.800,370.624 84.800 C 369.647 84.800,368.736 84.980,368.600 85.200 C 368.464 85.420,367.643 85.600,366.776 85.600 C 365.909 85.600,365.200 85.780,365.200 86.000 C 365.200 86.220,364.300 86.400,363.200 86.400 C 362.100 86.400,361.200 86.580,361.200 86.800 C 361.200 87.020,360.480 87.200,359.600 87.200 C 358.720 87.200,358.000 87.097,358.000 86.971 C 358.000 86.600,359.111 85.600,359.523 85.600 C 359.732 85.600,360.645 84.880,361.552 84.000 C 362.459 83.120,363.389 82.400,363.618 82.400 C 364.151 82.400,375.200 71.327,375.200 70.792 C 375.200 70.573,375.740 69.828,376.400 69.137 C 377.060 68.446,377.600 67.704,377.600 67.488 C 377.600 67.271,377.916 66.803,378.303 66.447 C 378.689 66.091,379.260 65.305,379.570 64.700 C 379.881 64.095,380.285 63.600,380.468 63.600 C 380.650 63.600,380.800 63.322,380.800 62.983 C 380.800 62.644,381.160 61.980,381.600 61.508 C 382.040 61.036,382.400 60.413,382.400 60.125 C 382.400 59.836,382.546 59.600,382.725 59.600 C 382.904 59.600,383.298 58.970,383.600 58.200 C 383.902 57.430,384.296 56.800,384.475 56.800 C 384.654 56.800,384.800 56.440,384.800 56.000 C 384.800 55.560,384.980 55.200,385.200 55.200 C 385.420 55.200,385.600 54.840,385.600 54.400 C 385.600 53.960,385.780 53.600,386.000 53.600 C 386.220 53.600,386.400 53.240,386.400 52.800 C 386.400 52.360,386.580 52.000,386.800 52.000 C 387.020 52.000,387.200 51.460,387.200 50.800 C 387.200 50.140,387.380 49.600,387.600 49.600 C 387.820 49.600,388.000 49.251,388.000 48.824 C 388.000 48.397,388.180 47.936,388.400 47.800 C 388.620 47.664,388.800 47.113,388.800 46.576 C 388.800 46.039,388.980 45.600,389.200 45.600 C 389.843 45.600,389.669 43.201,389.008 42.948 C 388.682 42.823,387.467 43.210,386.308 43.808 C 385.149 44.407,383.796 45.100,383.303 45.348 C 382.810 45.597,382.405 45.935,382.403 46.100 C 382.401 46.265,382.040 46.400,381.600 46.400 C 381.160 46.400,380.800 46.580,380.800 46.800 C 380.800 47.020,380.440 47.200,380.000 47.200 C 379.560 47.200,379.200 47.346,379.200 47.525 C 379.200 47.704,378.570 48.098,377.800 48.400 C 377.030 48.702,376.400 49.096,376.400 49.275 C 376.400 49.454,376.040 49.600,375.600 49.600 C 375.160 49.600,374.800 49.780,374.800 50.000 C 374.800 50.220,374.440 50.400,374.000 50.400 C 373.560 50.400,373.200 50.580,373.200 50.800 C 373.200 51.020,372.660 51.200,372.000 51.200 C 371.340 51.200,370.800 51.380,370.800 51.600 C 370.800 51.820,370.440 52.000,370.000 52.000 C 369.560 52.000,369.200 52.180,369.200 52.400 C 369.200 52.620,368.840 52.800,368.400 52.800 C 367.960 52.800,367.600 52.980,367.600 53.200 C 367.600 53.420,367.161 53.600,366.624 53.600 C 366.087 53.600,365.536 53.780,365.400 54.000 C 365.264 54.220,364.803 54.400,364.376 54.400 C 363.949 54.400,363.600 54.580,363.600 54.800 C 363.600 55.020,363.161 55.200,362.624 55.200 C 362.087 55.200,361.536 55.380,361.400 55.600 C 361.264 55.820,360.713 56.000,360.176 56.000 C 359.639 56.000,359.200 56.180,359.200 56.400 C 359.200 56.620,358.660 56.800,358.000 56.800 C 357.340 56.800,356.800 56.980,356.800 57.200 C 356.800 57.420,356.260 57.600,355.600 57.600 C 354.940 57.600,354.400 57.741,354.400 57.914 C 354.400 58.087,353.365 58.448,352.100 58.718 C 350.835 58.987,349.080 59.400,348.200 59.636 C 347.320 59.872,345.925 60.159,345.100 60.275 C 344.275 60.390,343.600 60.645,343.600 60.842 C 343.600 61.039,342.880 61.200,342.000 61.200 C 341.120 61.200,340.400 61.380,340.400 61.600 C 340.400 61.820,339.597 62.000,338.615 62.000 C 336.756 62.000,336.411 61.763,331.777 57.300 C 331.034 56.585,330.262 56.000,330.062 56.000 C 329.861 56.000,328.955 55.280,328.048 54.400 C 327.141 53.520,326.173 52.800,325.896 52.800 C 325.619 52.800,325.168 52.440,324.893 52.000 C 324.618 51.560,324.125 51.200,323.797 51.200 C 323.468 51.200,323.200 51.050,323.200 50.868 C 323.200 50.685,322.705 50.280,322.100 49.968 C 321.495 49.655,320.651 49.085,320.225 48.700 C 319.798 48.315,319.213 48.000,318.925 48.000 C 318.636 48.000,318.400 47.820,318.400 47.600 C 318.400 47.380,318.040 47.200,317.600 47.200 C 317.160 47.200,316.800 47.020,316.800 46.800 C 316.800 46.580,316.440 46.400,316.000 46.400 C 315.560 46.400,315.200 46.220,315.200 46.000 C 315.200 45.780,314.840 45.600,314.400 45.600 C 313.960 45.600,313.600 45.420,313.600 45.200 C 313.600 44.980,313.240 44.800,312.800 44.800 C 312.360 44.800,312.000 44.620,312.000 44.400 C 312.000 44.180,311.640 44.000,311.200 44.000 C 310.760 44.000,310.400 43.863,310.400 43.695 C 310.400 43.527,308.691 42.852,306.601 42.195 C 304.512 41.538,302.802 40.865,302.801 40.700 C 302.801 40.535,302.080 40.400,301.200 40.400 C 300.320 40.400,299.600 40.220,299.600 40.000 C 299.600 39.780,298.880 39.600,298.000 39.600 C 297.120 39.600,296.400 39.420,296.400 39.200 C 296.400 38.980,295.680 38.800,294.800 38.800 C 293.920 38.800,293.200 38.620,293.200 38.400 C 293.200 38.174,292.067 38.000,290.600 38.000 C 289.133 38.000,288.000 37.826,288.000 37.600 C 288.000 37.343,284.000 37.200,276.800 37.200 C 269.600 37.200,265.600 37.343,265.600 37.600 "
      stroke="#04acf4"
      fill="currentcolor"
      fill-rule="evenodd"
    />
  </g>
</svg>